<svg xmlns="http://www.w3.org/2000/svg" xmlns:xlink="http://www.w3.org/1999/xlink" width="500" zoomAndPan="magnify" viewBox="0 0 375 374.999991" height="500" preserveAspectRatio="xMidYMid meet" version="1.0"><path fill="#b48bcc" d="M 337.59375 208.648438 C 336.628906 220.75 336.171875 234.683594 334.339844 248.359375 C 331.746094 267.53125 326.507812 286.191406 313.542969 298.75 C 292.1875 319.441406 261.78125 327.984375 233.410156 333.78125 C 180.277344 344.613281 124.449219 336.882812 77.773438 308.5625 C 62.621094 299.359375 47.570312 287.664062 40.503906 270.886719 C 33.789062 255.019531 34.453125 237.226562 34.554688 220.394531 C 34.65625 211.191406 39.636719 30.386719 48.027344 31.199219 C 48.027344 31.199219 85.753906 35.46875 115.90625 94.804688 C 115.90625 94.804688 184.039062 73.808594 265.902344 98.621094 C 265.902344 98.621094 277.699219 55.910156 312.730469 37.910156 C 314.613281 36.945312 333.425781 97.703125 334.136719 101.214844 C 341.203125 135.941406 340.339844 173.414062 337.59375 208.648438 Z M 337.59375 208.648438 " fill-opacity="1" fill-rule="nonzero"/><path fill="#5e6697" d="M 204.683594 273.988281 C 204.582031 274.039062 203.769531 274.191406 202.546875 274.34375 C 199.140625 274.75 192.378906 274.800781 187.140625 270.019531 C 185.769531 268.800781 184.648438 267.324219 183.734375 265.699219 C 182.363281 267.9375 180.632812 269.765625 178.648438 271.140625 C 176.261719 272.765625 173.769531 273.527344 171.480469 273.785156 C 167.007812 274.34375 163.394531 273.019531 163.191406 272.917969 C 161.363281 272.257812 160.445312 270.222656 161.109375 268.394531 C 161.769531 266.5625 163.804688 265.597656 165.632812 266.308594 C 165.632812 266.308594 170.667969 268.039062 174.734375 265.242188 C 177.632812 263.257812 179.617188 259.292969 180.53125 253.648438 C 180.480469 252.378906 180.429688 251.054688 180.480469 249.734375 C 178.089844 249.480469 175.851562 249.226562 174.175781 248.972656 C 167.363281 247.953125 182.972656 233.054688 182.972656 233.054688 C 188.054688 227.71875 197.003906 247.089844 196.953125 249.328125 C 196.953125 250.445312 192.9375 250.597656 188.054688 250.34375 C 187.953125 251.613281 187.800781 252.835938 187.648438 254.003906 C 188.054688 258.9375 189.480469 262.597656 191.921875 264.835938 C 196.242188 268.75 202.902344 267.222656 202.953125 267.171875 C 204.835938 266.664062 206.769531 267.835938 207.277344 269.714844 C 207.734375 271.597656 206.5625 273.527344 204.683594 273.988281 Z M 204.683594 273.988281 " fill-opacity="1" fill-rule="nonzero"/><path fill="#eba6aa" d="M 254.410156 178.5 C 254.359375 180.988281 253.140625 185.617188 245.613281 188.363281 C 243.679688 189.074219 241.496094 189.582031 239.054688 189.9375 C 236.054688 190.394531 232.648438 190.550781 229.039062 190.5 C 213.53125 190.089844 204.074219 185.007812 204.277344 177.226562 C 204.328125 175.296875 205.953125 173.71875 207.886719 173.769531 C 209.820312 173.820312 211.394531 175.449219 211.34375 177.378906 C 211.292969 180.023438 218.105469 183.074219 229.242188 183.378906 C 234.835938 183.53125 239.816406 182.921875 243.273438 181.652344 C 244.496094 181.195312 247.394531 179.972656 247.445312 178.296875 C 247.496094 176.363281 249.121094 174.785156 251.054688 174.835938 C 252.882812 174.9375 254.460938 176.566406 254.410156 178.5 Z M 164.363281 172.703125 C 162.429688 172.652344 160.804688 174.175781 160.753906 176.160156 C 160.703125 178.804688 153.734375 181.5 142.601562 181.246094 C 131.464844 180.9375 124.652344 177.9375 124.703125 175.246094 C 124.753906 173.3125 123.226562 171.683594 121.246094 171.632812 C 119.3125 171.582031 117.6875 173.109375 117.636719 175.09375 C 117.433594 182.871094 126.941406 187.957031 142.398438 188.3125 C 146.058594 188.414062 149.363281 188.210938 152.363281 187.804688 C 161.972656 186.378906 167.667969 182.3125 167.820312 176.363281 C 167.871094 174.378906 166.292969 172.753906 164.363281 172.703125 Z M 164.363281 172.703125 " fill-opacity="1" fill-rule="nonzero"/><path fill="#f7c9c9" d="M 95.925781 96.789062 L 53.875 111.839844 C 53.925781 108.738281 60.992188 60.6875 60.992188 60.6875 C 60.992188 60.6875 78.128906 68.570312 95.925781 96.789062 Z M 306.273438 64.09375 C 298.238281 59.011719 280.085938 101.773438 280.085938 101.773438 C 295.644531 106.398438 317.355469 119.671875 317.355469 119.671875 C 318.984375 80.113281 306.273438 64.09375 306.273438 64.09375 Z M 306.273438 64.09375 " fill-opacity="1" fill-rule="nonzero"/><path fill="#ffffff" d="M 70.855469 199.34375 C 71.621094 197.566406 73.703125 196.753906 75.535156 197.515625 L 143.261719 227.15625 C 145.039062 227.921875 145.855469 230.003906 145.089844 231.835938 C 144.582031 232.953125 143.566406 233.71875 142.449219 233.921875 C 141.785156 234.023438 141.125 233.972656 140.464844 233.667969 L 72.6875 204.023438 C 70.90625 203.210938 70.09375 201.125 70.855469 199.34375 Z M 142.144531 235.800781 L 66.941406 228.175781 C 65.011719 227.972656 63.28125 229.394531 63.078125 231.328125 C 62.875 233.257812 64.296875 234.988281 66.230469 235.191406 L 141.429688 242.820312 C 141.734375 242.871094 142.042969 242.820312 142.347656 242.765625 C 143.871094 242.511719 145.144531 241.242188 145.296875 239.613281 C 145.550781 237.734375 144.125 236.003906 142.144531 235.800781 Z M 141.277344 245.921875 L 64.652344 257.003906 C 64.652344 257.003906 64.601562 257.003906 64.601562 257.003906 C 62.722656 257.308594 61.398438 259.089844 61.703125 261.019531 C 62.011719 262.953125 63.789062 264.273438 65.722656 264.019531 L 142.347656 252.9375 C 142.347656 252.9375 142.398438 252.9375 142.398438 252.9375 C 144.277344 252.632812 145.601562 250.851562 145.296875 248.917969 C 145.039062 246.988281 143.261719 245.613281 141.277344 245.921875 Z M 299.96875 267.988281 L 225.683594 249.582031 C 223.800781 249.125 221.867188 250.242188 221.410156 252.175781 C 220.953125 254.054688 222.121094 255.988281 224.003906 256.445312 L 298.289062 274.851562 C 298.796875 274.953125 299.257812 275.003906 299.714844 274.902344 C 301.085938 274.699219 302.203125 273.683594 302.5625 272.257812 C 303.019531 270.375 301.847656 268.496094 299.96875 267.988281 Z M 303.222656 239.359375 L 225.785156 239.511719 C 223.800781 239.511719 222.226562 241.089844 222.226562 243.074219 C 222.226562 245.003906 223.800781 246.632812 225.785156 246.632812 L 303.222656 246.480469 C 303.425781 246.480469 303.628906 246.480469 303.78125 246.429688 C 305.460938 246.175781 306.730469 244.699219 306.730469 242.921875 C 306.78125 240.9375 305.203125 239.359375 303.222656 239.359375 Z M 227.257812 237.632812 C 227.410156 237.582031 227.613281 237.582031 227.765625 237.53125 L 300.070312 214.089844 C 301.949219 213.480469 302.96875 211.496094 302.359375 209.617188 C 301.746094 207.734375 299.765625 206.71875 297.882812 207.328125 L 225.582031 230.769531 C 223.699219 231.378906 222.683594 233.359375 223.292969 235.242188 C 223.851562 236.921875 225.582031 237.886719 227.257812 237.632812 Z M 227.257812 237.632812 " fill-opacity="1" fill-rule="nonzero"/></svg>