<svg xmlns="http://www.w3.org/2000/svg" xmlns:xlink="http://www.w3.org/1999/xlink" width="500" zoomAndPan="magnify" viewBox="0 0 375 374.999991" height="500" preserveAspectRatio="xMidYMid meet" version="1.0"><path fill="#5e6697" d="M 349.074219 185.1875 C 337.277344 192.472656 322.816406 191.984375 309.875 187.308594 C 307.8125 220.851562 299.328125 253.039062 287.097656 284.949219 C 274.105469 318.765625 240.507812 350.1875 203.046875 351.765625 C 141.996094 354.375 95.1875 290.984375 77.628906 240.097656 C 73.0625 226.886719 70.398438 208.945312 68.710938 193.941406 C 55.71875 199.921875 40.820312 201.390625 28.261719 194.378906 C 8.421875 183.285156 0.265625 154.039062 3.800781 128.976562 C 7.332031 103.914062 19.890625 82.167969 32.230469 61.34375 C 45.335938 39.164062 57.730469 22.417969 81.050781 28.019531 C 96.710938 31.824219 132.320312 45.144531 143.84375 58.136719 C 143.84375 58.136719 143.898438 58.191406 143.898438 58.246094 C 146.78125 57.972656 149.660156 57.757812 152.542969 57.648438 C 176.953125 56.34375 201.527344 57.429688 225.9375 61.019531 C 226.261719 60.582031 226.589844 60.148438 226.914062 59.769531 C 237.679688 46.613281 272.363281 31.824219 287.75 27.3125 C 310.636719 20.625 323.847656 36.171875 338.09375 56.886719 C 351.464844 76.351562 365.167969 96.738281 370.003906 120.765625 C 374.734375 144.6875 368.210938 173.445312 349.074219 185.1875 Z M 349.074219 185.1875 " fill-opacity="1" fill-rule="nonzero"/><path fill="#7f98ad" d="M 264.15625 156.105469 C 258.554688 134.085938 235.777344 131.964844 217.835938 141.371094 C 207.617188 146.753906 199.730469 157.136719 199.1875 168.664062 C 198.753906 177.523438 202.667969 186.332031 209.027344 192.472656 C 215.390625 198.617188 224.035156 202.152344 232.894531 202.914062 C 242.027344 203.726562 251.976562 201.226562 257.792969 194.105469 C 261.164062 189.972656 262.796875 184.644531 263.882812 179.425781 C 265.515625 171.816406 266.113281 163.714844 264.15625 156.105469 Z M 232.40625 175.785156 C 229.035156 175.839844 226.261719 173.175781 226.207031 169.804688 C 226.152344 166.433594 228.816406 163.660156 232.1875 163.605469 C 235.558594 163.550781 238.332031 166.214844 238.386719 169.585938 C 238.441406 172.957031 235.777344 175.730469 232.40625 175.785156 Z M 232.40625 175.785156 " fill-opacity="1" fill-rule="nonzero"/><path fill="#292929" d="M 156.945312 171 C 157 174.371094 154.335938 177.144531 150.964844 177.199219 C 147.59375 177.253906 144.824219 174.589844 144.769531 171.21875 C 144.714844 167.847656 147.378906 165.074219 150.75 165.019531 C 154.121094 164.964844 156.890625 167.628906 156.945312 171 Z M 156.945312 171 " fill-opacity="1" fill-rule="nonzero"/><path fill="#292929" d="M 221.371094 293.105469 C 221.042969 293.324219 212.726562 298.324219 204.40625 293.8125 C 200.65625 291.800781 197.613281 288.210938 195.328125 283.101562 C 194.023438 287.558594 191.957031 291.472656 188.75 293.921875 C 186.46875 295.660156 183.804688 296.585938 180.8125 296.640625 C 177.933594 296.691406 174.722656 295.933594 171.191406 294.410156 C 169.613281 293.703125 168.851562 291.855469 169.558594 290.222656 C 170.265625 288.648438 172.113281 287.886719 173.746094 288.59375 C 178.636719 290.765625 182.335938 290.875 184.890625 288.863281 C 188.53125 286.09375 190.652344 278.859375 190.925781 268.53125 C 190.925781 267.660156 190.980469 266.847656 190.925781 266.03125 C 190.597656 263.640625 190.382812 261.03125 190.21875 258.367188 C 188.640625 257.820312 187.066406 256.953125 185.761719 255.972656 C 183.097656 253.960938 180.921875 251.40625 179.34375 248.472656 C 178.691406 247.273438 178.148438 245.96875 177.769531 244.664062 C 176.953125 242.109375 176.679688 239.121094 178.257812 236.945312 C 179.617188 235.097656 182.007812 234.28125 184.347656 234.007812 C 191.035156 233.25 198.375 232.324219 204.953125 233.957031 C 205.875 234.171875 206.910156 234.5 207.507812 235.261719 C 208.269531 236.238281 208.105469 237.597656 207.886719 238.792969 C 207.070312 243.414062 205.550781 247.871094 203.375 252.003906 C 202.125 254.398438 200.601562 256.789062 198.265625 258.039062 C 197.882812 258.257812 197.449219 258.417969 197.066406 258.527344 C 197.230469 260.703125 197.339844 263.203125 197.339844 265.867188 C 198.972656 277.773438 202.449219 285.546875 207.453125 288.265625 C 212.507812 291.039062 218.054688 287.777344 218.054688 287.722656 C 219.519531 286.796875 221.476562 287.289062 222.402344 288.753906 C 223.328125 290.277344 222.890625 292.179688 221.371094 293.105469 Z M 221.371094 293.105469 " fill-opacity="1" fill-rule="nonzero"/></svg>