<svg xmlns="http://www.w3.org/2000/svg" xmlns:xlink="http://www.w3.org/1999/xlink" width="500" zoomAndPan="magnify" viewBox="0 0 375 374.999991" height="500" preserveAspectRatio="xMidYMid meet" version="1.0"><defs><clipPath id="1de47497d7"><path d="M 14 186.46875 L 361.980469 186.46875 L 361.980469 375 L 14 375 Z M 14 186.46875 " clip-rule="nonzero"/></clipPath><clipPath id="164bb0779c"><path d="M 1.378906 3.351562 L 373.378906 3.351562 L 373.378906 359.414062 L 1.378906 359.414062 Z M 1.378906 3.351562 " clip-rule="nonzero"/></clipPath></defs><g clip-path="url(#1de47497d7)"><path fill="#b48bcc" d="M 45.289062 186.925781 C 45.335938 188.945312 44.304688 192.234375 44.84375 195.042969 C 47.503906 208.957031 59.144531 222.550781 54.132812 237.199219 C 51.253906 245.613281 43.65625 250.179688 38.28125 256.757812 C 33.828125 262.207031 28.246094 283.671875 17.40625 272.175781 C 10.136719 264.464844 17.730469 235.191406 20.734375 225.078125 Z M 323.125 295.800781 C 323.195312 295.804688 322.898438 295.269531 322.863281 295.175781 C 321.566406 291.667969 320.820312 287.867188 320.085938 284.214844 C 318.246094 275.046875 316.980469 265.40625 317.183594 256.042969 C 317.472656 243.007812 323.5625 247.488281 332.222656 243.144531 C 340.492188 239 344.039062 212.992188 352.976562 217.585938 C 357.554688 219.9375 359.351562 226.460938 360.449219 231.03125 C 367.664062 261.015625 339.1875 288.898438 316.785156 304.742188 Z M 86.035156 326.6875 C 84.507812 326.707031 88.414062 324.648438 89.105469 323.28125 C 90.582031 320.363281 91.628906 317.253906 92.515625 314.109375 C 94.917969 305.558594 97.105469 286.222656 109.9375 287.3125 C 112.4375 287.523438 157.808594 332.539062 121.722656 328.875 Z M 25.664062 317.519531 C 26.367188 317.808594 25.550781 319.042969 25.652344 319.796875 C 26.476562 325.976562 28.566406 331.976562 31.25 337.574219 C 35.574219 346.59375 45.800781 355.792969 47.074219 365.894531 C 49.699219 386.683594 25.390625 367.347656 20.765625 361.042969 C 14.648438 352.710938 19.738281 336.777344 21.429688 327.683594 L 25.664062 317.519531 " fill-opacity="1" fill-rule="evenodd"/></g><path fill="#5e6697" d="M 281.128906 134.273438 C 280.027344 139.617188 283.335938 144.992188 278.332031 147.816406 C 265.777344 154.902344 245.570312 150.890625 240.175781 136.820312 C 239.523438 135.113281 239.253906 133.304688 239.300781 131.464844 C 239.097656 131.363281 238.898438 131.242188 238.722656 131.078125 C 222.855469 116.417969 205.105469 125.855469 201.90625 127.761719 C 201.6875 130.960938 200.769531 134.21875 198.96875 137.40625 C 196.667969 141.492188 193.289062 145.789062 188.839844 147.703125 C 161.9375 159.289062 129.425781 130.722656 155.898438 106.679688 C 160.542969 102.460938 166.011719 99.800781 172.21875 98.84375 C 174.535156 98.488281 177.09375 98.941406 179.511719 99.214844 C 188.769531 100.265625 199.6875 110.410156 201.652344 122.4375 C 208.257812 119.121094 224.746094 113.175781 240.292969 126.078125 C 242.664062 118.910156 248.960938 112.136719 255.65625 109.359375 C 269.042969 103.804688 280.585938 111.71875 285.613281 121.785156 C 285.726562 122.011719 284.84375 122.859375 284.742188 122.984375 C 282.289062 126.054688 281.914062 130.480469 281.128906 134.273438 " fill-opacity="1" fill-rule="evenodd"/><g clip-path="url(#164bb0779c)"><path stroke-linecap="round" transform="matrix(0.056432, 0, 0, -0.0565174, 1.379128, 375.27683)" fill="none" stroke-linejoin="round" d="M 4964.001426 2990.356309 C 4967.73933 2991.66951 5032.598881 2946.744222 5043.120388 2943.703126 C 5174.639222 2905.68942 5330.454431 3031.825806 5397.252154 3139.715613 M 5104.93424 4524.451222 C 5127.915426 4496.597544 5385.207798 4040.087501 5492.361038 3925.769922 M 4991.897263 4241.905718 C 5031.422134 4073.40133 5176.646615 3843.867666 5285.668807 3746.06877 M 4943.096853 2164.21482 C 4953.54914 2117.077826 4968.223873 2070.908453 4984.352235 2025.499354 C 5034.121731 1885.74715 5097.804535 1752.146255 5167.99406 1621.655572 C 5397.944359 1194.381525 5574.525699 814.45182 5638.623826 330.295446 M 5544.484028 2924.143346 C 5480.10902 3083.10975 5361.603628 3204.684491 5252.719878 3333.58551 C 5035.990683 3590.143463 4969.677502 3898.330939 4984.421456 4237.482305 C 4995.150624 4483.742 5262.826062 4714.450633 5263.172164 4715.971181 L 5263.449046 4713.897706 C 5257.91141 4712.16981 5533.893301 4358.227656 5647.622483 4252.618672 C 5893.562703 4024.398208 6354.017064 3671.976603 6483.805387 3367.452266 C 6670.146809 2930.156423 6431.543956 2168.223538 6148.570801 1803.844894 C 5965.205857 1567.745227 5707.567383 1366.618168 5453.32071 1211.314903 M 4635.688883 5849.263409 C 4644.825981 5818.92156 4656.178133 5789.201754 4667.876387 5759.827528 C 4697.779617 5684.767739 4730.244003 5610.882919 4762.708389 5536.998099 C 4829.367672 5385.772668 4898.588111 5235.376627 4944.06594 5076.064644 C 4995.012183 4897.607576 5037.028989 4694.821738 5080.983968 4514.498543 M 4079.364214 6316.762868 C 4100.960991 6330.102222 4124.288279 6340.607828 4148.10011 6349.247307 C 4217.251329 6374.267236 4290.694215 6390.785919 4362.821912 6404.125274 C 4629.874366 6453.612207 4898.518891 6448.981446 5167.509517 6424.998254 C 5234.861004 6418.985177 5302.973916 6413.110331 5370.602285 6413.110331 C 5372.748119 6413.110331 5389.361024 6415.598501 5390.537772 6413.455911 C 5391.991401 6410.622162 5385.900002 6403.295884 5384.723255 6401.429757 C 5334.053894 6322.84506 5293.767598 6236.588507 5255.004152 6151.783387 C 5195.543795 6021.776515 4971.200352 5373.953861 4865.916064 5301.313126 M 2420.634832 6276.053645 C 2462.305536 6298.861868 2636.810263 6363.968978 2680.765242 6381.800862 C 2812.145635 6435.227396 2953.424552 6470.200005 3094.426586 6485.059908 C 3347.704173 6511.738618 3601.327862 6476.074851 3843.530178 6400.807714 C 3976.433421 6359.476449 4104.214352 6287.872452 4239.955633 6260.22612 M 1798.204643 3142.75671 C 1798.896848 3142.894941 1806.511096 3134.186347 1807.13408 3133.564304 C 2490.685916 2468.739157 3944.107476 2602.892979 4141.247287 2624.73358 C 4441.110229 2657.909178 5093.85897 2872.997634 5141.690293 3478.728748 M 1027.504274 3826.450478 C 1018.228735 3822.649107 677.733395 3165.979628 648.037827 3116.769158 C 262.895304 2478.415373 -408.819837 1616.748348 487.238747 1076.19346 M 1565.762409 5451.018009 C 1547.765095 5443.5535 1355.955258 5018.007348 1340.311439 4984.278824 C 1191.833597 4663.443152 1089.318126 4345.302997 1052.215971 3993.296086 C 1030.619194 3789.127931 1035.256963 3571.067494 985.695129 3371.18452 M 1427.667633 5181.120702 C 1434.658897 5178.4943 1399.356473 5250.305645 1389.042628 5289.010509 C 1366.061442 5375.543525 1347.371923 5463.458858 1330.066814 5551.305075 C 1310.338988 5651.315678 1170.23682 6465.845708 1207.200534 6531.851324 C 1213.568815 6543.255435 1510.593719 6535.72181 1539.043319 6535.72181 C 1885.90694 6535.72181 2335.632133 6527.635258 2661.452739 6387.95217 " stroke="#5e6697" stroke-width="85" stroke-opacity="1" stroke-miterlimit="10"/></g><path stroke-linecap="round" transform="matrix(0.056432, 0, 0, -0.0565174, 1.379128, 375.276801)" fill="none" stroke-linejoin="round" d="M 3061.9622 1228.040528 C 3055.870801 1234.191837 3074.283438 1215.945257 3080.997821 1210.554222 C 3092.557634 1201.2927 3104.048227 1191.823831 3115.192718 1182.009383 C 3145.718931 1155.123323 3174.306973 1125.610862 3201.579826 1095.407243 C 3287.274729 1000.718551 3365.632266 887.506816 3414.571117 768.765813 M 2798.024666 1157.957073 C 2797.401682 1154.432165 2835.265262 1127.47699 2838.380182 1124.712357 C 2971.352645 1006.178702 3056.770667 866.910297 3158.801594 725.291954 M 437.607692 1097.61895 C 449.305946 1128.582843 410.47328 1037.142595 400.99008 1005.487544 C 379.670185 933.952656 361.880532 861.035451 348.036444 787.772668 C 310.865068 590.516079 252.996781 324.696582 315.295176 125.159171 M 4857.955713 3517.502517 C 4873.668753 3495.938377 4948.980591 3487.298897 4973.276965 3477.760912 C 5055.372406 3445.414702 5129.230614 3397.863009 5205.096215 3353.697991 M 4799.948985 3642.878639 C 4796.349522 3633.617117 4819.53837 3645.297693 4829.436892 3646.403546 C 4851.587433 3648.891716 4873.668753 3651.587234 4895.819293 3653.729825 C 4957.217823 3659.812018 5002.557211 3640.04489 5063.817299 3632.165685 M 4698.125719 3743.165714 C 4690.37303 3739.709922 4711.277603 3753.878668 4718.407308 3758.440313 C 4741.734596 3773.57668 4765.96175 3787.330731 4790.119683 3800.94655 C 4837.674125 3827.83261 4927.591475 3899.298382 4984.213794 3901.924783 M 3165.9313 3579.914115 C 3166.554284 3583.369906 3142.119469 3570.099666 3115.261938 3558.004395 C 3080.997821 3542.66068 3047.079806 3526.487575 3013.300231 3510.245354 C 2914.799547 3462.901008 2818.444695 3411.547944 2723.405032 3357.499362 C 2431.640882 3191.621361 2126.101863 3002.451325 1901.896861 2747.55213 M 2837.826418 3634.930318 C 2839.280047 3629.26282 2825.920503 3635.06855 2820.175206 3633.824465 C 2775.04348 3624.493827 2730.603958 3610.463313 2686.648979 3596.778378 C 2582.333777 3564.363052 2479.679866 3526.971386 2378.133482 3486.745971 C 2074.463416 3366.277073 1768.509075 3229.082143 1494.465356 3049.380976 M 3068.538142 3790.648291 C 3068.330481 3785.602835 3060.647012 3797.214295 3055.870801 3798.80396 C 3044.310988 3802.60533 3031.712868 3803.849415 3019.668512 3805.43908 C 2978.551571 3810.760999 2937.296189 3814.147675 2895.902367 3816.704961 C 2774.143614 3824.238586 2651.761878 3821.543069 2529.933905 3816.428497 C 2149.359931 3800.324508 1719.777886 3777.516283 1368.068835 3611.154471 M 422.309975 1118.146352 C 427.363067 1124.919704 434.838874 1106.673124 441.760918 1101.904132 C 462.388609 1087.458922 483.985386 1074.257798 505.789825 1061.678716 C 560.404751 1030.300128 618.273038 1003.897879 676.556648 980.32938 C 857.914198 907.135712 1049.793256 869.122004 1244.579571 857.994355 C 1509.832294 842.788871 1779.999668 827.099577 2045.598493 823.159974 C 2434.132817 817.354244 2700.769949 843.13445 3074.767981 707.667417 L 3078.021342 706.492447 C 3393.597324 633.713475 3571.424632 795.928336 3380.307 1114.344982 C 3306.864114 1236.680007 3195.557648 1335.861228 3086.466236 1425.435349 C 2624.073702 1804.950391 2060.826989 2004.833382 1459.785916 1953.687665 C 1282.581592 1938.620413 1108.007645 1904.200728 935.302649 1862.316533 C 922.77375 1859.344552 772.150074 1831.421755 769.312036 1817.875052 M 4002.044984 3898.399876 C 4013.258695 3860.317052 4051.329936 3766.595981 4073.618918 3733.420381 C 4211.436812 3528.56105 4369.397854 3660.917872 4391.548395 3671.216131 M 4001.145118 3909.458409 C 4000.176032 3909.734873 3998.099419 3895.082316 3997.822537 3893.976463 C 3994.499956 3877.388662 3990.346729 3860.869978 3985.77818 3844.558641 C 3973.803045 3802.12152 3956.982478 3760.444672 3933.447529 3723.053006 C 3863.604105 3612.260325 3693.252605 3577.425945 3581.115493 3645.712388 " stroke="#5e6697" stroke-width="85" stroke-opacity="1" stroke-miterlimit="10"/><path fill="#e06cb9" d="M 292.800781 23.097656 C 292.671875 20.128906 260.363281 17.695312 254.972656 24.71875 C 253.507812 26.625 270.265625 44.613281 276.042969 52.121094 C 279.890625 57.128906 293.0625 29.277344 292.800781 23.097656 Z M 88.917969 23.355469 C 85.476562 26.550781 87.003906 61.53125 94.3125 61.378906 C 101.625 61.226562 133.683594 28.78125 132.785156 22.445312 C 131.886719 16.109375 94.65625 18.035156 88.917969 23.355469 Z M 234.398438 148.058594 C 233.753906 148.804688 233.023438 149.480469 232.28125 150.121094 C 231.035156 151.207031 229.65625 152.277344 228.148438 152.976562 L 227.523438 153.152344 C 227.546875 153.621094 226.652344 152.785156 226.242188 152.550781 C 225.453125 152.105469 224.699219 151.597656 223.980469 151.035156 C 222.765625 150.082031 216.636719 144.5625 218.75 142.8125 C 220.585938 141.285156 224.925781 142.144531 227.070312 142.246094 C 231.566406 142.460938 240.277344 141.25 234.398438 148.058594 " fill-opacity="1" fill-rule="evenodd"/></svg>