<svg xmlns="http://www.w3.org/2000/svg" xmlns:xlink="http://www.w3.org/1999/xlink" width="500" zoomAndPan="magnify" viewBox="0 0 375 374.999991" height="500" preserveAspectRatio="xMidYMid meet" version="1.0"><defs><g/><clipPath id="49f879be29"><path d="M 36.253906 0 L 341 0 L 341 304.351562 L 36.253906 304.351562 Z M 36.253906 0 " clip-rule="nonzero"/></clipPath><clipPath id="9e3e9f4a77"><path d="M 188.683594 0 C 104.5 0 36.253906 68.132812 36.253906 152.175781 C 36.253906 236.21875 104.5 304.351562 188.683594 304.351562 C 272.871094 304.351562 341.117188 236.21875 341.117188 152.175781 C 341.117188 68.132812 272.871094 0 188.683594 0 Z M 188.683594 0 " clip-rule="nonzero"/></clipPath><clipPath id="39498376e8"><path d="M 48 149 L 330.488281 149 L 330.488281 302.210938 L 48 302.210938 Z M 48 149 " clip-rule="nonzero"/></clipPath><clipPath id="a5d8d485fb"><path d="M 37.5 0.0234375 L 339.75 0.0234375 L 339.75 289 L 37.5 289 Z M 37.5 0.0234375 " clip-rule="nonzero"/></clipPath></defs><g clip-path="url(#49f879be29)"><g clip-path="url(#9e3e9f4a77)"><path fill="#fff7f0" d="M 36.253906 0 L 340.605469 0 L 340.605469 304.351562 L 36.253906 304.351562 Z M 36.253906 0 " fill-opacity="1" fill-rule="nonzero"/></g></g><g clip-path="url(#39498376e8)"><path fill="#b48bcc" d="M 73.179688 149.175781 C 73.214844 150.816406 72.378906 153.492188 72.8125 155.769531 C 74.976562 167.078125 84.433594 178.125 80.363281 190.023438 C 78.023438 196.859375 71.851562 200.574219 67.484375 205.914062 C 63.867188 210.34375 59.328125 227.78125 50.519531 218.441406 C 44.613281 212.179688 50.785156 188.394531 53.226562 180.175781 Z M 298.917969 237.640625 C 298.976562 237.640625 298.734375 237.207031 298.707031 237.132812 C 297.652344 234.277344 297.046875 231.191406 296.449219 228.222656 C 294.957031 220.777344 293.925781 212.945312 294.09375 205.335938 C 294.328125 194.742188 299.273438 198.386719 306.3125 194.855469 C 313.03125 191.488281 315.914062 170.355469 323.171875 174.089844 C 326.890625 176 328.351562 181.300781 329.242188 185.011719 C 335.105469 209.375 311.96875 232.03125 293.769531 244.902344 Z M 106.28125 262.734375 C 105.042969 262.75 108.214844 261.074219 108.777344 259.96875 C 109.980469 257.597656 110.828125 255.070312 111.546875 252.515625 C 113.5 245.566406 115.277344 229.855469 125.703125 230.742188 C 127.734375 230.914062 164.601562 267.488281 135.277344 264.507812 Z M 57.230469 255.285156 C 57.800781 255.519531 57.140625 256.523438 57.222656 257.136719 C 57.890625 262.15625 59.589844 267.03125 61.769531 271.578125 C 65.28125 278.90625 73.589844 286.382812 74.625 294.589844 C 76.761719 311.480469 57.007812 295.769531 53.25 290.648438 C 48.28125 283.875 52.417969 270.929688 53.792969 263.542969 L 57.230469 255.285156 " fill-opacity="1" fill-rule="evenodd"/></g><path fill="#5e6697" d="M 264.796875 106.398438 C 263.898438 110.738281 266.589844 115.105469 262.523438 117.402344 C 252.324219 123.160156 235.90625 119.898438 231.523438 108.46875 C 230.992188 107.078125 230.773438 105.609375 230.8125 104.117188 C 230.644531 104.035156 230.484375 103.933594 230.34375 103.800781 C 217.449219 91.886719 203.027344 99.554688 200.429688 101.105469 C 200.25 103.707031 199.503906 106.351562 198.042969 108.941406 C 196.171875 112.261719 193.425781 115.753906 189.8125 117.308594 C 167.953125 126.722656 141.539062 103.511719 163.046875 83.976562 C 166.820312 80.550781 171.261719 78.386719 176.308594 77.613281 C 178.1875 77.320312 180.265625 77.691406 182.230469 77.914062 C 189.753906 78.765625 198.628906 87.007812 200.222656 96.78125 C 205.589844 94.085938 218.984375 89.253906 231.617188 99.738281 C 233.546875 93.914062 238.660156 88.410156 244.101562 86.152344 C 254.976562 81.640625 264.355469 88.070312 268.441406 96.25 C 268.53125 96.433594 267.816406 97.121094 267.734375 97.222656 C 265.738281 99.71875 265.433594 103.3125 264.796875 106.398438 " fill-opacity="1" fill-rule="evenodd"/><g clip-path="url(#a5d8d485fb)"><path stroke-linecap="round" transform="matrix(0.045851, 0, 0, -0.0459204, 37.500002, 302.212423)" fill="none" stroke-linejoin="round" d="M 4964.020825 2990.428754 C 4967.769377 2991.619673 5032.6023 2946.790097 5043.166403 2943.727735 C 5174.621329 2905.703408 5330.441848 3031.77064 5397.234241 3139.718898 M 5104.932327 4524.416879 C 5127.93481 4496.600425 5385.221834 4040.138368 5492.396362 3925.725124 M 4991.879387 4241.913992 C 5031.409578 4073.399021 5176.665994 3843.892008 5285.629605 3746.066558 M 4943.148202 2164.186495 C 4953.541916 2117.145213 4968.280544 2070.869522 4984.382281 2025.529553 C 5034.135799 1885.766757 5097.776 1752.128686 5167.976168 1621.638042 C 5397.915796 1194.438554 5574.523743 814.450479 5638.67511 330.257033 M 5544.450128 2924.162645 C 5480.043177 3083.150268 5361.622991 3204.709023 5252.65938 3333.58342 C 5036.010075 3590.141297 4969.643654 3898.333998 4984.382281 4237.49058 C 4995.116773 4483.755518 5262.797511 4714.453449 5263.138289 4715.98463 L 5263.479066 4713.943056 C 5257.941432 4712.156678 5533.886025 4358.198679 5647.62052 4252.632259 C 5893.576692 4024.40123 6353.967115 3671.974412 6483.803348 3367.439533 C 6670.123455 2930.117237 6431.494 2168.269644 6148.563468 1803.848576 C 5965.225164 1567.706446 5707.512169 1366.611346 5453.292142 1211.36661 M 4635.681689 5849.313737 C 4644.882682 5818.945315 4656.213534 5789.257417 4667.885164 5759.824717 C 4697.788391 5684.79685 4730.247449 5610.874836 4762.706508 5536.952821 C 4829.328512 5385.706169 4898.591542 5235.310172 4944.08534 5076.067353 C 4995.031579 4897.599705 5037.032407 4694.803294 5080.992707 4514.549268 M 4079.362395 6316.834324 C 4101.001768 6330.104559 4124.259833 6340.567629 4148.114259 6349.244321 C 4217.292095 6374.25361 4290.644455 6390.756338 4362.889288 6404.111638 C 4629.803277 6453.619823 4898.506348 6448.941214 5167.550196 6425.037778 C 5234.853755 6418.99812 5303.009258 6413.043527 5370.653595 6413.043527 C 5372.69826 6413.043527 5389.396358 6415.595496 5390.503885 6413.468855 C 5391.95219 6410.66169 5385.903389 6403.260982 5384.710667 6401.389539 C 5334.020012 6322.873982 5293.808265 6236.617454 5254.959628 6151.721977 C 5195.579146 6021.741726 4971.177153 5373.967115 4865.8769 5301.321085 M 2420.62784 6276.087897 C 2462.287891 6298.88548 2636.765979 6363.960671 2680.726279 6381.824449 C 2812.181205 6435.245651 2953.433485 6470.207616 3094.430182 6485.094098 C 3347.71307 6511.719634 3601.336736 6476.077143 3843.544355 6400.79408 C 3976.447586 6359.452194 4104.239154 6287.912017 4239.953799 6260.265694 M 1798.197709 3142.696194 C 1798.879264 3142.951391 1806.461564 3134.189633 1807.143119 3133.594174 C 2490.742814 2468.721375 3944.073722 2602.954906 4141.213514 2624.731702 C 4441.097728 2657.907289 5093.857058 2873.038214 5141.651105 3478.705349 M 1027.529358 3826.453558 C 1018.243171 3822.625606 677.721239 3166.004171 648.073595 3116.751183 C 262.909809 2478.418854 -408.762674 1616.789302 487.226608 1076.197358 M 1565.702249 5451.036557 C 1547.726235 5443.550783 1355.953688 5017.967542 1340.277923 4984.281561 C 1191.869315 4663.49915 1089.295283 4345.268707 1052.150534 3993.267217 C 1030.596356 3789.109756 1035.196852 3571.0866 985.698918 3371.182419 M 1427.687355 5181.12338 C 1434.673294 5178.486346 1399.317627 5250.28172 1389.094302 5288.986572 C 1366.09182 5375.583361 1347.349056 5463.456135 1330.054597 5551.243844 C 1310.374696 5651.366065 1170.229943 6465.86927 1207.204303 6531.880183 C 1213.593881 6543.278974 1510.66668 6535.708135 1539.036408 6535.708135 C 1885.862725 6535.708135 2335.60385 6527.626902 2661.472349 6387.949173 " stroke="#5e6697" stroke-width="85" stroke-opacity="1" stroke-miterlimit="10"/></g><path stroke-linecap="round" transform="matrix(0.045851, 0, 0, -0.0459204, 37.500002, 302.212423)" fill="none" stroke-linejoin="round" d="M 3061.971124 1228.039469 C 3055.837129 1234.164193 3074.324309 1215.960153 3081.054665 1210.60102 C 3092.555906 1201.243803 3104.057147 1191.80152 3115.217611 1182.018975 C 3145.717198 1155.138243 3174.342509 1125.620476 3201.604711 1095.422185 C 3287.225061 1000.659097 3365.689084 887.521837 3414.590658 768.770247 M 2798.038938 1157.945408 C 2797.442578 1154.457718 2835.268882 1127.49192 2838.421074 1124.684755 C 2971.409499 1006.188362 3056.774267 866.93596 3158.837133 725.301721 M 437.643479 1097.633891 C 449.315109 1128.512707 410.466473 1037.152243 401.009897 1005.507837 C 379.711302 933.96766 361.905677 861.066433 348.018993 787.739878 C 310.874244 590.472731 252.942066 324.642703 315.304351 125.16385 M 4857.953823 3517.495267 C 4873.629589 3495.973668 4949.026614 3487.296976 4973.307012 3477.769627 C 5055.349199 3445.35963 5129.29792 3397.807955 5205.120917 3353.658904 M 4799.936451 3642.881974 C 4796.358287 3633.609823 4819.531158 3645.348877 4829.413706 3646.369664 C 4851.564245 3648.836567 4873.629589 3651.558666 4895.780127 3653.770372 C 4957.205275 3659.81003 5002.528684 3640.074809 5063.783442 3632.163708 M 4698.129169 3743.174327 C 4690.37648 3739.686637 4711.249103 3753.892594 4718.405431 3758.486137 C 4741.748691 3773.542749 4765.943894 3787.323378 4790.139098 3800.933876 C 4837.677561 3827.814608 4927.642825 3899.269719 4984.211893 3901.991819 M 3165.908266 3579.848358 C 3166.589821 3583.336048 3142.139034 3570.065813 3115.302805 3557.986497 C 3081.054665 3542.674687 3047.147302 3526.512221 3013.239939 3510.26469 C 2914.755237 3462.968211 2818.400395 3411.503518 2723.408663 3357.486856 C 2431.617915 3191.608919 2126.110873 3002.423005 1901.879268 2747.566441 M 2837.824713 3634.970873 C 2839.273018 3629.271477 2825.8975 3635.055938 2820.189477 3633.86502 C 2775.036456 3624.507803 2730.56499 3610.471977 2686.604691 3596.776414 C 2582.326771 3564.366417 2479.667545 3526.937549 2378.20104 3486.701516 C 2074.483079 3366.248614 1768.550065 3229.037787 1494.479748 3049.379221 M 3068.531091 3790.640937 C 3068.360702 3785.622066 3060.693208 3797.190989 3055.922323 3798.807235 C 3044.335887 3802.550122 3031.641925 3803.826106 3019.629518 3805.442353 C 2978.565827 3810.801486 2937.246553 3814.119045 2895.92728 3816.756079 C 2774.099318 3824.241852 2651.76019 3821.519753 2529.932228 3816.415816 C 2149.368938 3800.338416 1719.733686 3777.455767 1368.05129 3611.152502 M 422.308491 1118.134703 C 427.33496 1124.939952 434.832065 1106.650846 441.73281 1101.887172 C 462.349849 1087.426018 483.989221 1074.240849 505.798982 1061.651139 C 560.408579 1030.346994 618.255562 1003.89159 676.528518 980.328416 C 857.90735 907.171993 1049.765091 869.147666 1244.604635 858.004071 C 1509.814737 842.777327 1779.966112 827.125255 2045.602185 823.127171 C 2434.173746 817.34271 2700.746958 843.117589 3074.750281 707.69314 L 3078.072861 706.502221 C 3393.63284 633.68606 3571.433509 795.906176 3380.342517 1114.30675 C 3306.904963 1236.716162 3195.55591 1335.817596 3086.507105 1425.391682 C 2624.072017 1804.954429 2060.851979 2004.85861 1459.805636 1953.734179 C 1282.601328 1938.5925 1108.038046 1904.225994 935.34904 1862.373715 C 922.740272 1859.311353 772.116611 1831.409833 769.305196 1817.884401 M 4002.091094 3898.419063 C 4013.251557 3860.309671 4051.333445 3766.56737 4073.654372 3733.391782 C 4211.413683 3528.553796 4369.449255 3660.915883 4391.599794 3671.208822 M 4001.153956 3909.477592 C 4000.131623 3909.732789 3998.086958 3895.101505 3997.831375 3893.995652 C 3994.508794 3877.407858 3990.33427 3860.820064 3985.818967 3844.572533 C 3973.80656 3802.124794 3956.938073 3760.442646 3933.424425 3723.013778 C 3863.650228 3612.258355 3693.261471 3577.466521 3581.145668 3645.774205 " stroke="#5e6697" stroke-width="85" stroke-opacity="1" stroke-miterlimit="10"/><path fill="#e06cb9" d="M 274.28125 16.066406 C 274.175781 13.65625 247.925781 11.675781 243.542969 17.382812 C 242.355469 18.933594 255.972656 33.546875 260.664062 39.648438 C 263.789062 43.71875 274.496094 21.085938 274.28125 16.066406 Z M 108.625 16.277344 C 105.832031 18.871094 107.070312 47.296875 113.007812 47.171875 C 118.949219 47.046875 144.996094 20.683594 144.265625 15.535156 C 143.539062 10.386719 113.289062 11.953125 108.625 16.277344 Z M 226.828125 117.597656 C 226.304688 118.203125 225.710938 118.75 225.109375 119.273438 C 224.097656 120.152344 222.972656 121.023438 221.75 121.59375 L 221.242188 121.734375 C 221.261719 122.117188 220.535156 121.4375 220.203125 121.25 C 219.558594 120.882812 218.945312 120.472656 218.363281 120.015625 C 217.375 119.242188 212.398438 114.757812 214.113281 113.335938 C 215.605469 112.09375 219.132812 112.792969 220.875 112.875 C 224.527344 113.050781 231.605469 112.066406 226.828125 117.597656 " fill-opacity="1" fill-rule="evenodd"/><g fill="#5e6697" fill-opacity="1"><g transform="translate(117.03318, 365.41844)"><g><path d="M 50.167969 -9.339844 C 45.175781 -15.894531 39.484375 -21.730469 33.011719 -26.75 C 37.734375 -30.203125 41.632812 -34.972656 43.226562 -40.054688 C 46.40625 -50.214844 37.1875 -59.972656 26.917969 -59.34375 C 16.03125 -58.609375 9.039062 -48.378906 7.269531 -38.507812 C 4.933594 -25.703125 5.183594 -12.148438 4.445312 0.804688 C 3.894531 9.324219 17.183594 9.078125 17.734375 0.5625 C 18.140625 -6.449219 18.542969 -13.457031 19.035156 -20.46875 C 26.65625 -15.644531 33.324219 -9.652344 38.863281 -2.394531 C 43.949219 4.335938 55.433594 -2.523438 50.167969 -9.339844 Z M 30.558594 -44.429688 C 30.941406 -43.019531 27.019531 -39.402344 25.972656 -38.410156 C 24.144531 -36.691406 22.394531 -35.417969 20.09375 -35.109375 C 20.332031 -36.621094 20.660156 -38.132812 21.253906 -39.5625 C 21.84375 -41.257812 29.210938 -50.433594 30.558594 -44.429688 Z M 30.558594 -44.429688 "/></g></g></g><g fill="#5e6697" fill-opacity="1"><g transform="translate(205.188653, 363.80235)"><g><path d="M 50.167969 -9.339844 C 45.175781 -15.894531 39.484375 -21.730469 33.011719 -26.75 C 37.734375 -30.203125 41.632812 -34.972656 43.226562 -40.054688 C 46.40625 -50.214844 37.1875 -59.972656 26.917969 -59.34375 C 16.03125 -58.609375 9.039062 -48.378906 7.269531 -38.507812 C 4.933594 -25.703125 5.183594 -12.148438 4.445312 0.804688 C 3.894531 9.324219 17.183594 9.078125 17.734375 0.5625 C 18.140625 -6.449219 18.542969 -13.457031 19.035156 -20.46875 C 26.65625 -15.644531 33.324219 -9.652344 38.863281 -2.394531 C 43.949219 4.335938 55.433594 -2.523438 50.167969 -9.339844 Z M 30.558594 -44.429688 C 30.941406 -43.019531 27.019531 -39.402344 25.972656 -38.410156 C 24.144531 -36.691406 22.394531 -35.417969 20.09375 -35.109375 C 20.332031 -36.621094 20.660156 -38.132812 21.253906 -39.5625 C 21.84375 -41.257812 29.210938 -50.433594 30.558594 -44.429688 Z M 30.558594 -44.429688 "/></g></g></g></svg>