<svg xmlns="http://www.w3.org/2000/svg" xmlns:xlink="http://www.w3.org/1999/xlink" width="500" zoomAndPan="magnify" viewBox="0 0 375 374.999991" height="500" preserveAspectRatio="xMidYMid meet" version="1.0"><defs><clipPath id="c08a19ec19"><path d="M 3.050781 0 L 375 0 L 375 371.328125 L 3.050781 371.328125 Z M 3.050781 0 " clip-rule="nonzero"/></clipPath><clipPath id="8a47af844c"><path d="M 189.023438 0 C 86.3125 0 3.050781 83.125 3.050781 185.664062 C 3.050781 288.203125 86.3125 371.328125 189.023438 371.328125 C 291.734375 371.328125 375 288.203125 375 185.664062 C 375 83.125 291.734375 0 189.023438 0 Z M 189.023438 0 " clip-rule="nonzero"/></clipPath><clipPath id="4d3842dccd"><path d="M 17 181.300781 L 362 181.300781 L 362 368.207031 L 17 368.207031 Z M 17 181.300781 " clip-rule="nonzero"/></clipPath><clipPath id="9bfd709fe0"><path d="M 4.570312 0.0273438 L 373.570312 0.0273438 L 373.570312 352.5 L 4.570312 352.5 Z M 4.570312 0.0273438 " clip-rule="nonzero"/></clipPath><clipPath id="212967a4db"><path d="M 140.941406 143.296875 L 175.4375 143.296875 L 175.4375 198 L 140.941406 198 Z M 140.941406 143.296875 " clip-rule="nonzero"/></clipPath><clipPath id="50194e31da"><path d="M 197.363281 149.480469 L 258.863281 149.480469 L 258.863281 210.980469 L 197.363281 210.980469 Z M 197.363281 149.480469 " clip-rule="nonzero"/></clipPath><clipPath id="e6b9b4ea06"><path d="M 226 146 L 259 146 L 259 183 L 226 183 Z M 226 146 " clip-rule="nonzero"/></clipPath><clipPath id="a28e811389"><path d="M 232.417969 142.460938 L 264.765625 174.808594 L 255.75 183.824219 L 223.402344 151.476562 Z M 232.417969 142.460938 " clip-rule="nonzero"/></clipPath><clipPath id="6f7000c63d"><path d="M 232.417969 142.460938 L 264.765625 174.808594 L 255.75 183.824219 L 223.402344 151.476562 Z M 232.417969 142.460938 " clip-rule="nonzero"/></clipPath><clipPath id="a7cd17a8bd"><path d="M 203 146 L 233 146 L 233 185 L 203 185 Z M 203 146 " clip-rule="nonzero"/></clipPath><clipPath id="4d3a8eeb4a"><path d="M 236.066406 150.570312 L 207.355469 186.191406 L 197.429688 178.1875 L 226.140625 142.570312 Z M 236.066406 150.570312 " clip-rule="nonzero"/></clipPath><clipPath id="20533acd13"><path d="M 226.003906 142.460938 L 197.292969 178.078125 L 207.21875 186.082031 L 235.929688 150.460938 Z M 226.003906 142.460938 " clip-rule="nonzero"/></clipPath><clipPath id="2dac4f1074"><path d="M 203 167 L 216 167 L 216 174 L 203 174 Z M 203 167 " clip-rule="nonzero"/></clipPath><clipPath id="7252a7ecf9"><path d="M 216.710938 172.597656 L 204.195312 175.027344 L 203.195312 169.871094 L 215.710938 167.445312 Z M 216.710938 172.597656 " clip-rule="nonzero"/></clipPath><clipPath id="f80da63bb1"><path d="M 216.710938 172.597656 L 204.195312 175.027344 L 203.195312 169.871094 L 215.710938 167.445312 Z M 216.710938 172.597656 " clip-rule="nonzero"/></clipPath><clipPath id="ea8162333b"><path d="M 197.363281 171.230469 L 270.113281 171.230469 L 270.113281 204 L 197.363281 204 Z M 197.363281 171.230469 " clip-rule="nonzero"/></clipPath><clipPath id="2c67a553bc"><path d="M 244 164 L 264 164 L 264 174 L 244 174 Z M 244 164 " clip-rule="nonzero"/></clipPath><clipPath id="3419366e95"><path d="M 264.367188 172.644531 L 245.011719 175.03125 L 244.003906 166.84375 L 263.355469 164.457031 Z M 264.367188 172.644531 " clip-rule="nonzero"/></clipPath><clipPath id="846c68ee7f"><path d="M 264.367188 172.644531 L 245.011719 175.03125 L 244.003906 166.84375 L 263.355469 164.457031 Z M 264.367188 172.644531 " clip-rule="nonzero"/></clipPath><clipPath id="d59eba4b1c"><path d="M 247.777344 167.226562 L 263.253906 167.226562 L 263.253906 180.472656 L 247.777344 180.472656 Z M 247.777344 167.226562 " clip-rule="nonzero"/></clipPath><clipPath id="5aa43d184f"><path d="M 259.648438 179.925781 C 255.898438 179.625 255.300781 178.199219 255.375 177.449219 C 255.449219 176.699219 256.199219 175.875 256.875 175.574219 C 257.476562 175.273438 259.125 175.574219 259.125 175.648438 C 259.125 175.726562 257.175781 176.324219 256.800781 175.875 C 256.050781 175.125 257.476562 169.425781 258.601562 168.148438 C 259.199219 167.476562 260.175781 167.25 260.925781 167.25 C 261.523438 167.324219 262.199219 167.625 262.574219 168.148438 C 263.101562 168.976562 263.324219 170.925781 263.023438 172.199219 C 262.648438 173.550781 261.148438 175.425781 260.101562 176.175781 C 259.425781 176.699219 258.75 177.148438 258 177 C 257.101562 176.773438 255.449219 175.425781 255.148438 174.300781 C 254.851562 173.023438 255.75 170.625 256.574219 169.574219 C 257.175781 168.75 258.226562 167.851562 258.976562 167.925781 C 259.949219 168 261.449219 169.726562 261.75 170.625 C 261.976562 171.375 261.75 172.125 261.375 172.875 C 261 173.699219 260.101562 174.75 259.351562 175.351562 C 258.675781 175.800781 258.074219 176.023438 257.25 176.101562 C 255.976562 176.324219 253.199219 176.398438 252.675781 175.648438 C 252.300781 175.125 253.5 172.949219 253.351562 172.875 C 253.273438 172.875 252.824219 174.75 252.148438 175.199219 C 251.398438 175.574219 249.523438 175.5 248.851562 174.976562 C 248.175781 174.523438 247.800781 173.324219 247.875 172.574219 C 247.949219 171.824219 248.625 170.773438 249.300781 170.476562 C 249.976562 170.101562 251.25 170.101562 251.925781 170.476562 C 252.601562 170.773438 253.273438 171.824219 253.351562 172.574219 C 253.425781 173.324219 252.976562 174.523438 252.375 174.976562 C 251.773438 175.5 250.574219 175.800781 249.898438 175.5 C 249.074219 175.199219 247.648438 173.625 247.875 172.875 C 248.175781 171.824219 252.375 170.851562 253.949219 170.550781 C 254.925781 170.398438 255.523438 170.324219 256.351562 170.625 C 257.25 171.074219 258.148438 173.25 259.050781 173.398438 C 259.800781 173.476562 261.074219 171.824219 261.300781 172.050781 C 261.523438 172.199219 261.074219 174.074219 260.550781 174.300781 C 259.800781 174.601562 256.949219 173.324219 256.648438 172.351562 C 256.273438 171.226562 258.148438 168.449219 259.050781 167.699219 C 259.648438 167.324219 260.324219 167.175781 260.925781 167.25 C 261.449219 167.324219 262.199219 167.625 262.574219 168.148438 C 263.101562 168.898438 263.25 170.550781 263.175781 171.976562 C 263.023438 173.925781 261.976562 177.300781 261 178.648438 C 260.398438 179.476562 259.648438 179.925781 258.976562 180.226562 C 258.375 180.449219 257.699219 180.523438 257.175781 180.300781 C 256.574219 180.148438 255.976562 179.699219 255.75 179.175781 C 255.449219 178.726562 255.226562 177.976562 255.375 177.449219 C 255.523438 176.773438 256.199219 175.875 256.875 175.574219 C 257.625 175.125 259.199219 175.050781 259.875 175.425781 C 260.550781 175.726562 261.148438 176.699219 261.148438 177.449219 C 261.148438 178.199219 259.648438 179.925781 259.648438 179.925781 " clip-rule="nonzero"/></clipPath><clipPath id="5a4b165e7b"><path d="M 250.410156 165.285156 L 260.054688 165.285156 L 260.054688 174.867188 L 250.410156 174.867188 Z M 250.410156 165.285156 " clip-rule="nonzero"/></clipPath><clipPath id="0c2fb64c6e"><path d="M 259.949219 169.199219 C 256.800781 173.398438 254.925781 174 254.324219 173.699219 C 253.875 173.550781 253.5 172.949219 253.648438 172.5 C 253.800781 171.75 256.351562 171 257.101562 169.949219 C 257.699219 169.125 257.550781 167.324219 258 166.949219 C 258.300781 166.726562 258.976562 166.726562 259.125 166.949219 C 259.5 167.476562 257.773438 170.625 256.949219 171.675781 C 256.351562 172.425781 255.601562 173.101562 255.074219 173.25 C 254.625 173.398438 254.101562 173.398438 253.875 173.175781 C 253.726562 173.023438 253.648438 172.574219 253.800781 172.199219 C 254.101562 171.148438 256.875 167.773438 257.851562 167.25 C 258.226562 167.023438 258.675781 166.949219 258.824219 167.175781 C 259.125 167.476562 258.300781 169.648438 257.625 170.699219 C 256.800781 171.75 255.523438 173.101562 254.324219 173.398438 C 253.125 173.625 250.875 172.949219 250.5 172.199219 C 250.199219 171.675781 250.726562 170.25 251.324219 169.949219 C 252.300781 169.5 256.351562 171.449219 256.875 172.199219 C 257.023438 172.574219 256.875 173.023438 256.726562 173.175781 C 256.5 173.398438 255.976562 173.324219 255.523438 173.175781 C 254.625 172.800781 252.375 170.851562 252.449219 170.398438 C 252.523438 170.25 252.976562 170.023438 253.199219 170.101562 C 253.425781 170.25 253.199219 171.148438 253.5 171.601562 C 253.875 172.125 255.148438 172.574219 255.675781 173.101562 C 255.976562 173.398438 256.273438 173.773438 256.199219 174.074219 C 256.199219 174.375 255.898438 174.824219 255.601562 174.824219 C 255 174.898438 252.898438 173.25 253.050781 172.726562 C 253.125 172.050781 255.824219 172.199219 256.726562 171.375 C 257.550781 170.550781 257.625 168 258.226562 167.699219 C 258.449219 167.550781 258.898438 167.625 258.976562 167.773438 C 259.199219 168.300781 257.101562 171.523438 255.824219 172.5 C 254.851562 173.25 253.199219 173.773438 252.601562 173.625 C 252.226562 173.476562 251.773438 172.949219 251.851562 172.574219 C 252.074219 171.976562 254.476562 171.675781 255.601562 170.773438 C 256.726562 169.726562 257.851562 166.648438 258.523438 166.648438 C 258.898438 166.574219 259.273438 167.101562 259.273438 167.476562 C 259.351562 168.375 256.949219 171.375 255.601562 172.199219 C 254.699219 172.800781 253.199219 173.101562 252.675781 172.875 C 252.375 172.648438 252.148438 172.125 252.226562 171.675781 C 252.523438 170.773438 255.898438 169.726562 256.726562 168.601562 C 257.324219 167.851562 257.175781 166.199219 257.476562 166.199219 C 257.699219 166.199219 258.226562 166.875 258.226562 167.398438 C 258.300781 168.226562 257.476562 169.648438 256.726562 170.476562 C 255.898438 171.375 254.175781 172.648438 253.425781 172.574219 C 252.976562 172.5 252.375 172.125 252.375 171.675781 C 252.375 170.773438 256.648438 167.476562 257.773438 167.175781 C 258.148438 167.101562 258.523438 167.101562 258.675781 167.324219 C 258.824219 167.476562 258.824219 168.226562 258.601562 168.375 C 258.449219 168.523438 257.550781 168.300781 257.398438 168.074219 C 257.324219 167.851562 257.699219 167.175781 257.925781 167.101562 C 258.148438 167.101562 258.824219 167.699219 258.824219 168.148438 C 258.824219 168.75 257.476562 169.875 256.648438 170.625 C 255.824219 171.375 254.699219 172.574219 253.875 172.574219 C 253.351562 172.648438 252.375 172.050781 252.375 171.675781 C 252.375 171.074219 255 170.324219 255.824219 169.273438 C 256.726562 168.226562 256.800781 165.601562 257.476562 165.375 C 257.925781 165.148438 258.824219 165.601562 258.976562 166.050781 C 259.273438 166.726562 258.523438 168.675781 257.773438 169.726562 C 256.875 170.925781 254.550781 172.273438 253.574219 172.648438 C 253.125 172.800781 252.75 172.949219 252.523438 172.800781 C 252.300781 172.648438 252.074219 172.125 252.148438 171.824219 C 252.375 171.449219 253.949219 171.601562 254.773438 171 C 256.050781 170.175781 258.601562 166.648438 258.523438 166.648438 C 258.523438 166.574219 257.773438 167.25 257.773438 167.25 C 257.851562 167.324219 258.449219 166.574219 258.75 166.648438 C 258.976562 166.726562 259.273438 167.101562 259.273438 167.476562 C 259.351562 168.300781 258.148438 170.398438 257.101562 171.375 C 256.125 172.351562 254.324219 173.25 253.425781 173.476562 C 252.976562 173.625 252.523438 173.699219 252.226562 173.476562 C 252 173.324219 251.773438 172.875 251.851562 172.574219 C 252.148438 171.976562 254.699219 171.601562 255.675781 170.699219 C 256.648438 169.800781 256.949219 167.851562 257.699219 167.175781 C 258.074219 166.726562 258.675781 166.351562 258.976562 166.425781 C 259.425781 166.648438 259.800781 167.925781 259.726562 168.75 C 259.648438 169.875 258.449219 171.75 257.550781 172.648438 C 256.875 173.25 256.050781 173.699219 255.300781 173.773438 C 254.625 173.925781 253.726562 173.925781 253.425781 173.625 C 253.125 173.398438 252.898438 172.875 253.050781 172.726562 C 253.199219 172.425781 254.773438 172.5 255.300781 172.800781 C 255.824219 173.023438 256.199219 173.699219 256.199219 174.074219 C 256.199219 174.375 256.050781 174.75 255.75 174.824219 C 255.148438 174.898438 252.675781 173.175781 252.074219 172.199219 C 251.625 171.449219 251.398438 170.175781 251.773438 169.726562 C 252 169.351562 252.824219 169.273438 253.425781 169.425781 C 254.398438 169.648438 256.648438 171.449219 256.875 172.199219 C 256.949219 172.648438 256.726562 173.175781 256.425781 173.398438 C 255.601562 173.699219 251.324219 171.523438 251.324219 171.300781 C 251.398438 171.148438 253.5 172.050781 254.550781 171.675781 C 255.976562 171.148438 258.226562 166.875 258.675781 167.101562 C 258.976562 167.175781 258.898438 168.675781 258.523438 169.5 C 258 170.699219 255.976562 172.574219 255.148438 173.101562 C 254.699219 173.324219 254.25 173.398438 254.023438 173.25 C 253.800781 173.101562 253.648438 172.5 253.800781 172.199219 C 253.949219 171.675781 255.074219 171.449219 255.675781 170.851562 C 256.574219 169.949219 257.25 167.324219 258 166.949219 C 258.449219 166.800781 259.050781 166.875 259.273438 167.101562 C 259.574219 167.625 259.125 169.648438 258.449219 170.625 C 257.625 171.898438 255.074219 173.925781 254.324219 173.699219 C 253.875 173.625 253.5 172.800781 253.648438 172.5 C 253.875 171.976562 255.898438 172.273438 256.726562 171.601562 C 257.699219 170.925781 258.300781 168.375 258.976562 168 C 259.351562 167.851562 259.800781 167.851562 259.949219 168.074219 C 260.175781 168.226562 259.949219 169.199219 259.949219 169.199219 " clip-rule="nonzero"/></clipPath><clipPath id="483a3ad111"><path d="M 250.691406 164.363281 L 258.558594 164.363281 L 258.558594 172.503906 L 250.691406 172.503906 Z M 250.691406 164.363281 " clip-rule="nonzero"/></clipPath><clipPath id="fddb8997a9"><path d="M 257.773438 167.773438 C 256.574219 166.199219 257.324219 166.050781 257.550781 166.199219 C 257.925781 166.5 258 169.199219 257.773438 169.351562 C 257.699219 169.351562 257.175781 168.675781 257.175781 168.675781 C 257.175781 168.675781 257.851562 169.273438 257.851562 169.273438 C 257.851562 169.273438 257.398438 168.75 257.175781 168.75 C 256.949219 168.824219 256.574219 169.574219 256.425781 169.5 C 256.125 169.351562 256.273438 165 256.875 164.625 C 257.175781 164.398438 257.925781 164.699219 258.148438 165.074219 C 258.675781 165.898438 257.851562 169.5 257.101562 170.773438 C 256.648438 171.523438 255.75 172.050781 255.074219 172.351562 C 254.550781 172.5 254.101562 172.5 253.574219 172.351562 C 252.824219 172.273438 251.851562 172.050781 251.324219 171.675781 C 250.949219 171.300781 250.648438 170.550781 250.726562 170.175781 C 250.800781 169.800781 251.023438 169.425781 251.476562 169.273438 C 252.226562 168.976562 254.550781 170.476562 255.449219 170.101562 C 256.273438 169.726562 256.875 168.226562 257.023438 167.324219 C 257.101562 166.648438 256.351562 165.75 256.5 165.300781 C 256.648438 165 257.25 164.699219 257.476562 164.773438 C 257.699219 164.851562 257.925781 165.824219 257.773438 165.976562 C 257.625 166.125 256.5 165.75 256.5 165.601562 C 256.5 165.449219 257.476562 164.851562 257.773438 165 C 258.226562 165.226562 258.601562 166.726562 258.449219 167.625 C 258.300781 168.824219 257.324219 170.773438 256.199219 171.300781 C 255 171.824219 251.476562 170.773438 251.476562 170.699219 C 251.476562 170.699219 253.949219 171.148438 254.699219 170.851562 C 255.226562 170.699219 255.523438 170.476562 255.898438 169.949219 C 256.574219 168.898438 256.726562 164.550781 257.324219 164.398438 C 257.550781 164.324219 258 164.699219 258.148438 165.074219 C 258.523438 165.898438 258.375 168.675781 257.925781 169.5 C 257.699219 169.949219 257.324219 170.25 257.101562 170.25 C 256.800781 170.175781 256.351562 169.351562 256.273438 169.351562 C 256.273438 169.425781 256.648438 170.023438 256.726562 170.023438 C 256.800781 169.949219 256.125 168.375 256.050781 167.625 C 256.050781 166.875 256.125 165.75 256.5 165.375 C 256.726562 165.148438 257.175781 165.074219 257.476562 165.226562 C 257.925781 165.449219 258.523438 166.425781 258.523438 166.875 C 258.449219 167.25 257.773438 167.773438 257.773438 167.773438 " clip-rule="nonzero"/></clipPath><clipPath id="6037a66096"><path d="M 250.039062 164.613281 L 259.121094 164.613281 L 259.121094 174.105469 L 250.039062 174.105469 Z M 250.039062 164.613281 " clip-rule="nonzero"/></clipPath><clipPath id="9fed274e7e"><path d="M 257.699219 165.074219 C 258.675781 167.925781 258.148438 169.800781 257.324219 170.773438 C 256.425781 171.824219 254.625 172.5 253.425781 172.726562 C 252.523438 172.949219 251.476562 173.023438 250.875 172.648438 C 250.425781 172.425781 249.976562 171.75 250.125 171.226562 C 250.425781 170.175781 255.375 169.273438 256.648438 167.925781 C 257.625 166.949219 257.773438 164.625 258.148438 164.625 C 258.449219 164.625 258.976562 165.601562 258.898438 166.199219 C 258.824219 167.324219 257.25 169.351562 256.199219 170.476562 C 255.226562 171.523438 253.726562 172.800781 252.824219 172.949219 C 252.226562 173.023438 251.324219 172.726562 251.25 172.351562 C 251.175781 171.75 254.101562 170.476562 255.148438 169.199219 C 256.199219 167.925781 256.875 164.851562 257.625 164.699219 C 258 164.625 258.523438 165 258.675781 165.375 C 258.824219 166.199219 257.625 168.375 256.574219 169.726562 C 255.300781 171.300781 252.300781 173.699219 251.175781 173.925781 C 250.726562 174 250.273438 173.851562 250.125 173.625 C 249.976562 173.476562 250.050781 172.875 250.273438 172.726562 C 250.5 172.574219 251.398438 172.800781 251.476562 173.023438 C 251.550781 173.25 251.023438 174 250.800781 174.074219 C 250.574219 174.074219 249.976562 173.625 250.050781 173.25 C 250.125 172.425781 253.800781 170.699219 255.074219 169.199219 C 256.199219 167.851562 256.648438 165.148438 257.476562 164.773438 C 257.851562 164.625 258.375 164.773438 258.523438 165.074219 C 258.75 165.375 258.675781 166.050781 258.449219 166.648438 C 258.148438 167.625 257.324219 169.050781 256.351562 170.101562 C 255.226562 171.300781 252.824219 173.25 252 173.175781 C 251.625 173.175781 251.25 172.800781 251.25 172.5 C 251.25 171.75 255 169.875 256.125 168.375 C 257.023438 167.25 257.175781 165 257.851562 164.773438 C 258.226562 164.625 258.898438 165 259.050781 165.375 C 259.273438 166.050781 258.675781 167.925781 257.773438 168.898438 C 256.648438 170.25 253.050781 171.675781 252 172.050781 C 251.699219 172.125 251.398438 172.273438 251.25 172.125 C 251.101562 171.976562 251.023438 171.449219 251.175781 171.226562 C 251.476562 170.925781 252.824219 171.449219 253.648438 171.226562 C 254.550781 171 255.675781 170.476562 256.351562 169.574219 C 257.175781 168.523438 257.699219 165.074219 257.699219 165.074219 " clip-rule="nonzero"/></clipPath><clipPath id="57a9f31903"><path d="M 223.621094 147.496094 L 227.914062 147.496094 L 227.914062 154.238281 L 223.621094 154.238281 Z M 223.621094 147.496094 " clip-rule="nonzero"/></clipPath><clipPath id="b1bf542193"><path d="M 225.449219 153.824219 C 223.949219 154.125 223.648438 153.75 223.648438 153.375 C 223.648438 152.476562 225.898438 148.648438 226.574219 148.574219 C 226.875 148.5 227.25 148.875 227.398438 149.25 C 227.625 150 227.625 152.398438 227.101562 152.851562 C 226.800781 153.148438 226.050781 153.074219 225.75 152.851562 C 225.449219 152.550781 225.449219 151.125 225.675781 150.976562 C 225.824219 150.898438 226.351562 151.351562 226.425781 151.273438 C 226.5 151.199219 225.601562 150.300781 225.601562 149.773438 C 225.675781 149.101562 226.726562 147.601562 227.101562 147.523438 C 227.398438 147.523438 227.851562 147.976562 227.851562 148.199219 C 227.925781 148.425781 227.398438 148.949219 227.476562 148.949219 C 227.476562 148.949219 227.773438 148.273438 227.851562 148.273438 C 228 148.351562 227.625 152.324219 226.949219 152.925781 C 226.648438 153.300781 225.75 153.226562 225.601562 153.074219 C 225.523438 152.925781 226.199219 151.949219 226.425781 151.949219 C 226.574219 152.023438 226.875 153.148438 226.726562 153.300781 C 226.648438 153.375 225.75 153.148438 225.523438 152.699219 C 225.148438 151.875 226.125 147.898438 226.800781 147.601562 C 227.101562 147.449219 227.699219 147.898438 227.851562 148.199219 C 228.074219 148.726562 227.398438 150.449219 227.101562 150.449219 C 226.949219 150.523438 226.648438 149.851562 226.574219 149.925781 C 226.425781 150 227.398438 152.550781 227.101562 152.851562 C 226.875 153.074219 225.976562 153 225.75 152.699219 C 225.300781 152.175781 225.449219 149.625 225.898438 149.324219 C 226.199219 149.101562 227.101562 149.398438 227.324219 149.699219 C 227.476562 150.148438 226.800781 151.199219 226.5 151.875 C 226.125 152.625 225.523438 153.523438 225.074219 153.898438 C 224.773438 154.125 224.476562 154.273438 224.25 154.199219 C 223.949219 154.125 223.574219 153.675781 223.648438 153.375 C 223.726562 153.074219 224.925781 152.324219 225.226562 152.476562 C 225.449219 152.550781 225.449219 153.824219 225.449219 153.824219 " clip-rule="nonzero"/></clipPath><clipPath id="6e7b0ea600"><path d="M 227.726562 144.703125 L 232.601562 144.703125 L 232.601562 148.246094 L 227.726562 148.246094 Z M 227.726562 144.703125 " clip-rule="nonzero"/></clipPath><clipPath id="6546142c9c"><path d="M 228.300781 146.773438 C 229.425781 144.675781 230.476562 146.773438 230.398438 146.851562 C 230.398438 146.851562 229.726562 146.25 229.800781 146.175781 C 229.800781 146.175781 230.398438 146.699219 230.550781 146.550781 C 230.773438 146.476562 230.25 145.125 230.550781 144.976562 C 230.699219 144.824219 231.675781 145.125 231.824219 145.425781 C 231.976562 145.800781 231.523438 146.625 231.148438 147 C 230.699219 147.449219 229.648438 148.050781 229.050781 147.898438 C 228.523438 147.824219 227.925781 146.925781 227.773438 146.476562 C 227.699219 146.101562 227.773438 145.648438 228 145.5 C 228.226562 145.351562 228.824219 145.425781 228.976562 145.574219 C 229.199219 145.800781 228.976562 146.699219 229.273438 146.851562 C 229.648438 147 231.148438 144.976562 231.675781 145.125 C 232.050781 145.199219 232.425781 146.324219 232.273438 146.476562 C 232.199219 146.550781 231.226562 146.324219 231.074219 146.101562 C 231 145.875 231.375 145.199219 231.601562 145.125 C 231.824219 145.125 232.5 145.425781 232.574219 145.726562 C 232.574219 146.175781 231.375 147.300781 230.699219 147.75 C 230.101562 148.050781 229.273438 148.425781 228.824219 148.125 C 228.300781 147.898438 227.625 145.949219 227.851562 145.574219 C 228 145.351562 228.601562 145.351562 228.898438 145.5 C 229.199219 145.648438 229.648438 147.074219 229.648438 147.074219 C 229.648438 147.074219 229.351562 146.398438 229.199219 146.398438 C 228.976562 146.398438 228.601562 147 228.601562 147 C 228.523438 147 230.023438 144.898438 230.625 144.824219 C 231.074219 144.75 231.675781 145.125 231.824219 145.5 C 231.976562 145.949219 231.449219 147.300781 231 147.601562 C 230.550781 147.898438 229.800781 147.898438 229.425781 147.601562 C 228.898438 147.300781 228.375 145.800781 228.449219 145.351562 C 228.523438 145.050781 228.824219 144.75 229.050781 144.75 C 229.351562 144.675781 229.800781 144.976562 229.949219 145.273438 C 230.101562 145.574219 230.023438 146.398438 229.800781 146.773438 C 229.648438 147.074219 229.199219 147.375 228.976562 147.375 C 228.75 147.300781 228.300781 146.773438 228.300781 146.773438 " clip-rule="nonzero"/></clipPath><clipPath id="799133ca03"><path d="M 228.871094 148.535156 L 231.308594 148.535156 L 231.308594 152.4375 L 228.871094 152.4375 Z M 228.871094 148.535156 " clip-rule="nonzero"/></clipPath><clipPath id="b761d224dc"><path d="M 229.574219 151.726562 C 230.175781 150.601562 231.226562 151.273438 231.148438 151.351562 C 231.148438 151.5 230.023438 151.726562 229.800781 151.574219 C 229.574219 151.351562 229.425781 150.675781 229.574219 150.375 C 229.726562 150.148438 230.851562 150 230.925781 150.148438 C 231 150.300781 230.476562 151.125 230.175781 151.125 C 229.949219 151.199219 229.425781 150.675781 229.425781 150.375 C 229.351562 150.074219 229.800781 149.25 230.175781 149.175781 C 230.476562 149.101562 231.226562 149.550781 231.300781 149.851562 C 231.300781 150.074219 231 150.523438 230.699219 150.675781 C 230.398438 150.75 229.875 150.601562 229.648438 150.300781 C 229.351562 150 229.050781 148.875 229.273438 148.726562 C 229.425781 148.574219 230.398438 148.875 230.550781 149.175781 C 230.773438 149.625 230.324219 151.050781 229.949219 151.273438 C 229.726562 151.5 229.199219 151.425781 229.050781 151.273438 C 228.824219 151.050781 228.824219 150.300781 228.976562 150.148438 C 229.125 150 230.25 150.449219 230.25 150.601562 C 230.25 150.824219 229.273438 151.425781 229.125 151.273438 C 228.824219 151.125 228.976562 148.726562 229.425781 148.574219 C 229.800781 148.425781 231.300781 149.625 231.300781 150 C 231.226562 150.300781 230.101562 150.601562 230.175781 150.675781 C 230.175781 150.675781 230.851562 150.523438 230.925781 150.375 C 230.925781 150.300781 229.574219 150.074219 229.574219 149.851562 C 229.574219 149.699219 230.101562 149.175781 230.324219 149.25 C 230.699219 149.324219 231.300781 150.75 231.226562 151.199219 C 231.148438 151.574219 230.625 151.949219 230.398438 151.949219 C 230.101562 151.949219 229.648438 151.199219 229.726562 151.050781 C 229.800781 150.976562 231 151.199219 231.074219 151.425781 C 231.226562 151.648438 230.851562 152.324219 230.625 152.398438 C 230.398438 152.476562 229.574219 151.726562 229.574219 151.726562 " clip-rule="nonzero"/></clipPath><clipPath id="7efef69767"><path d="M 228.554688 147.539062 L 231.328125 147.539062 L 231.328125 152.515625 L 228.554688 152.515625 Z M 228.554688 147.539062 " clip-rule="nonzero"/></clipPath><clipPath id="758afd13da"><path d="M 229.050781 151.800781 C 229.5 148.199219 229.949219 148.050781 230.175781 148.125 C 230.398438 148.199219 230.625 148.5 230.699219 148.875 C 230.851562 149.476562 230.851562 151.800781 230.398438 152.101562 C 230.101562 152.324219 229.425781 152.101562 229.125 151.726562 C 228.601562 151.125 228.375 148.351562 228.75 147.824219 C 228.898438 147.601562 229.273438 147.523438 229.574219 147.601562 C 230.101562 147.824219 231.300781 149.625 231.148438 150.375 C 231 150.976562 229.574219 151.949219 229.199219 151.800781 C 228.976562 151.726562 228.898438 150.898438 228.976562 150.449219 C 229.125 149.925781 229.648438 149.25 230.023438 149.023438 C 230.25 148.875 230.625 148.800781 230.851562 148.875 C 231.074219 149.023438 231.300781 149.550781 231.226562 149.773438 C 231.148438 150.074219 230.476562 150.375 230.25 150.300781 C 230.023438 150.148438 229.800781 149.25 229.949219 149.023438 C 230.175781 148.875 231.148438 149.023438 231.226562 149.25 C 231.300781 149.476562 230.476562 150.375 230.324219 150.300781 C 230.175781 150.226562 229.949219 149.023438 230.175781 148.949219 C 230.324219 148.800781 231.148438 149.25 231.300781 149.625 C 231.375 150.074219 230.625 151.425781 230.25 151.726562 C 229.949219 151.875 229.351562 151.949219 229.199219 151.800781 C 229.050781 151.648438 229.800781 150.976562 229.726562 150.449219 C 229.726562 149.699219 228.523438 148.199219 228.75 147.824219 C 228.898438 147.601562 229.351562 147.523438 229.574219 147.601562 C 229.949219 147.75 230.324219 148.5 230.476562 149.023438 C 230.699219 149.773438 230.925781 151.425781 230.550781 151.648438 C 230.324219 151.875 229.425781 151.5 229.199219 151.125 C 228.824219 150.601562 228.976562 148.949219 229.273438 148.5 C 229.425781 148.199219 229.800781 148.050781 230.023438 148.125 C 230.25 148.125 230.550781 148.5 230.699219 148.875 C 230.925781 149.550781 230.851562 151.648438 230.476562 152.175781 C 230.25 152.476562 229.800781 152.550781 229.5 152.476562 C 229.273438 152.398438 229.050781 151.800781 229.050781 151.800781 " clip-rule="nonzero"/></clipPath><clipPath id="c60aca8fc8"><path d="M 225.4375 151.503906 L 226.984375 151.503906 L 226.984375 152.9375 L 225.4375 152.9375 Z M 225.4375 151.503906 " clip-rule="nonzero"/></clipPath><clipPath id="0add5b14cc"><path d="M 226.648438 152.851562 C 225.300781 152.625 225.75 151.726562 225.976562 151.648438 C 226.199219 151.648438 226.875 152.398438 226.800781 152.550781 C 226.800781 152.773438 225.675781 153.074219 225.523438 152.851562 C 225.300781 152.699219 225.601562 151.726562 225.898438 151.574219 C 226.125 151.425781 226.800781 151.648438 226.949219 151.875 C 227.101562 152.101562 226.648438 152.851562 226.648438 152.851562 " clip-rule="nonzero"/></clipPath><clipPath id="565d06a8df"><path d="M 224.765625 148.378906 L 228.308594 148.378906 L 228.308594 155.429688 L 224.765625 155.429688 Z M 224.765625 148.378906 " clip-rule="nonzero"/></clipPath><clipPath id="ce0fa9c3e9"><path d="M 226.574219 153.898438 C 225.300781 154.875 224.851562 154.5 224.773438 154.125 C 224.625 153.226562 226.648438 149.476562 227.324219 149.25 C 227.625 149.175781 228 149.476562 228.148438 149.851562 C 228.449219 150.523438 228.226562 152.476562 227.925781 153.449219 C 227.625 154.199219 227.023438 155.175781 226.5 155.324219 C 226.199219 155.476562 225.675781 155.25 225.449219 154.949219 C 225 154.125 225.976562 149.773438 226.574219 148.875 C 226.800781 148.574219 227.101562 148.351562 227.324219 148.425781 C 227.550781 148.425781 228.074219 148.949219 228 149.25 C 228 149.476562 227.398438 149.925781 227.175781 149.925781 C 226.949219 149.851562 226.5 148.875 226.648438 148.800781 C 226.800781 148.648438 227.773438 148.726562 228 149.175781 C 228.523438 149.851562 227.851562 152.773438 227.398438 153.824219 C 227.101562 154.574219 226.574219 155.398438 226.199219 155.398438 C 225.898438 155.398438 225.523438 155.101562 225.449219 154.726562 C 225.148438 153.824219 226.726562 149.398438 227.324219 149.25 C 227.625 149.25 228.074219 149.773438 228.148438 150.300781 C 228.300781 151.125 227.476562 153.300781 226.875 154.050781 C 226.5 154.574219 225.976562 154.949219 225.601562 154.875 C 225.300781 154.875 224.773438 154.425781 224.773438 154.125 C 224.699219 153.75 225.523438 152.773438 225.824219 152.773438 C 226.125 152.773438 226.574219 153.898438 226.574219 153.898438 " clip-rule="nonzero"/></clipPath><clipPath id="56c3b5870a"><path d="M 231.210938 147.476562 L 235.65625 147.476562 L 235.65625 155.277344 L 231.210938 155.277344 Z M 231.210938 147.476562 " clip-rule="nonzero"/></clipPath><clipPath id="514016935f"><path d="M 234.300781 149.773438 C 233.625 148.425781 234.675781 148.199219 234.824219 148.351562 C 234.976562 148.5 234.601562 149.773438 234.300781 149.851562 C 234 149.925781 233.023438 148.648438 233.101562 148.425781 C 233.175781 148.273438 234.226562 148.199219 234.449219 148.5 C 234.75 148.875 234.226562 150.898438 233.699219 151.351562 C 233.476562 151.648438 232.875 151.800781 232.648438 151.648438 C 232.199219 151.351562 231.824219 148.425781 232.199219 148.125 C 232.425781 147.976562 233.25 148.273438 233.476562 148.648438 C 233.851562 149.175781 233.773438 151.273438 233.324219 151.800781 C 233.101562 152.175781 232.425781 152.398438 232.125 152.25 C 231.675781 151.949219 231.601562 149.851562 231.75 149.101562 C 231.824219 148.648438 231.976562 148.199219 232.199219 148.050781 C 232.425781 147.976562 232.949219 148.125 233.175781 148.425781 C 233.476562 148.949219 232.726562 150.824219 233.101562 151.800781 C 233.476562 152.851562 235.5 153.675781 235.574219 154.351562 C 235.648438 154.726562 235.351562 155.175781 235.050781 155.25 C 234.824219 155.324219 234.300781 155.175781 234.226562 154.949219 C 234.148438 154.726562 234.523438 153.898438 234.75 153.824219 C 234.976562 153.75 235.648438 154.273438 235.648438 154.5 C 235.648438 154.726562 234.898438 155.25 234.449219 155.175781 C 233.773438 155.101562 232.726562 154.050781 232.199219 153.148438 C 231.523438 152.101562 231 149.925781 231.300781 149.023438 C 231.449219 148.5 232.050781 148.050781 232.425781 148.050781 C 232.648438 147.976562 233.023438 148.273438 233.175781 148.574219 C 233.625 149.25 234 151.800781 233.550781 152.398438 C 233.324219 152.773438 232.5 153 232.199219 152.773438 C 231.675781 152.324219 231.675781 148.648438 232.199219 148.125 C 232.425781 147.898438 233.023438 147.898438 233.324219 148.125 C 233.699219 148.425781 233.773438 149.625 233.851562 150.300781 C 233.851562 150.75 233.851562 151.273438 233.625 151.5 C 233.398438 151.726562 232.875 151.875 232.648438 151.648438 C 232.273438 151.273438 232.648438 148.800781 232.949219 148.125 C 233.175781 147.75 233.476562 147.449219 233.773438 147.523438 C 234.074219 147.523438 234.898438 148.875 234.824219 148.875 C 234.824219 148.949219 234.226562 148.351562 234.226562 148.351562 C 234.226562 148.351562 234.898438 149.023438 234.898438 149.023438 C 234.898438 149.023438 234.449219 148.351562 234.300781 148.351562 C 234.074219 148.351562 233.773438 149.324219 233.699219 149.324219 C 233.699219 149.324219 233.773438 148.273438 234 148.125 C 234.300781 147.976562 235.125 148.425781 235.273438 148.726562 C 235.5 148.949219 235.5 149.476562 235.273438 149.699219 C 235.125 149.851562 234.300781 149.773438 234.300781 149.773438 " clip-rule="nonzero"/></clipPath><clipPath id="39fcd06128"><path d="M 233.433594 149.074219 L 235.132812 149.074219 L 235.132812 150.6875 L 233.433594 150.6875 Z M 233.433594 149.074219 " clip-rule="nonzero"/></clipPath><clipPath id="7c4fd777d3"><path d="M 234.675781 150.601562 C 233.398438 150.148438 233.925781 149.324219 234.148438 149.324219 C 234.375 149.324219 234.824219 150.375 234.75 150.601562 C 234.601562 150.75 233.625 150.675781 233.476562 150.449219 C 233.324219 150.226562 233.625 149.476562 233.851562 149.25 C 234.074219 149.101562 234.601562 149.023438 234.75 149.175781 C 234.976562 149.324219 235.125 150.226562 235.125 150.226562 " clip-rule="nonzero"/></clipPath><clipPath id="e20839f580"><path d="M 231.113281 147.1875 L 235.085938 147.1875 L 235.085938 150.824219 L 231.113281 150.824219 Z M 231.113281 147.1875 " clip-rule="nonzero"/></clipPath><clipPath id="9bdb92f126"><path d="M 234.300781 150.824219 C 232.648438 149.324219 234 148.574219 234.074219 148.574219 C 234.074219 148.648438 233.550781 148.949219 233.550781 149.175781 C 233.550781 149.398438 234.300781 149.773438 234.300781 149.851562 C 234.226562 149.925781 232.273438 149.476562 232.273438 149.101562 C 232.199219 148.726562 233.925781 147.523438 234.300781 147.601562 C 234.523438 147.675781 234.675781 148.125 234.601562 148.425781 C 234.449219 148.875 233.25 150 232.800781 149.925781 C 232.425781 149.925781 231.824219 149.25 231.824219 148.949219 C 231.824219 148.574219 232.425781 147.976562 232.726562 147.898438 C 233.023438 147.75 233.625 147.898438 233.699219 148.050781 C 233.773438 148.351562 233.023438 149.476562 232.648438 149.476562 C 232.425781 149.476562 231.824219 148.875 231.824219 148.574219 C 231.898438 148.199219 233.25 147.523438 233.398438 147.675781 C 233.625 147.824219 233.398438 149.101562 233.175781 149.25 C 232.875 149.476562 232.050781 149.25 231.976562 149.101562 C 231.898438 148.875 232.648438 148.050781 232.574219 147.976562 C 232.574219 147.976562 231.898438 148.5 231.898438 148.726562 C 231.898438 148.875 232.425781 149.175781 232.425781 149.25 C 232.351562 149.398438 231.226562 149.25 231.226562 149.023438 C 231.074219 148.726562 232.5 147.226562 232.875 147.226562 C 233.175781 147.300781 233.550781 148.273438 233.398438 148.574219 C 233.25 148.875 231.375 149.175781 231.300781 148.949219 C 231.148438 148.726562 232.199219 147.226562 232.5 147.226562 C 232.726562 147.300781 233.101562 148.726562 232.875 148.949219 C 232.726562 149.101562 231.601562 148.800781 231.601562 148.648438 C 231.523438 148.425781 232.199219 147.675781 232.425781 147.75 C 232.648438 147.75 232.949219 148.875 232.800781 149.023438 C 232.648438 149.175781 231.675781 148.875 231.601562 148.726562 C 231.523438 148.5 232.199219 147.675781 232.425781 147.75 C 232.648438 147.75 233.023438 148.800781 232.800781 149.023438 C 232.648438 149.175781 231.226562 149.023438 231.148438 148.800781 C 231.074219 148.5 232.5 147.148438 232.875 147.226562 C 233.175781 147.300781 233.550781 148.199219 233.398438 148.574219 C 233.324219 148.949219 232.5 149.398438 232.050781 149.476562 C 231.75 149.476562 231.226562 149.25 231.226562 149.023438 C 231.148438 148.648438 232.273438 147.300781 232.648438 147.375 C 232.949219 147.375 233.476562 148.351562 233.398438 148.726562 C 233.398438 149.023438 232.949219 149.476562 232.726562 149.476562 C 232.5 149.476562 231.898438 148.800781 231.898438 148.5 C 231.976562 148.199219 233.25 147.601562 233.398438 147.675781 C 233.625 147.824219 233.175781 149.324219 232.875 149.398438 C 232.574219 149.476562 231.824219 148.800781 231.824219 148.574219 C 231.898438 148.273438 233.550781 147.898438 233.699219 148.050781 C 233.851562 148.273438 233.175781 149.925781 232.800781 149.925781 C 232.5 150 231.75 149.25 231.824219 148.949219 C 231.898438 148.425781 233.925781 147.449219 234.300781 147.601562 C 234.523438 147.75 234.675781 148.199219 234.601562 148.425781 C 234.523438 148.726562 233.925781 149.175781 233.773438 149.101562 C 233.625 149.023438 233.476562 148.425781 233.550781 148.351562 C 233.625 148.199219 234.148438 148.199219 234.300781 148.351562 C 234.449219 148.574219 234.074219 150.074219 234 150.074219 C 234 150.074219 233.925781 149.324219 234 149.324219 C 234.226562 149.175781 235.050781 149.773438 235.050781 150 C 235.125 150.300781 234.300781 150.824219 234.300781 150.824219 " clip-rule="nonzero"/></clipPath><clipPath id="b0f08bfd10"><path d="M 203.410156 165.621094 L 212.773438 165.621094 L 212.773438 174.921875 L 203.410156 174.921875 Z M 203.410156 165.621094 " clip-rule="nonzero"/></clipPath><clipPath id="bf31dfc37c"><path d="M 210.226562 172.425781 C 210.75 171.601562 211.351562 172.125 211.351562 172.5 C 211.351562 173.101562 209.699219 174.898438 209.175781 174.898438 C 208.875 174.976562 208.425781 174.523438 208.351562 174.300781 C 208.351562 174 208.5 173.625 208.800781 173.25 C 209.324219 172.574219 211.648438 170.699219 212.101562 170.925781 C 212.398438 171.074219 212.550781 171.898438 212.324219 172.199219 C 211.949219 172.875 210.074219 173.324219 208.875 173.476562 C 207.601562 173.625 205.875 173.550781 204.976562 173.023438 C 204.300781 172.574219 203.925781 171.75 203.699219 170.851562 C 203.398438 169.726562 203.324219 167.25 203.851562 166.574219 C 204.148438 166.199219 204.824219 165.898438 205.125 166.050781 C 205.800781 166.425781 205.574219 169.648438 206.175781 170.699219 C 206.625 171.449219 207.300781 172.125 207.898438 172.273438 C 208.425781 172.425781 209.023438 172.273438 209.476562 171.976562 C 210.226562 171.523438 210.824219 169.574219 211.425781 169.199219 C 211.800781 169.050781 212.25 168.976562 212.398438 169.125 C 212.625 169.351562 212.550781 170.101562 212.324219 170.476562 C 212.023438 171.074219 211.351562 171.75 210.523438 172.199219 C 209.324219 172.800781 206.851562 173.625 205.875 173.324219 C 205.273438 173.101562 204.75 172.425781 204.675781 171.976562 C 204.523438 171.449219 204.75 170.550781 205.199219 170.324219 C 205.875 170.023438 207.898438 171.976562 208.949219 171.75 C 209.773438 171.601562 210.375 169.726562 210.976562 169.648438 C 211.425781 169.574219 212.101562 169.949219 212.101562 170.25 C 212.175781 170.699219 210.375 172.199219 209.398438 172.425781 C 208.5 172.726562 207.148438 172.648438 206.324219 172.125 C 205.351562 171.449219 204.449219 169.726562 204.300781 168.601562 C 204.148438 167.625 204.523438 165.898438 204.976562 165.675781 C 205.273438 165.523438 205.949219 165.75 206.023438 165.976562 C 206.175781 166.199219 205.726562 167.023438 205.5 167.023438 C 205.273438 167.101562 204.601562 166.5 204.675781 166.351562 C 204.675781 166.125 205.726562 165.675781 206.023438 165.898438 C 206.324219 166.125 205.648438 167.925781 205.800781 168.75 C 206.023438 169.574219 206.625 170.476562 207.148438 170.851562 C 207.601562 171.148438 208.125 171.300781 208.648438 171.148438 C 209.398438 171 210.523438 169.648438 211.199219 169.574219 C 211.574219 169.574219 211.949219 169.800781 212.023438 170.101562 C 212.175781 170.625 211.125 172.425781 210.375 172.875 C 209.550781 173.324219 208.125 173.175781 207.375 172.875 C 206.851562 172.648438 206.101562 171.898438 206.175781 171.675781 C 206.25 171.449219 207.675781 171.898438 208.425781 171.601562 C 209.476562 171.226562 210.976562 169.125 211.726562 169.050781 C 212.175781 168.976562 212.625 169.273438 212.699219 169.574219 C 212.851562 170.175781 211.800781 172.125 210.898438 172.800781 C 210 173.476562 208.351562 173.773438 207.300781 173.550781 C 206.324219 173.25 205.5 172.5 204.898438 171.523438 C 204.148438 170.25 203.398438 166.726562 203.925781 166.199219 C 204.148438 165.976562 205.050781 166.050781 205.351562 166.425781 C 205.800781 166.949219 204.898438 169.351562 205.050781 170.324219 C 205.199219 170.925781 205.351562 171.449219 205.800781 171.75 C 206.25 172.125 207.226562 172.351562 207.976562 172.273438 C 208.875 172.199219 210 171.148438 210.824219 171 C 211.425781 170.925781 212.398438 170.925781 212.550781 171.226562 C 212.699219 171.75 210.449219 174.300781 209.625 174.75 C 209.25 174.898438 208.726562 174.898438 208.648438 174.75 C 208.425781 174.375 209.851562 171.523438 210.601562 171.226562 C 211.050781 171.074219 211.949219 171.449219 212.101562 171.75 C 212.175781 172.050781 211.875 172.726562 211.574219 172.949219 C 211.351562 173.175781 210.824219 173.324219 210.601562 173.175781 C 210.449219 173.101562 210.226562 172.425781 210.226562 172.425781 " clip-rule="nonzero"/></clipPath></defs><g clip-path="url(#c08a19ec19)"><g clip-path="url(#8a47af844c)"><path fill="#fff7f0" d="M 3.050781 0 L 374.375 0 L 374.375 371.328125 L 3.050781 371.328125 Z M 3.050781 0 " fill-opacity="1" fill-rule="nonzero"/></g></g><g clip-path="url(#4d3842dccd)"><path fill="#b48bcc" d="M 48.128906 181.753906 C 48.171875 183.75 47.152344 187.007812 47.683594 189.785156 C 50.324219 203.5625 61.871094 217.019531 56.898438 231.519531 C 54.042969 239.847656 46.507812 244.371094 41.175781 250.882812 C 36.761719 256.273438 31.222656 277.523438 20.46875 266.140625 C 13.257812 258.511719 20.789062 229.53125 23.773438 219.523438 Z M 323.722656 289.53125 C 323.792969 289.535156 323.496094 289.003906 323.460938 288.914062 C 322.175781 285.4375 321.433594 281.675781 320.710938 278.058594 C 318.882812 268.984375 317.625 259.445312 317.828125 250.171875 C 318.117188 237.269531 324.15625 241.707031 332.746094 237.40625 C 340.949219 233.300781 344.46875 207.554688 353.332031 212.105469 C 357.871094 214.429688 359.65625 220.890625 360.742188 225.414062 C 367.902344 255.097656 339.65625 282.699219 317.433594 298.382812 Z M 88.542969 320.105469 C 87.03125 320.125 90.90625 318.085938 91.589844 316.738281 C 93.054688 313.847656 94.09375 310.769531 94.972656 307.65625 C 97.355469 299.191406 99.527344 280.046875 112.253906 281.128906 C 114.734375 281.339844 159.742188 325.898438 123.945312 322.269531 Z M 28.660156 311.03125 C 29.355469 311.316406 28.550781 312.539062 28.648438 313.285156 C 29.464844 319.402344 31.539062 325.34375 34.203125 330.882812 C 38.488281 339.8125 48.632812 348.917969 49.898438 358.917969 C 52.5 379.5 28.386719 360.355469 23.800781 354.117188 C 17.734375 345.867188 22.78125 330.09375 24.460938 321.09375 L 28.660156 311.03125 " fill-opacity="1" fill-rule="evenodd"/></g><path fill="#5e6697" d="M 282.066406 129.628906 C 280.96875 134.917969 284.253906 140.242188 279.289062 143.035156 C 266.839844 150.050781 246.792969 146.082031 241.441406 132.152344 C 240.792969 130.460938 240.527344 128.671875 240.574219 126.851562 C 240.371094 126.75 240.175781 126.628906 240.003906 126.46875 C 224.261719 111.953125 206.652344 121.292969 203.480469 123.183594 C 203.261719 126.351562 202.351562 129.574219 200.570312 132.730469 C 198.285156 136.773438 194.933594 141.03125 190.523438 142.925781 C 163.835938 154.390625 131.585938 126.117188 157.84375 102.3125 C 162.449219 98.136719 167.875 95.503906 174.03125 94.558594 C 176.332031 94.203125 178.867188 94.652344 181.265625 94.925781 C 190.449219 95.964844 201.28125 106.007812 203.226562 117.910156 C 209.78125 114.632812 226.136719 108.742188 241.558594 121.515625 C 243.910156 114.421875 250.15625 107.714844 256.796875 104.964844 C 270.078125 99.464844 281.527344 107.300781 286.511719 117.265625 C 286.625 117.488281 285.75 118.328125 285.648438 118.453125 C 283.214844 121.492188 282.84375 125.875 282.066406 129.628906 " fill-opacity="1" fill-rule="evenodd"/><g clip-path="url(#9bfd709fe0)"><path stroke-linecap="round" transform="matrix(0.0559769, 0, 0, -0.0559485, 4.570968, 368.206675)" fill="none" stroke-linejoin="round" d="M 4964.016129 2990.398675 C 4967.784422 2991.655412 5032.613014 2946.761983 5043.150277 2943.68996 C 5174.621823 2905.638765 5330.447705 3031.801168 5397.230226 3139.671071 M 5104.978191 4524.455307 C 5127.936863 4496.597643 5385.227516 4040.122936 5492.414509 3925.759894 M 4991.929409 4241.898999 C 5031.426699 4073.426459 5176.645535 3843.86255 5285.646892 3746.046542 M 4943.150953 2164.233914 C 4953.54865 2117.106287 4968.272904 2070.886303 4984.392823 2025.504144 C 5034.078461 1885.727092 5097.790521 1752.163905 5167.992419 1621.602923 C 5397.928058 1194.382255 5574.479551 814.428851 5638.61031 330.236117 M 5544.472775 2924.140722 C 5480.062883 3083.117918 5361.571012 3204.672287 5252.709222 3333.55762 C 5036.03239 3590.141369 4969.668568 3898.321142 4984.392823 4237.500421 C 4995.139436 4483.751001 5262.827786 4714.432009 5263.176702 4715.96802 L 5263.455835 4713.873459 C 5257.942962 4712.19781 5533.935512 4358.216965 5647.682126 4252.581261 C 5893.598118 4024.343908 6353.957879 3671.968894 6483.754629 3367.419693 C 6670.145552 2930.145131 6431.556796 2168.213581 6148.585926 1803.829749 C 5965.265463 1567.702881 5707.55611 1366.625005 5453.335918 1211.3482 M 4635.68618 5849.265273 C 4644.827779 5818.963954 4656.20244 5789.221185 4667.856234 5759.82751 C 4697.793227 5684.772399 4730.242414 5610.834389 4762.761385 5536.966197 C 4829.334556 5385.738877 4898.559489 5235.349382 4944.058135 5076.023093 C 4994.999869 4897.566477 5037.009355 4694.812952 5081.042553 4514.54105 M 4079.304737 6316.771336 C 4101.007312 6330.106709 4124.3149 6340.579515 4148.110971 6349.237035 C 4217.266121 6374.30195 4290.678046 6390.779165 4362.833873 6404.114538 C 4629.824391 6453.616002 4898.489706 6449.007967 5167.57372 6424.990332 C 5234.844723 6418.985923 5303.022908 6413.051333 5370.642828 6413.051333 C 5372.736324 6413.051333 5389.344725 6415.634625 5390.531039 6413.400426 C 5391.996486 6410.607678 5385.925348 6403.276714 5384.739034 6401.391609 C 5334.076432 6322.845563 5293.811526 6236.61946 5255.012068 6151.789731 C 5195.556782 6021.787298 4971.203799 5373.939516 4865.900952 5301.32806 M 2420.697673 6276.06703 C 2462.288459 6298.897747 2636.816239 6363.968782 2680.709871 6381.772552 C 2812.181417 6435.253682 2953.422611 6470.232854 3094.454455 6485.104239 C 3347.767466 6511.705166 3601.35961 6476.027807 3843.507309 6400.76324 C 3976.374519 6359.430566 4104.217339 6287.866391 4239.945661 6260.218183 M 1798.231541 3142.743094 C 1798.929373 3142.95255 1806.465959 3134.225212 1807.163791 3133.596843 C 2490.690221 2468.713296 3944.134682 2602.904851 4141.272218 2624.758106 C 4441.130622 2657.921992 5093.812879 2873.033429 5141.684153 3478.780531 M 1027.476113 3826.477692 C 1018.194947 3822.637663 677.722721 3165.992723 648.064862 3116.770535 C 262.931389 2478.418096 -408.801681 1616.785432 487.214589 1076.179184 M 1565.713923 5451.019368 C 1547.709858 5443.548767 1355.945628 5018.003747 1340.314192 4984.281311 C 1191.815545 4663.464353 1089.304027 4345.300504 1052.179365 3993.274583 C 1030.616357 3789.124684 1035.222048 3571.080862 985.675977 3371.189903 M 1427.682757 5181.100247 C 1434.661076 5178.447136 1399.350778 5250.290585 1389.092648 5288.970149 C 1366.064192 5375.545346 1347.362295 5463.447098 1330.056062 5551.279032 C 1310.3772 5651.329239 1170.252537 6465.834275 1207.167849 6531.882772 C 1213.587903 6543.263222 1510.65498 6535.722801 1539.056742 6535.722801 C 1885.879239 6535.722801 2335.631954 6527.623831 2661.449708 6387.986417 " stroke="#5e6697" stroke-width="85" stroke-opacity="1" stroke-miterlimit="10"/></g><path stroke-linecap="round" transform="matrix(0.0559769, 0, 0, -0.0559485, 4.570968, 368.206675)" fill="none" stroke-linejoin="round" d="M 3061.935485 1228.034871 C 3055.864347 1234.178918 3074.287111 1215.956235 3080.986298 1210.580195 C 3092.570309 1201.294307 3104.014754 1191.798962 3115.180065 1182.024344 C 3145.675323 1155.144141 3174.356218 1125.610828 3201.571665 1095.449147 C 3287.265433 1000.705161 3365.631965 887.529037 3414.549987 768.767416 M 2798.015428 1157.93689 C 2797.387379 1154.445954 2835.279656 1127.426115 2838.4199 1124.703185 C 2971.356893 1006.220839 3056.771528 866.932519 3158.794564 725.270362 M 437.598735 1097.613527 C 449.322312 1128.543214 410.45307 1037.150526 401.032339 1005.452833 C 379.67868 933.958477 361.883964 861.067747 348.066891 787.758105 C 310.872446 590.520257 252.952391 324.650621 315.268788 125.178575 M 4857.945667 3517.529913 C 4873.646887 3495.955933 4949.012742 3487.298413 4973.297295 3477.73325 C 5055.362336 3445.407189 5129.262744 3397.86065 5205.117081 3353.665408 M 4799.955829 3642.854493 C 4796.327103 3633.568605 4819.564908 3645.298147 4829.474122 3646.415247 C 4851.595396 3648.858901 4873.646887 3651.581831 4895.837944 3653.746211 C 4957.177376 3659.820438 5002.536455 3640.061744 5063.806103 3632.17223 M 4698.142143 3743.183975 C 4690.396208 3739.693039 4711.261384 3753.866237 4718.37927 3758.474272 C 4741.686859 3773.555112 4765.971412 3787.309398 4790.116398 3800.993864 C 4837.638757 3827.874066 4927.5893 3899.298604 4984.253257 3901.951715 M 3165.912451 3579.878019 C 3166.5405 3583.368954 3142.11638 3570.1034 3115.249849 3558.024764 C 3080.986298 3542.664648 3047.141447 3526.466708 3013.296595 3510.198949 C 2914.762719 3462.931685 2818.461905 3411.545116 2723.417188 3357.505437 C 2431.653635 3191.616189 2126.142791 3002.407493 1901.859591 2747.569212 M 2837.791851 3634.964979 C 2839.327081 3629.309664 2825.928707 3635.034797 2820.206485 3633.847879 C 2775.056755 3624.561991 2730.604858 3610.458613 2686.641443 3596.774146 C 2582.315561 3564.308447 2479.664476 3526.955439 2378.129922 3486.739864 C 2074.503225 3366.232775 1768.503899 3229.039016 1494.465278 3049.395483 M 3068.564889 3790.590877 C 3068.355539 3785.56393 3060.679387 3797.223654 3055.864347 3798.759666 C 3044.280336 3802.599694 3031.649577 3803.856431 3019.646866 3805.392443 C 2978.544562 3810.768483 2937.232909 3814.119781 2895.921255 3816.703073 C 2774.149574 3824.243494 2651.749843 3821.590383 2529.978162 3816.423798 C 2149.310813 3800.365496 1719.795226 3777.46496 1368.087905 3611.1568 M 422.316214 1118.140227 C 427.340605 1124.912641 434.807407 1106.689959 441.785727 1101.872468 C 462.37177 1087.489814 484.004562 1074.22426 505.846703 1061.656893 C 560.417164 1030.308293 618.267436 1003.916822 676.536407 980.318099 C 857.90294 907.148094 1049.736953 869.166717 1244.641427 857.995724 C 1509.817581 842.775246 1780.018126 827.135855 2045.61298 823.156189 C 2434.16583 817.361237 2700.807432 843.124339 3074.775593 707.676048 L 3078.055404 706.48913 C 3393.615028 633.738037 3571.422618 795.926893 3380.286437 1114.300198 C 3306.874512 1236.692391 3195.57031 1335.834955 3086.499171 1425.412356 C 2624.115697 1804.946848 2060.825718 2004.837806 1459.783028 1953.730513 C 1282.603487 1938.579853 1108.005924 1904.229049 935.292507 1862.337825 C 922.801315 1859.335621 772.139389 1831.408138 769.278278 1817.863309 M 4002.054736 3898.460779 C 4013.289831 3860.339765 4051.321675 3766.573242 4073.652298 3733.409356 C 4211.474116 3528.561269 4369.393494 3660.867719 4391.584551 3671.200888 M 4001.147555 3909.492135 C 4000.17059 3909.701591 3998.077094 3895.109481 3997.867745 3893.992382 C 3994.518151 3877.37553 3990.331159 3860.828496 3985.795251 3844.560737 C 3973.792541 3802.110963 3956.97479 3760.429195 3933.457852 3723.076187 C 3863.60487 3612.273899 3693.264083 3577.434364 3581.122482 3645.71706 " stroke="#5e6697" stroke-width="85" stroke-opacity="1" stroke-miterlimit="10"/><path fill="#e06cb9" d="M 293.640625 19.570312 C 293.515625 16.632812 261.46875 14.222656 256.121094 21.175781 C 254.667969 23.0625 271.289062 40.871094 277.019531 48.304688 C 280.835938 53.261719 293.902344 25.6875 293.640625 19.570312 Z M 91.40625 19.828125 C 87.992188 22.988281 89.503906 57.621094 96.753906 57.46875 C 104.007812 57.320312 135.808594 25.199219 134.917969 18.925781 C 134.027344 12.652344 97.097656 14.558594 91.40625 19.828125 Z M 235.710938 143.277344 C 235.074219 144.011719 234.34375 144.683594 233.613281 145.316406 C 232.375 146.390625 231.007812 147.449219 229.511719 148.144531 L 228.890625 148.320312 C 228.914062 148.785156 228.027344 147.953125 227.621094 147.722656 C 226.835938 147.28125 226.089844 146.777344 225.378906 146.222656 C 224.171875 145.28125 218.09375 139.816406 220.1875 138.082031 C 222.011719 136.570312 226.3125 137.421875 228.445312 137.523438 C 232.898438 137.734375 241.542969 136.535156 235.710938 143.277344 " fill-opacity="1" fill-rule="evenodd"/><g clip-path="url(#212967a4db)"><path fill="#26a9e0" d="M 163.703125 192.585938 C 163.507812 192.734375 163.222656 192.953125 162.832031 193.1875 C 162.441406 193.425781 161.945312 193.6875 161.347656 193.933594 C 160.75 194.171875 160.050781 194.402344 159.257812 194.554688 C 159.058594 194.597656 158.855469 194.625 158.648438 194.660156 C 158.542969 194.675781 158.4375 194.6875 158.332031 194.699219 L 158.25 194.707031 L 158.210938 194.710938 L 158.191406 194.714844 C 158.136719 194.714844 158.171875 194.714844 158.15625 194.714844 L 158.148438 194.714844 C 158.097656 194.71875 158.046875 194.726562 157.996094 194.730469 C 157.894531 194.738281 157.792969 194.746094 157.6875 194.753906 C 157.585938 194.761719 157.484375 194.769531 157.363281 194.769531 C 157.128906 194.773438 156.882812 194.78125 156.648438 194.773438 C 155.710938 194.75 154.714844 194.609375 153.714844 194.335938 C 152.714844 194.0625 151.710938 193.652344 150.757812 193.105469 C 149.800781 192.5625 148.902344 191.878906 148.101562 191.097656 C 148 191 147.902344 190.902344 147.804688 190.796875 L 147.519531 190.492188 C 147.332031 190.285156 147.152344 190.066406 146.976562 189.851562 C 146.632812 189.410156 146.3125 188.957031 146.027344 188.480469 C 145.457031 187.539062 145.015625 186.535156 144.710938 185.535156 C 144.410156 184.535156 144.242188 183.535156 144.1875 182.585938 C 144.183594 182.46875 144.179688 182.351562 144.175781 182.234375 C 144.167969 182.117188 144.164062 182.003906 144.167969 181.886719 C 144.175781 181.660156 144.171875 181.433594 144.1875 181.214844 C 144.203125 180.992188 144.21875 180.773438 144.238281 180.558594 C 144.25 180.460938 144.261719 180.363281 144.273438 180.265625 C 144.285156 180.164062 144.300781 180.0625 144.3125 179.960938 C 144.425781 179.171875 144.589844 178.46875 144.753906 177.855469 C 144.921875 177.238281 145.097656 176.714844 145.253906 176.289062 C 145.410156 175.863281 145.554688 175.535156 145.652344 175.3125 C 145.753906 175.089844 145.8125 174.972656 145.8125 174.972656 C 145.8125 174.972656 145.820312 175.105469 145.824219 175.347656 C 145.828125 175.589844 145.835938 175.941406 145.84375 176.390625 C 145.855469 176.835938 145.867188 177.375 145.898438 177.984375 C 145.921875 178.59375 145.96875 179.277344 146.042969 180.007812 C 146.0625 180.191406 146.082031 180.378906 146.101562 180.574219 L 146.101562 180.582031 C 146.101562 180.585938 146.105469 180.574219 146.105469 180.582031 L 146.105469 180.601562 L 146.113281 180.632812 L 146.121094 180.703125 C 146.128906 180.75 146.136719 180.796875 146.140625 180.84375 C 146.15625 180.933594 146.167969 181.027344 146.183594 181.125 C 146.210938 181.3125 146.25 181.5 146.285156 181.691406 C 146.300781 181.789062 146.324219 181.882812 146.347656 181.980469 C 146.367188 182.074219 146.390625 182.171875 146.410156 182.269531 C 146.597656 183.046875 146.859375 183.835938 147.199219 184.617188 C 147.539062 185.398438 147.964844 186.164062 148.460938 186.894531 C 148.707031 187.261719 148.984375 187.609375 149.261719 187.957031 C 149.335938 188.042969 149.410156 188.125 149.484375 188.207031 C 149.558594 188.289062 149.628906 188.378906 149.707031 188.457031 C 149.863281 188.617188 150.007812 188.785156 150.171875 188.9375 C 150.8125 189.558594 151.507812 190.125 152.246094 190.605469 C 152.984375 191.082031 153.757812 191.484375 154.539062 191.804688 C 155.324219 192.125 156.117188 192.363281 156.890625 192.527344 C 156.988281 192.550781 157.078125 192.5625 157.171875 192.582031 C 157.261719 192.597656 157.355469 192.617188 157.445312 192.632812 C 157.53125 192.65625 157.636719 192.667969 157.738281 192.679688 C 157.84375 192.691406 157.945312 192.707031 158.046875 192.71875 C 158.097656 192.726562 158.144531 192.734375 158.195312 192.738281 L 158.207031 192.742188 C 158.199219 192.742188 158.238281 192.742188 158.191406 192.742188 L 158.207031 192.746094 L 158.242188 192.746094 L 158.3125 192.753906 C 158.40625 192.765625 158.496094 192.773438 158.585938 192.785156 C 158.769531 192.800781 158.949219 192.8125 159.125 192.824219 C 159.832031 192.863281 160.492188 192.847656 161.082031 192.808594 C 161.671875 192.765625 162.191406 192.691406 162.621094 192.621094 C 162.835938 192.585938 163.03125 192.550781 163.199219 192.519531 C 163.367188 192.484375 163.511719 192.453125 163.628906 192.429688 C 163.863281 192.375 163.988281 192.351562 163.988281 192.351562 C 163.988281 192.351562 163.890625 192.433594 163.703125 192.585938 Z M 158.191406 143.296875 C 158.191406 143.296875 140.941406 163.421875 140.941406 180.578125 C 140.941406 190.199219 148.664062 198 158.191406 198 C 167.714844 198 175.4375 190.199219 175.4375 180.578125 C 175.4375 170.953125 158.191406 159.554688 158.191406 143.296875 " fill-opacity="1" fill-rule="nonzero"/></g><g clip-path="url(#50194e31da)"><path fill="#fff7f0" d="M 259.191406 180.394531 C 259.191406 181.40625 259.140625 182.417969 259.042969 183.425781 C 258.945312 184.433594 258.796875 185.433594 258.597656 186.425781 C 258.402344 187.417969 258.15625 188.398438 257.859375 189.367188 C 257.566406 190.335938 257.226562 191.289062 256.839844 192.226562 C 256.453125 193.160156 256.019531 194.074219 255.542969 194.96875 C 255.066406 195.859375 254.542969 196.726562 253.980469 197.570312 C 253.417969 198.410156 252.816406 199.222656 252.175781 200.007812 C 251.53125 200.789062 250.851562 201.539062 250.136719 202.253906 C 249.421875 202.96875 248.671875 203.648438 247.890625 204.292969 C 247.105469 204.933594 246.292969 205.535156 245.453125 206.097656 C 244.609375 206.660156 243.742188 207.179688 242.851562 207.660156 C 241.957031 208.136719 241.042969 208.566406 240.109375 208.957031 C 239.171875 209.34375 238.222656 209.683594 237.25 209.976562 C 236.28125 210.273438 235.300781 210.515625 234.308594 210.714844 C 233.316406 210.914062 232.316406 211.0625 231.308594 211.160156 C 230.300781 211.257812 229.289062 211.308594 228.277344 211.308594 C 227.265625 211.308594 226.253906 211.257812 225.246094 211.160156 C 224.242188 211.0625 223.238281 210.914062 222.246094 210.714844 C 221.253906 210.515625 220.273438 210.273438 219.304688 209.976562 C 218.335938 209.683594 217.382812 209.34375 216.449219 208.957031 C 215.511719 208.566406 214.597656 208.136719 213.707031 207.660156 C 212.8125 207.179688 211.945312 206.660156 211.101562 206.097656 C 210.261719 205.535156 209.449219 204.933594 208.667969 204.292969 C 207.882812 203.648438 207.132812 202.96875 206.417969 202.253906 C 205.703125 201.539062 205.023438 200.789062 204.382812 200.007812 C 203.738281 199.222656 203.136719 198.410156 202.574219 197.570312 C 202.011719 196.726562 201.492188 195.859375 201.015625 194.96875 C 200.535156 194.074219 200.105469 193.160156 199.71875 192.226562 C 199.328125 191.289062 198.988281 190.335938 198.695312 189.367188 C 198.402344 188.398438 198.15625 187.417969 197.957031 186.425781 C 197.761719 185.433594 197.613281 184.433594 197.511719 183.425781 C 197.414062 182.417969 197.363281 181.40625 197.363281 180.394531 C 197.363281 179.382812 197.414062 178.371094 197.511719 177.363281 C 197.613281 176.355469 197.761719 175.355469 197.957031 174.363281 C 198.15625 173.371094 198.402344 172.390625 198.695312 171.421875 C 198.988281 170.453125 199.328125 169.5 199.71875 168.566406 C 200.105469 167.628906 200.535156 166.714844 201.015625 165.820312 C 201.492188 164.929688 202.011719 164.0625 202.574219 163.21875 C 203.136719 162.378906 203.738281 161.566406 204.382812 160.78125 C 205.023438 160 205.703125 159.25 206.417969 158.535156 C 207.132812 157.820312 207.882812 157.140625 208.667969 156.496094 C 209.449219 155.855469 210.261719 155.253906 211.101562 154.691406 C 211.945312 154.128906 212.8125 153.609375 213.707031 153.132812 C 214.597656 152.652344 215.511719 152.222656 216.449219 151.835938 C 217.382812 151.445312 218.335938 151.105469 219.304688 150.8125 C 220.273438 150.519531 221.253906 150.273438 222.246094 150.074219 C 223.238281 149.878906 224.242188 149.730469 225.246094 149.628906 C 226.253906 149.53125 227.265625 149.480469 228.277344 149.480469 C 229.289062 149.480469 230.300781 149.53125 231.308594 149.628906 C 232.316406 149.730469 233.316406 149.878906 234.308594 150.074219 C 235.300781 150.273438 236.28125 150.519531 237.25 150.8125 C 238.222656 151.105469 239.171875 151.445312 240.109375 151.835938 C 241.042969 152.222656 241.957031 152.652344 242.851562 153.132812 C 243.742188 153.609375 244.609375 154.128906 245.453125 154.691406 C 246.292969 155.253906 247.105469 155.855469 247.890625 156.496094 C 248.671875 157.140625 249.421875 157.820312 250.136719 158.535156 C 250.851562 159.25 251.53125 160 252.175781 160.78125 C 252.816406 161.566406 253.417969 162.378906 253.980469 163.21875 C 254.542969 164.0625 255.066406 164.929688 255.542969 165.820312 C 256.019531 166.714844 256.453125 167.628906 256.839844 168.566406 C 257.226562 169.5 257.566406 170.453125 257.859375 171.421875 C 258.15625 172.390625 258.402344 173.371094 258.597656 174.363281 C 258.796875 175.355469 258.945312 176.355469 259.042969 177.363281 C 259.140625 178.371094 259.191406 179.382812 259.191406 180.394531 Z M 259.191406 180.394531 " fill-opacity="1" fill-rule="nonzero"/></g><g clip-path="url(#e6b9b4ea06)"><g clip-path="url(#a28e811389)"><g clip-path="url(#6f7000c63d)"><path fill="#5e6697" d="M 251.980469 162.3125 C 250.234375 160.851562 248.214844 159.726562 246.027344 159.027344 C 243.644531 158.261719 241.347656 158.046875 239.308594 157.679688 C 237.28125 157.316406 235.445312 156.773438 234.121094 155.804688 C 233.152344 155.097656 232.371094 154.101562 231.910156 152.996094 C 231.453125 151.890625 231.300781 150.628906 231.484375 149.445312 C 231.53125 149.15625 231.519531 148.871094 231.449219 148.582031 C 231.378906 148.296875 231.257812 148.039062 231.085938 147.800781 C 230.914062 147.5625 230.699219 147.367188 230.449219 147.214844 C 230.199219 147.0625 229.929688 146.964844 229.636719 146.917969 C 229.347656 146.875 229.058594 146.886719 228.773438 146.953125 C 228.488281 147.023438 228.226562 147.144531 227.992188 147.320312 C 227.753906 147.492188 227.558594 147.703125 227.40625 147.953125 C 227.253906 148.207031 227.15625 148.476562 227.109375 148.765625 C 226.796875 150.765625 227.042969 152.820312 227.816406 154.691406 C 228.59375 156.5625 229.871094 158.1875 231.507812 159.382812 C 233.71875 160.996094 236.242188 161.628906 238.523438 162.039062 C 240.792969 162.449219 242.890625 162.671875 244.675781 163.246094 C 247.910156 164.28125 250.765625 166.667969 252.355469 169.667969 C 253.949219 172.664062 254.324219 176.367188 253.371094 179.625 C 253.289062 179.90625 253.265625 180.195312 253.296875 180.488281 C 253.328125 180.777344 253.414062 181.054688 253.554688 181.3125 C 253.695312 181.570312 253.882812 181.789062 254.109375 181.972656 C 254.339844 182.15625 254.597656 182.289062 254.878906 182.375 C 255.160156 182.457031 255.445312 182.480469 255.738281 182.449219 C 256.03125 182.417969 256.304688 182.332031 256.5625 182.191406 C 256.820312 182.050781 257.042969 181.863281 257.226562 181.636719 C 257.410156 181.40625 257.542969 181.152344 257.625 180.871094 C 258.914062 176.464844 258.421875 171.640625 256.269531 167.589844 C 255.191406 165.5625 253.726562 163.769531 251.980469 162.3125 Z M 251.980469 162.3125 " fill-opacity="1" fill-rule="nonzero"/></g></g></g><g clip-path="url(#a7cd17a8bd)"><g clip-path="url(#4d3a8eeb4a)"><g clip-path="url(#20533acd13)"><path fill="#5e6697" d="M 208.671875 164.289062 C 210.25 162.652344 212.140625 161.3125 214.238281 160.382812 C 216.523438 159.371094 218.785156 158.914062 220.773438 158.328125 C 222.75 157.75 224.519531 157.011719 225.734375 155.910156 C 226.617188 155.105469 227.292969 154.027344 227.628906 152.882812 C 227.96875 151.734375 227.984375 150.464844 227.675781 149.308594 C 227.597656 149.023438 227.578125 148.738281 227.617188 148.445312 C 227.65625 148.15625 227.75 147.882812 227.898438 147.628906 C 228.042969 147.375 228.234375 147.15625 228.464844 146.976562 C 228.699219 146.800781 228.957031 146.671875 229.242188 146.597656 C 229.527344 146.519531 229.8125 146.5 230.105469 146.539062 C 230.394531 146.578125 230.667969 146.671875 230.921875 146.820312 C 231.175781 146.964844 231.394531 147.15625 231.570312 147.386719 C 231.75 147.621094 231.878906 147.878906 231.953125 148.164062 C 232.476562 150.117188 232.453125 152.1875 231.882812 154.128906 C 231.3125 156.074219 230.210938 157.828125 228.714844 159.1875 C 226.6875 161.027344 224.246094 161.925781 222.023438 162.578125 C 219.808594 163.230469 217.75 163.675781 216.03125 164.433594 C 212.929688 165.808594 210.34375 168.488281 209.082031 171.640625 C 207.820312 174.792969 207.839844 178.511719 209.132812 181.648438 C 209.246094 181.921875 209.304688 182.203125 209.300781 182.5 C 209.300781 182.792969 209.246094 183.074219 209.132812 183.347656 C 209.019531 183.617188 208.859375 183.855469 208.652344 184.0625 C 208.441406 184.273438 208.203125 184.429688 207.933594 184.542969 C 207.660156 184.65625 207.378906 184.710938 207.085938 184.710938 C 206.789062 184.710938 206.507812 184.652344 206.238281 184.542969 C 205.964844 184.429688 205.726562 184.269531 205.519531 184.058594 C 205.3125 183.851562 205.152344 183.613281 205.039062 183.339844 C 203.289062 179.097656 203.261719 174.25 204.96875 169.992188 C 205.824219 167.863281 207.09375 165.925781 208.671875 164.289062 Z M 208.671875 164.289062 " fill-opacity="1" fill-rule="nonzero"/></g></g></g><g clip-path="url(#2dac4f1074)"><g clip-path="url(#7252a7ecf9)"><g clip-path="url(#f80da63bb1)"><path fill="#fff7f0" d="M 210.710938 173.683594 C 211.09375 173.585938 211.472656 173.453125 211.835938 173.289062 C 213.761719 172.421875 215.222656 170.667969 215.730469 168.617188 C 215.785156 168.390625 215.753906 168.175781 215.632812 167.980469 C 215.511719 167.78125 215.339844 167.652344 215.113281 167.597656 C 214.886719 167.539062 214.675781 167.574219 214.476562 167.691406 C 214.277344 167.8125 214.148438 167.988281 214.09375 168.210938 C 213.71875 169.742188 212.578125 171.109375 211.140625 171.753906 C 210.054688 172.246094 208.773438 172.351562 207.617188 172.039062 C 206.460938 171.730469 205.40625 171.003906 204.707031 170.035156 C 204.570312 169.84375 204.386719 169.730469 204.15625 169.695312 C 203.925781 169.65625 203.71875 169.707031 203.53125 169.84375 C 203.339844 169.980469 203.230469 170.164062 203.191406 170.390625 C 203.152344 170.621094 203.203125 170.832031 203.339844 171.019531 C 204.273438 172.3125 205.644531 173.257812 207.183594 173.667969 C 208.335938 173.976562 209.558594 173.976562 210.710938 173.683594 Z M 210.710938 173.683594 " fill-opacity="1" fill-rule="nonzero"/></g></g></g><g clip-path="url(#ea8162333b)"><path fill="#fff7f0" d="M 269.628906 175.839844 C 269.855469 178.714844 270.105469 181.605469 270.210938 184.496094 C 270.359375 189.007812 270.253906 193.519531 270.179688 198.035156 C 270.136719 200.238281 269.332031 202.265625 267.039062 202.964844 C 265.59375 203.394531 264.253906 203.128906 262.792969 203.054688 C 261.214844 202.980469 259.636719 202.933594 258.058594 202.902344 C 254.824219 202.828125 251.59375 202.828125 248.375 202.859375 C 241.988281 202.917969 235.613281 203.140625 229.222656 203.320312 C 223.921875 203.46875 218.617188 203.066406 213.300781 203.128906 C 211.214844 203.140625 209.128906 203.203125 207.058594 203.292969 C 205.273438 203.367188 203.441406 203.828125 201.652344 203.664062 C 200.3125 203.53125 199.105469 202.875 198.421875 201.699219 C 197.574219 200.253906 197.960938 198.273438 197.929688 196.664062 C 197.886719 194.832031 197.8125 193 197.734375 191.167969 C 197.542969 187.503906 197.378906 183.839844 197.511719 180.175781 C 197.585938 178.121094 197.363281 175.097656 199.179688 173.769531 C 199.390625 173.5625 199.644531 173.382812 199.894531 173.234375 C 202.457031 171.730469 206.332031 172.089844 209.160156 172.074219 C 216.59375 172.058594 223.980469 172.175781 231.425781 172.175781 C 243.015625 172.164062 254.496094 171.285156 266.085938 172.414062 C 266.917969 172.492188 267.785156 172.609375 268.4375 173.117188 C 269.140625 173.667969 269.453125 174.5625 269.570312 175.453125 C 269.601562 175.589844 269.617188 175.722656 269.628906 175.839844 Z M 269.628906 175.839844 " fill-opacity="1" fill-rule="nonzero"/></g><g clip-path="url(#2c67a553bc)"><g clip-path="url(#3419366e95)"><g clip-path="url(#846c68ee7f)"><path fill="#fff7f0" d="M 255.140625 173.667969 C 255.734375 173.558594 256.316406 173.398438 256.886719 173.1875 C 259.90625 172.070312 262.308594 169.5625 263.292969 166.496094 C 263.34375 166.335938 263.363281 166.171875 263.347656 166 C 263.335938 165.832031 263.289062 165.671875 263.210938 165.519531 C 263.132812 165.367188 263.027344 165.238281 262.898438 165.128906 C 262.769531 165.019531 262.625 164.9375 262.460938 164.886719 C 262.300781 164.832031 262.136719 164.8125 261.964844 164.828125 C 261.796875 164.84375 261.636719 164.886719 261.484375 164.964844 C 261.332031 165.042969 261.203125 165.148438 261.09375 165.277344 C 260.984375 165.40625 260.902344 165.550781 260.851562 165.714844 C 260.117188 167.996094 258.246094 169.953125 255.996094 170.785156 C 254.292969 171.414062 252.335938 171.4375 250.613281 170.847656 C 248.894531 170.257812 247.363281 169.039062 246.402344 167.496094 C 246.3125 167.351562 246.199219 167.230469 246.0625 167.128906 C 245.925781 167.03125 245.773438 166.960938 245.605469 166.921875 C 245.441406 166.886719 245.273438 166.878906 245.105469 166.90625 C 244.9375 166.933594 244.78125 166.992188 244.636719 167.082031 C 244.496094 167.171875 244.371094 167.289062 244.273438 167.425781 C 244.175781 167.5625 244.105469 167.714844 244.066406 167.878906 C 244.027344 168.046875 244.023438 168.210938 244.050781 168.378906 C 244.078125 168.546875 244.136719 168.703125 244.226562 168.847656 C 245.507812 170.910156 247.488281 172.488281 249.785156 173.273438 C 251.503906 173.863281 253.359375 173.992188 255.140625 173.667969 Z M 255.140625 173.667969 " fill-opacity="1" fill-rule="nonzero"/></g></g></g><g clip-path="url(#d59eba4b1c)"><g clip-path="url(#5aa43d184f)"><path fill="#fff7f0" d="M 244.875 164.25 L 266.15625 164.25 L 266.15625 183.300781 L 244.875 183.300781 Z M 244.875 164.25 " fill-opacity="1" fill-rule="nonzero"/></g></g><g clip-path="url(#5a4b165e7b)"><g clip-path="url(#0c2fb64c6e)"><path fill="#fff7f0" d="M 247.5 162.375 L 263.023438 162.375 L 263.023438 177.898438 L 247.5 177.898438 Z M 247.5 162.375 " fill-opacity="1" fill-rule="nonzero"/></g></g><g clip-path="url(#483a3ad111)"><g clip-path="url(#fddb8997a9)"><path fill="#fff7f0" d="M 247.726562 161.398438 L 261.523438 161.398438 L 261.523438 175.414062 L 247.726562 175.414062 Z M 247.726562 161.398438 " fill-opacity="1" fill-rule="nonzero"/></g></g><g clip-path="url(#6037a66096)"><g clip-path="url(#9fed274e7e)"><path fill="#fff7f0" d="M 247.050781 161.625 L 262.050781 161.625 L 262.050781 177.09375 L 247.050781 177.09375 Z M 247.050781 161.625 " fill-opacity="1" fill-rule="nonzero"/></g></g><g clip-path="url(#57a9f31903)"><g clip-path="url(#b1bf542193)"><path fill="#fff7f0" d="M 220.648438 144.523438 L 230.925781 144.523438 L 230.925781 157.207031 L 220.648438 157.207031 Z M 220.648438 144.523438 " fill-opacity="1" fill-rule="nonzero"/></g></g><g clip-path="url(#6e7b0ea600)"><g clip-path="url(#6546142c9c)"><path fill="#e06cb9" d="M 224.773438 141.75 L 235.589844 141.75 L 235.589844 151.199219 L 224.773438 151.199219 Z M 224.773438 141.75 " fill-opacity="1" fill-rule="nonzero"/></g></g><g clip-path="url(#799133ca03)"><g clip-path="url(#b761d224dc)"><path fill="#5e6697" d="M 225.976562 145.574219 L 234.300781 145.574219 L 234.300781 155.460938 L 225.976562 155.460938 Z M 225.976562 145.574219 " fill-opacity="1" fill-rule="nonzero"/></g></g><g clip-path="url(#7efef69767)"><g clip-path="url(#758afd13da)"><path fill="#5e6697" d="M 225.75 144.601562 L 234.300781 144.601562 L 234.300781 155.554688 L 225.75 155.554688 Z M 225.75 144.601562 " fill-opacity="1" fill-rule="nonzero"/></g></g><g clip-path="url(#c60aca8fc8)"><g clip-path="url(#0add5b14cc)"><path fill="#fff7f0" d="M 222.449219 148.574219 L 229.945312 148.574219 L 229.945312 155.925781 L 222.449219 155.925781 Z M 222.449219 148.574219 " fill-opacity="1" fill-rule="nonzero"/></g></g><g clip-path="url(#565d06a8df)"><g clip-path="url(#ce0fa9c3e9)"><path fill="#fff7f0" d="M 221.773438 145.425781 L 231.226562 145.425781 L 231.226562 158.492188 L 221.773438 158.492188 Z M 221.773438 145.425781 " fill-opacity="1" fill-rule="nonzero"/></g></g><g clip-path="url(#56c3b5870a)"><g clip-path="url(#514016935f)"><path fill="#fff7f0" d="M 228.300781 144.523438 L 238.648438 144.523438 L 238.648438 158.3125 L 228.300781 158.3125 Z M 228.300781 144.523438 " fill-opacity="1" fill-rule="nonzero"/></g></g><g clip-path="url(#39fcd06128)"><g clip-path="url(#7c4fd777d3)"><path fill="#fff7f0" d="M 230.476562 146.175781 L 238.121094 146.175781 L 238.121094 153.675781 L 230.476562 153.675781 Z M 230.476562 146.175781 " fill-opacity="1" fill-rule="nonzero"/></g></g><g clip-path="url(#e20839f580)"><g clip-path="url(#9bdb92f126)"><path fill="#fff7f0" d="M 228.148438 144.226562 L 238.050781 144.226562 L 238.050781 153.824219 L 228.148438 153.824219 Z M 228.148438 144.226562 " fill-opacity="1" fill-rule="nonzero"/></g></g><g clip-path="url(#b0f08bfd10)"><g clip-path="url(#bf31dfc37c)"><path fill="#fff7f0" d="M 200.699219 162.675781 L 215.773438 162.675781 L 215.773438 177.984375 L 200.699219 177.984375 Z M 200.699219 162.675781 " fill-opacity="1" fill-rule="nonzero"/></g></g></svg>