<svg xmlns="http://www.w3.org/2000/svg" xmlns:xlink="http://www.w3.org/1999/xlink" width="500" zoomAndPan="magnify" viewBox="0 0 375 374.999991" height="500" preserveAspectRatio="xMidYMid meet" version="1.0"><defs><clipPath id="dee8dfb950"><path d="M 187.5 0 C 83.945312 0 0 83.945312 0 187.5 C 0 291.054688 83.945312 375 187.5 375 C 291.054688 375 375 291.054688 375 187.5 C 375 83.945312 291.054688 0 187.5 0 Z M 187.5 0 " clip-rule="nonzero"/></clipPath><clipPath id="e3bb184a37"><path d="M 139.417969 146.625 L 173.914062 146.625 L 173.914062 201.324219 L 139.417969 201.324219 Z M 139.417969 146.625 " clip-rule="nonzero"/></clipPath><clipPath id="8f9a25e5b4"><path d="M 15.363281 185 L 360.738281 185 L 360.738281 371.53125 L 15.363281 371.53125 Z M 15.363281 185 " clip-rule="nonzero"/></clipPath><clipPath id="416f66f801"><path d="M 3.046875 3.351562 L 372.046875 3.351562 L 372.046875 355.828125 L 3.046875 355.828125 Z M 3.046875 3.351562 " clip-rule="nonzero"/></clipPath><clipPath id="40013854ff"><path d="M 195.839844 152.808594 L 257.339844 152.808594 L 257.339844 214.308594 L 195.839844 214.308594 Z M 195.839844 152.808594 " clip-rule="nonzero"/></clipPath><clipPath id="ef713580b3"><path d="M 225 150 L 257 150 L 257 186 L 225 186 Z M 225 150 " clip-rule="nonzero"/></clipPath><clipPath id="0fc26e1592"><path d="M 230.890625 145.785156 L 263.242188 178.136719 L 254.226562 187.152344 L 221.875 154.800781 Z M 230.890625 145.785156 " clip-rule="nonzero"/></clipPath><clipPath id="2b08931608"><path d="M 230.890625 145.785156 L 263.242188 178.136719 L 254.226562 187.152344 L 221.875 154.800781 Z M 230.890625 145.785156 " clip-rule="nonzero"/></clipPath><clipPath id="4aa5d6d0dc"><path d="M 202 149 L 231 149 L 231 189 L 202 189 Z M 202 149 " clip-rule="nonzero"/></clipPath><clipPath id="88307f09ed"><path d="M 234.542969 153.898438 L 205.832031 189.515625 L 195.902344 181.515625 L 224.613281 145.894531 Z M 234.542969 153.898438 " clip-rule="nonzero"/></clipPath><clipPath id="cd2eb7bfc1"><path d="M 224.476562 145.785156 L 195.765625 181.40625 L 205.695312 189.40625 L 234.40625 153.789062 Z M 224.476562 145.785156 " clip-rule="nonzero"/></clipPath><clipPath id="5656177054"><path d="M 201 170 L 215 170 L 215 178 L 201 178 Z M 201 170 " clip-rule="nonzero"/></clipPath><clipPath id="64a85fb05c"><path d="M 215.1875 175.925781 L 202.667969 178.351562 L 201.671875 173.199219 L 214.1875 170.769531 Z M 215.1875 175.925781 " clip-rule="nonzero"/></clipPath><clipPath id="efbadeb993"><path d="M 215.1875 175.925781 L 202.667969 178.351562 L 201.671875 173.199219 L 214.1875 170.769531 Z M 215.1875 175.925781 " clip-rule="nonzero"/></clipPath><clipPath id="917e6af3f1"><path d="M 195.839844 175 L 268.589844 175 L 268.589844 207.558594 L 195.839844 207.558594 Z M 195.839844 175 " clip-rule="nonzero"/></clipPath><clipPath id="8e223f01a8"><path d="M 242 168 L 262 168 L 262 178 L 242 178 Z M 242 168 " clip-rule="nonzero"/></clipPath><clipPath id="7307c7df20"><path d="M 262.84375 175.972656 L 243.488281 178.359375 L 242.480469 170.171875 L 261.832031 167.78125 Z M 262.84375 175.972656 " clip-rule="nonzero"/></clipPath><clipPath id="f41f84a33e"><path d="M 262.84375 175.972656 L 243.488281 178.359375 L 242.480469 170.171875 L 261.832031 167.78125 Z M 262.84375 175.972656 " clip-rule="nonzero"/></clipPath><clipPath id="686204a7ac"><path d="M 246.253906 170.554688 L 261.730469 170.554688 L 261.730469 183.796875 L 246.253906 183.796875 Z M 246.253906 170.554688 " clip-rule="nonzero"/></clipPath><clipPath id="ab97653226"><path d="M 258.125 183.25 C 254.375 182.953125 253.777344 181.527344 253.851562 180.777344 C 253.925781 180.027344 254.675781 179.203125 255.351562 178.902344 C 255.949219 178.601562 257.601562 178.902344 257.601562 178.976562 C 257.601562 179.050781 255.652344 179.652344 255.277344 179.203125 C 254.527344 178.453125 255.949219 172.75 257.074219 171.476562 C 257.675781 170.800781 258.652344 170.578125 259.402344 170.578125 C 260 170.652344 260.675781 170.953125 261.050781 171.476562 C 261.574219 172.300781 261.800781 174.25 261.5 175.527344 C 261.125 176.875 259.625 178.75 258.574219 179.5 C 257.902344 180.027344 257.226562 180.476562 256.476562 180.328125 C 255.574219 180.101562 253.925781 178.75 253.625 177.625 C 253.324219 176.351562 254.226562 173.953125 255.050781 172.902344 C 255.652344 172.078125 256.699219 171.175781 257.449219 171.25 C 258.425781 171.328125 259.925781 173.050781 260.226562 173.953125 C 260.449219 174.703125 260.226562 175.453125 259.851562 176.203125 C 259.476562 177.027344 258.574219 178.078125 257.824219 178.675781 C 257.152344 179.125 256.550781 179.351562 255.726562 179.425781 C 254.449219 179.652344 251.675781 179.726562 251.152344 178.976562 C 250.777344 178.453125 251.976562 176.277344 251.824219 176.203125 C 251.75 176.203125 251.300781 178.078125 250.625 178.527344 C 249.875 178.902344 248 178.828125 247.324219 178.300781 C 246.652344 177.851562 246.277344 176.652344 246.351562 175.902344 C 246.425781 175.152344 247.101562 174.101562 247.777344 173.800781 C 248.449219 173.425781 249.726562 173.425781 250.402344 173.800781 C 251.074219 174.101562 251.75 175.152344 251.824219 175.902344 C 251.902344 176.652344 251.449219 177.851562 250.851562 178.300781 C 250.25 178.828125 249.050781 179.125 248.375 178.828125 C 247.550781 178.527344 246.125 176.953125 246.351562 176.203125 C 246.652344 175.152344 250.851562 174.175781 252.425781 173.875 C 253.402344 173.726562 254 173.652344 254.824219 173.953125 C 255.726562 174.402344 256.625 176.578125 257.527344 176.726562 C 258.277344 176.800781 259.550781 175.152344 259.777344 175.375 C 260 175.527344 259.550781 177.402344 259.027344 177.625 C 258.277344 177.925781 255.425781 176.652344 255.125 175.675781 C 254.75 174.550781 256.625 171.777344 257.527344 171.027344 C 258.125 170.652344 258.800781 170.5 259.402344 170.578125 C 259.925781 170.652344 260.675781 170.953125 261.050781 171.476562 C 261.574219 172.226562 261.726562 173.875 261.652344 175.300781 C 261.5 177.25 260.449219 180.625 259.476562 181.976562 C 258.875 182.800781 258.125 183.25 257.449219 183.550781 C 256.851562 183.777344 256.175781 183.851562 255.652344 183.625 C 255.050781 183.476562 254.449219 183.027344 254.226562 182.5 C 253.925781 182.050781 253.699219 181.300781 253.851562 180.777344 C 254 180.101562 254.675781 179.203125 255.351562 178.902344 C 256.101562 178.453125 257.675781 178.375 258.351562 178.75 C 259.027344 179.050781 259.625 180.027344 259.625 180.777344 C 259.625 181.527344 258.125 183.25 258.125 183.25 " clip-rule="nonzero"/></clipPath><clipPath id="d6557e585e"><path d="M 248.886719 168.613281 L 258.527344 168.613281 L 258.527344 178.195312 L 248.886719 178.195312 Z M 248.886719 168.613281 " clip-rule="nonzero"/></clipPath><clipPath id="3aa79e0725"><path d="M 258.425781 172.527344 C 255.277344 176.726562 253.402344 177.328125 252.800781 177.027344 C 252.351562 176.875 251.976562 176.277344 252.125 175.828125 C 252.277344 175.078125 254.824219 174.328125 255.574219 173.277344 C 256.175781 172.453125 256.027344 170.652344 256.476562 170.277344 C 256.777344 170.050781 257.449219 170.050781 257.601562 170.277344 C 257.976562 170.800781 256.25 173.953125 255.425781 175 C 254.824219 175.75 254.074219 176.425781 253.550781 176.578125 C 253.101562 176.726562 252.574219 176.726562 252.351562 176.5 C 252.199219 176.351562 252.125 175.902344 252.277344 175.527344 C 252.574219 174.476562 255.351562 171.101562 256.324219 170.578125 C 256.699219 170.351562 257.152344 170.277344 257.300781 170.5 C 257.601562 170.800781 256.777344 172.976562 256.101562 174.027344 C 255.277344 175.078125 254 176.425781 252.800781 176.726562 C 251.601562 176.953125 249.351562 176.277344 248.976562 175.527344 C 248.675781 175 249.199219 173.578125 249.800781 173.277344 C 250.777344 172.828125 254.824219 174.777344 255.351562 175.527344 C 255.5 175.902344 255.351562 176.351562 255.199219 176.5 C 254.976562 176.726562 254.449219 176.652344 254 176.5 C 253.101562 176.125 250.851562 174.175781 250.925781 173.726562 C 251 173.578125 251.449219 173.351562 251.675781 173.425781 C 251.902344 173.578125 251.675781 174.476562 251.976562 174.925781 C 252.351562 175.453125 253.625 175.902344 254.152344 176.425781 C 254.449219 176.726562 254.75 177.101562 254.675781 177.402344 C 254.675781 177.703125 254.375 178.152344 254.074219 178.152344 C 253.476562 178.226562 251.375 176.578125 251.527344 176.050781 C 251.601562 175.375 254.300781 175.527344 255.199219 174.703125 C 256.027344 173.875 256.101562 171.328125 256.699219 171.027344 C 256.925781 170.875 257.375 170.953125 257.449219 171.101562 C 257.675781 171.625 255.574219 174.851562 254.300781 175.828125 C 253.324219 176.578125 251.675781 177.101562 251.074219 176.953125 C 250.699219 176.800781 250.25 176.277344 250.324219 175.902344 C 250.550781 175.300781 252.949219 175 254.074219 174.101562 C 255.199219 173.050781 256.324219 169.976562 257 169.976562 C 257.375 169.902344 257.75 170.425781 257.75 170.800781 C 257.824219 171.703125 255.425781 174.703125 254.074219 175.527344 C 253.175781 176.125 251.675781 176.425781 251.152344 176.203125 C 250.851562 175.976562 250.625 175.453125 250.699219 175 C 251 174.101562 254.375 173.050781 255.199219 171.925781 C 255.800781 171.175781 255.652344 169.527344 255.949219 169.527344 C 256.175781 169.527344 256.699219 170.203125 256.699219 170.726562 C 256.777344 171.550781 255.949219 172.976562 255.199219 173.800781 C 254.375 174.703125 252.652344 175.976562 251.902344 175.902344 C 251.449219 175.828125 250.851562 175.453125 250.851562 175 C 250.851562 174.101562 255.125 170.800781 256.25 170.5 C 256.625 170.425781 257 170.425781 257.152344 170.652344 C 257.300781 170.800781 257.300781 171.550781 257.074219 171.703125 C 256.925781 171.851562 256.027344 171.625 255.875 171.402344 C 255.800781 171.175781 256.175781 170.5 256.402344 170.425781 C 256.625 170.425781 257.300781 171.027344 257.300781 171.476562 C 257.300781 172.078125 255.949219 173.203125 255.125 173.953125 C 254.300781 174.703125 253.175781 175.902344 252.351562 175.902344 C 251.824219 175.976562 250.851562 175.375 250.851562 175 C 250.851562 174.402344 253.476562 173.652344 254.300781 172.601562 C 255.199219 171.550781 255.277344 168.925781 255.949219 168.703125 C 256.402344 168.476562 257.300781 168.925781 257.449219 169.375 C 257.75 170.050781 257 172 256.25 173.050781 C 255.351562 174.25 253.027344 175.601562 252.050781 175.976562 C 251.601562 176.125 251.226562 176.277344 251 176.125 C 250.777344 175.976562 250.550781 175.453125 250.625 175.152344 C 250.851562 174.777344 252.425781 174.925781 253.25 174.328125 C 254.527344 173.5 257.074219 169.976562 257 169.976562 C 257 169.902344 256.25 170.578125 256.25 170.578125 C 256.324219 170.652344 256.925781 169.902344 257.226562 169.976562 C 257.449219 170.050781 257.75 170.425781 257.75 170.800781 C 257.824219 171.625 256.625 173.726562 255.574219 174.703125 C 254.601562 175.675781 252.800781 176.578125 251.902344 176.800781 C 251.449219 176.953125 251 177.027344 250.699219 176.800781 C 250.476562 176.652344 250.25 176.203125 250.324219 175.902344 C 250.625 175.300781 253.175781 174.925781 254.152344 174.027344 C 255.125 173.125 255.425781 171.175781 256.175781 170.5 C 256.550781 170.050781 257.152344 169.675781 257.449219 169.75 C 257.902344 169.976562 258.277344 171.25 258.199219 172.078125 C 258.125 173.203125 256.925781 175.078125 256.027344 175.976562 C 255.351562 176.578125 254.527344 177.027344 253.777344 177.101562 C 253.101562 177.25 252.199219 177.25 251.902344 176.953125 C 251.601562 176.726562 251.375 176.203125 251.527344 176.050781 C 251.675781 175.75 253.25 175.828125 253.777344 176.125 C 254.300781 176.351562 254.675781 177.027344 254.675781 177.402344 C 254.675781 177.703125 254.527344 178.078125 254.226562 178.152344 C 253.625 178.226562 251.152344 176.5 250.550781 175.527344 C 250.101562 174.777344 249.875 173.5 250.25 173.050781 C 250.476562 172.675781 251.300781 172.601562 251.902344 172.75 C 252.875 172.976562 255.125 174.777344 255.351562 175.527344 C 255.425781 175.976562 255.199219 176.5 254.902344 176.726562 C 254.074219 177.027344 249.800781 174.851562 249.800781 174.625 C 249.875 174.476562 251.976562 175.375 253.027344 175 C 254.449219 174.476562 256.699219 170.203125 257.152344 170.425781 C 257.449219 170.5 257.375 172 257 172.828125 C 256.476562 174.027344 254.449219 175.902344 253.625 176.425781 C 253.175781 176.652344 252.726562 176.726562 252.5 176.578125 C 252.277344 176.425781 252.125 175.828125 252.277344 175.527344 C 252.425781 175 253.550781 174.777344 254.152344 174.175781 C 255.050781 173.277344 255.726562 170.652344 256.476562 170.277344 C 256.925781 170.125 257.527344 170.203125 257.75 170.425781 C 258.050781 170.953125 257.601562 172.976562 256.925781 173.953125 C 256.101562 175.226562 253.550781 177.25 252.800781 177.027344 C 252.351562 176.953125 251.976562 176.125 252.125 175.828125 C 252.351562 175.300781 254.375 175.601562 255.199219 174.925781 C 256.175781 174.25 256.777344 171.703125 257.449219 171.328125 C 257.824219 171.175781 258.277344 171.175781 258.425781 171.402344 C 258.652344 171.550781 258.425781 172.527344 258.425781 172.527344 " clip-rule="nonzero"/></clipPath><clipPath id="085486f0bc"><path d="M 249.164062 167.691406 L 257 167.691406 L 257 175.832031 L 249.164062 175.832031 Z M 249.164062 167.691406 " clip-rule="nonzero"/></clipPath><clipPath id="544852e58c"><path d="M 256.25 171.101562 C 255.050781 169.527344 255.800781 169.375 256.027344 169.527344 C 256.402344 169.828125 256.476562 172.527344 256.25 172.675781 C 256.175781 172.675781 255.652344 172 255.652344 172 C 255.652344 172 256.324219 172.601562 256.324219 172.601562 C 256.324219 172.601562 255.875 172.078125 255.652344 172.078125 C 255.425781 172.152344 255.050781 172.902344 254.902344 172.828125 C 254.601562 172.675781 254.75 168.328125 255.351562 167.953125 C 255.652344 167.726562 256.402344 168.027344 256.625 168.402344 C 257.152344 169.226562 256.324219 172.828125 255.574219 174.101562 C 255.125 174.851562 254.226562 175.375 253.550781 175.675781 C 253.027344 175.828125 252.574219 175.828125 252.050781 175.675781 C 251.300781 175.601562 250.324219 175.375 249.800781 175 C 249.425781 174.625 249.125 173.875 249.199219 173.5 C 249.277344 173.125 249.5 172.75 249.949219 172.601562 C 250.699219 172.300781 253.027344 173.800781 253.925781 173.425781 C 254.75 173.050781 255.351562 171.550781 255.5 170.652344 C 255.574219 169.976562 254.824219 169.078125 254.976562 168.625 C 255.125 168.328125 255.726562 168.027344 255.949219 168.101562 C 256.175781 168.175781 256.402344 169.152344 256.25 169.300781 C 256.101562 169.453125 254.976562 169.078125 254.976562 168.925781 C 254.976562 168.777344 255.949219 168.175781 256.25 168.328125 C 256.699219 168.550781 257.074219 170.050781 256.925781 170.953125 C 256.777344 172.152344 255.800781 174.101562 254.675781 174.625 C 253.476562 175.152344 249.949219 174.101562 249.949219 174.027344 C 249.949219 174.027344 252.425781 174.476562 253.175781 174.175781 C 253.699219 174.027344 254 173.800781 254.375 173.277344 C 255.050781 172.226562 255.199219 167.875 255.800781 167.726562 C 256.027344 167.652344 256.476562 168.027344 256.625 168.402344 C 257 169.226562 256.851562 172 256.402344 172.828125 C 256.175781 173.277344 255.800781 173.578125 255.574219 173.578125 C 255.277344 173.5 254.824219 172.675781 254.75 172.675781 C 254.75 172.75 255.125 173.351562 255.199219 173.351562 C 255.277344 173.277344 254.601562 171.703125 254.527344 170.953125 C 254.527344 170.203125 254.601562 169.078125 254.976562 168.703125 C 255.199219 168.476562 255.652344 168.402344 255.949219 168.550781 C 256.402344 168.777344 257 169.75 257 170.203125 C 256.925781 170.578125 256.25 171.101562 256.25 171.101562 " clip-rule="nonzero"/></clipPath><clipPath id="84a404ec2f"><path d="M 248.515625 167.941406 L 257.597656 167.941406 L 257.597656 177.433594 L 248.515625 177.433594 Z M 248.515625 167.941406 " clip-rule="nonzero"/></clipPath><clipPath id="30a1755820"><path d="M 256.175781 168.402344 C 257.152344 171.25 256.625 173.125 255.800781 174.101562 C 254.902344 175.152344 253.101562 175.828125 251.902344 176.050781 C 251 176.277344 249.949219 176.351562 249.351562 175.976562 C 248.902344 175.75 248.449219 175.078125 248.601562 174.550781 C 248.902344 173.5 253.851562 172.601562 255.125 171.25 C 256.101562 170.277344 256.25 167.953125 256.625 167.953125 C 256.925781 167.953125 257.449219 168.925781 257.375 169.527344 C 257.300781 170.652344 255.726562 172.675781 254.675781 173.800781 C 253.699219 174.851562 252.199219 176.125 251.300781 176.277344 C 250.699219 176.351562 249.800781 176.050781 249.726562 175.675781 C 249.652344 175.078125 252.574219 173.800781 253.625 172.527344 C 254.675781 171.25 255.351562 168.175781 256.101562 168.027344 C 256.476562 167.953125 257 168.328125 257.152344 168.703125 C 257.300781 169.527344 256.101562 171.703125 255.050781 173.050781 C 253.777344 174.625 250.777344 177.027344 249.652344 177.25 C 249.199219 177.328125 248.75 177.175781 248.601562 176.953125 C 248.449219 176.800781 248.527344 176.203125 248.75 176.050781 C 248.976562 175.902344 249.875 176.125 249.949219 176.351562 C 250.027344 176.578125 249.5 177.328125 249.277344 177.402344 C 249.050781 177.402344 248.449219 176.953125 248.527344 176.578125 C 248.601562 175.75 252.277344 174.027344 253.550781 172.527344 C 254.675781 171.175781 255.125 168.476562 255.949219 168.101562 C 256.324219 167.953125 256.851562 168.101562 257 168.402344 C 257.226562 168.703125 257.152344 169.375 256.925781 169.976562 C 256.625 170.953125 255.800781 172.375 254.824219 173.425781 C 253.699219 174.625 251.300781 176.578125 250.476562 176.5 C 250.101562 176.5 249.726562 176.125 249.726562 175.828125 C 249.726562 175.078125 253.476562 173.203125 254.601562 171.703125 C 255.5 170.578125 255.652344 168.328125 256.324219 168.101562 C 256.699219 167.953125 257.375 168.328125 257.527344 168.703125 C 257.75 169.375 257.152344 171.25 256.25 172.226562 C 255.125 173.578125 251.527344 175 250.476562 175.375 C 250.175781 175.453125 249.875 175.601562 249.726562 175.453125 C 249.574219 175.300781 249.5 174.777344 249.652344 174.550781 C 249.949219 174.25 251.300781 174.777344 252.125 174.550781 C 253.027344 174.328125 254.152344 173.800781 254.824219 172.902344 C 255.652344 171.851562 256.175781 168.402344 256.175781 168.402344 " clip-rule="nonzero"/></clipPath><clipPath id="7f32a3d32a"><path d="M 222.09375 150.820312 L 226.390625 150.820312 L 226.390625 157.5625 L 222.09375 157.5625 Z M 222.09375 150.820312 " clip-rule="nonzero"/></clipPath><clipPath id="c363ae03f2"><path d="M 223.925781 157.152344 C 222.425781 157.453125 222.125 157.078125 222.125 156.703125 C 222.125 155.800781 224.375 151.976562 225.050781 151.902344 C 225.351562 151.828125 225.726562 152.203125 225.875 152.578125 C 226.101562 153.328125 226.101562 155.726562 225.574219 156.175781 C 225.277344 156.476562 224.527344 156.402344 224.226562 156.175781 C 223.925781 155.875 223.925781 154.453125 224.152344 154.300781 C 224.300781 154.226562 224.824219 154.675781 224.902344 154.601562 C 224.976562 154.527344 224.074219 153.625 224.074219 153.101562 C 224.152344 152.425781 225.199219 150.925781 225.574219 150.851562 C 225.875 150.851562 226.324219 151.300781 226.324219 151.527344 C 226.402344 151.75 225.875 152.277344 225.949219 152.277344 C 225.949219 152.277344 226.25 151.601562 226.324219 151.601562 C 226.476562 151.675781 226.101562 155.652344 225.425781 156.25 C 225.125 156.625 224.226562 156.550781 224.074219 156.402344 C 224 156.25 224.675781 155.277344 224.902344 155.277344 C 225.050781 155.351562 225.351562 156.476562 225.199219 156.625 C 225.125 156.703125 224.226562 156.476562 224 156.027344 C 223.625 155.203125 224.601562 151.226562 225.277344 150.925781 C 225.574219 150.777344 226.175781 151.226562 226.324219 151.527344 C 226.550781 152.050781 225.875 153.777344 225.574219 153.777344 C 225.425781 153.851562 225.125 153.175781 225.050781 153.25 C 224.902344 153.328125 225.875 155.875 225.574219 156.175781 C 225.351562 156.402344 224.449219 156.328125 224.226562 156.027344 C 223.777344 155.5 223.925781 152.953125 224.375 152.652344 C 224.675781 152.425781 225.574219 152.726562 225.800781 153.027344 C 225.949219 153.476562 225.277344 154.527344 224.976562 155.203125 C 224.601562 155.953125 224 156.851562 223.550781 157.226562 C 223.25 157.453125 222.949219 157.601562 222.726562 157.527344 C 222.425781 157.453125 222.050781 157 222.125 156.703125 C 222.199219 156.402344 223.402344 155.652344 223.699219 155.800781 C 223.925781 155.875 223.925781 157.152344 223.925781 157.152344 " clip-rule="nonzero"/></clipPath><clipPath id="788e049c8a"><path d="M 226.203125 148.03125 L 231.078125 148.03125 L 231.078125 151.574219 L 226.203125 151.574219 Z M 226.203125 148.03125 " clip-rule="nonzero"/></clipPath><clipPath id="4023047842"><path d="M 226.777344 150.101562 C 227.902344 148 228.949219 150.101562 228.875 150.175781 C 228.875 150.175781 228.199219 149.578125 228.277344 149.5 C 228.277344 149.5 228.875 150.027344 229.027344 149.875 C 229.25 149.800781 228.726562 148.453125 229.027344 148.300781 C 229.175781 148.152344 230.152344 148.453125 230.300781 148.75 C 230.449219 149.125 230 149.953125 229.625 150.328125 C 229.175781 150.777344 228.125 151.375 227.527344 151.226562 C 227 151.152344 226.402344 150.25 226.25 149.800781 C 226.175781 149.425781 226.25 148.976562 226.476562 148.828125 C 226.699219 148.675781 227.300781 148.75 227.449219 148.902344 C 227.675781 149.125 227.449219 150.027344 227.75 150.175781 C 228.125 150.328125 229.625 148.300781 230.152344 148.453125 C 230.527344 148.527344 230.902344 149.652344 230.75 149.800781 C 230.675781 149.875 229.699219 149.652344 229.550781 149.425781 C 229.476562 149.203125 229.851562 148.527344 230.074219 148.453125 C 230.300781 148.453125 230.976562 148.75 231.050781 149.050781 C 231.050781 149.5 229.851562 150.625 229.175781 151.078125 C 228.574219 151.375 227.75 151.75 227.300781 151.453125 C 226.777344 151.226562 226.101562 149.277344 226.324219 148.902344 C 226.476562 148.675781 227.074219 148.675781 227.375 148.828125 C 227.675781 148.976562 228.125 150.402344 228.125 150.402344 C 228.125 150.402344 227.824219 149.726562 227.675781 149.726562 C 227.449219 149.726562 227.074219 150.328125 227.074219 150.328125 C 227 150.328125 228.5 148.226562 229.101562 148.152344 C 229.550781 148.078125 230.152344 148.453125 230.300781 148.828125 C 230.449219 149.277344 229.925781 150.625 229.476562 150.925781 C 229.027344 151.226562 228.277344 151.226562 227.902344 150.925781 C 227.375 150.625 226.851562 149.125 226.925781 148.675781 C 227 148.375 227.300781 148.078125 227.527344 148.078125 C 227.824219 148 228.277344 148.300781 228.425781 148.601562 C 228.574219 148.902344 228.5 149.726562 228.277344 150.101562 C 228.125 150.402344 227.675781 150.703125 227.449219 150.703125 C 227.226562 150.625 226.777344 150.101562 226.777344 150.101562 " clip-rule="nonzero"/></clipPath><clipPath id="b2adc5ce53"><path d="M 227.34375 151.859375 L 229.785156 151.859375 L 229.785156 155.761719 L 227.34375 155.761719 Z M 227.34375 151.859375 " clip-rule="nonzero"/></clipPath><clipPath id="796294333b"><path d="M 228.050781 155.050781 C 228.652344 153.925781 229.699219 154.601562 229.625 154.675781 C 229.625 154.828125 228.5 155.050781 228.277344 154.902344 C 228.050781 154.675781 227.902344 154 228.050781 153.703125 C 228.199219 153.476562 229.324219 153.328125 229.402344 153.476562 C 229.476562 153.625 228.949219 154.453125 228.652344 154.453125 C 228.425781 154.527344 227.902344 154 227.902344 153.703125 C 227.824219 153.402344 228.277344 152.578125 228.652344 152.5 C 228.949219 152.425781 229.699219 152.875 229.777344 153.175781 C 229.777344 153.402344 229.476562 153.851562 229.175781 154 C 228.875 154.078125 228.351562 153.925781 228.125 153.625 C 227.824219 153.328125 227.527344 152.203125 227.75 152.050781 C 227.902344 151.902344 228.875 152.203125 229.027344 152.5 C 229.25 152.953125 228.800781 154.375 228.425781 154.601562 C 228.199219 154.828125 227.675781 154.75 227.527344 154.601562 C 227.300781 154.375 227.300781 153.625 227.449219 153.476562 C 227.601562 153.328125 228.726562 153.777344 228.726562 153.925781 C 228.726562 154.152344 227.75 154.75 227.601562 154.601562 C 227.300781 154.453125 227.449219 152.050781 227.902344 151.902344 C 228.277344 151.75 229.777344 152.953125 229.777344 153.328125 C 229.699219 153.625 228.574219 153.925781 228.652344 154 C 228.652344 154 229.324219 153.851562 229.402344 153.703125 C 229.402344 153.625 228.050781 153.402344 228.050781 153.175781 C 228.050781 153.027344 228.574219 152.5 228.800781 152.578125 C 229.175781 152.652344 229.777344 154.078125 229.699219 154.527344 C 229.625 154.902344 229.101562 155.277344 228.875 155.277344 C 228.574219 155.277344 228.125 154.527344 228.199219 154.375 C 228.277344 154.300781 229.476562 154.527344 229.550781 154.75 C 229.699219 154.976562 229.324219 155.652344 229.101562 155.726562 C 228.875 155.800781 228.050781 155.050781 228.050781 155.050781 " clip-rule="nonzero"/></clipPath><clipPath id="388ffe8192"><path d="M 227.03125 150.867188 L 229.804688 150.867188 L 229.804688 155.839844 L 227.03125 155.839844 Z M 227.03125 150.867188 " clip-rule="nonzero"/></clipPath><clipPath id="e925d6f3ad"><path d="M 227.527344 155.125 C 227.976562 151.527344 228.425781 151.375 228.652344 151.453125 C 228.875 151.527344 229.101562 151.828125 229.175781 152.203125 C 229.324219 152.800781 229.324219 155.125 228.875 155.425781 C 228.574219 155.652344 227.902344 155.425781 227.601562 155.050781 C 227.074219 154.453125 226.851562 151.675781 227.226562 151.152344 C 227.375 150.925781 227.75 150.851562 228.050781 150.925781 C 228.574219 151.152344 229.777344 152.953125 229.625 153.703125 C 229.476562 154.300781 228.050781 155.277344 227.675781 155.125 C 227.449219 155.050781 227.375 154.226562 227.449219 153.777344 C 227.601562 153.25 228.125 152.578125 228.5 152.351562 C 228.726562 152.203125 229.101562 152.125 229.324219 152.203125 C 229.550781 152.351562 229.777344 152.875 229.699219 153.101562 C 229.625 153.402344 228.949219 153.703125 228.726562 153.625 C 228.5 153.476562 228.277344 152.578125 228.425781 152.351562 C 228.652344 152.203125 229.625 152.351562 229.699219 152.578125 C 229.777344 152.800781 228.949219 153.703125 228.800781 153.625 C 228.652344 153.550781 228.425781 152.351562 228.652344 152.277344 C 228.800781 152.125 229.625 152.578125 229.777344 152.953125 C 229.851562 153.402344 229.101562 154.75 228.726562 155.050781 C 228.425781 155.203125 227.824219 155.277344 227.675781 155.125 C 227.527344 154.976562 228.277344 154.300781 228.199219 153.777344 C 228.199219 153.027344 227 151.527344 227.226562 151.152344 C 227.375 150.925781 227.824219 150.851562 228.050781 150.925781 C 228.425781 151.078125 228.800781 151.828125 228.949219 152.351562 C 229.175781 153.101562 229.402344 154.75 229.027344 154.976562 C 228.800781 155.203125 227.902344 154.828125 227.675781 154.453125 C 227.300781 153.925781 227.449219 152.277344 227.75 151.828125 C 227.902344 151.527344 228.277344 151.375 228.5 151.453125 C 228.726562 151.453125 229.027344 151.828125 229.175781 152.203125 C 229.402344 152.875 229.324219 154.976562 228.949219 155.5 C 228.726562 155.800781 228.277344 155.875 227.976562 155.800781 C 227.75 155.726562 227.527344 155.125 227.527344 155.125 " clip-rule="nonzero"/></clipPath><clipPath id="37df6ccb40"><path d="M 223.910156 154.828125 L 225.460938 154.828125 L 225.460938 156.265625 L 223.910156 156.265625 Z M 223.910156 154.828125 " clip-rule="nonzero"/></clipPath><clipPath id="44c08a3406"><path d="M 225.125 156.175781 C 223.777344 155.953125 224.226562 155.050781 224.449219 154.976562 C 224.675781 154.976562 225.351562 155.726562 225.277344 155.875 C 225.277344 156.101562 224.152344 156.402344 224 156.175781 C 223.777344 156.027344 224.074219 155.050781 224.375 154.902344 C 224.601562 154.75 225.277344 154.976562 225.425781 155.203125 C 225.574219 155.425781 225.125 156.175781 225.125 156.175781 " clip-rule="nonzero"/></clipPath><clipPath id="81b0cbade0"><path d="M 223.242188 151.703125 L 226.785156 151.703125 L 226.785156 158.753906 L 223.242188 158.753906 Z M 223.242188 151.703125 " clip-rule="nonzero"/></clipPath><clipPath id="a0e7351e51"><path d="M 225.050781 157.226562 C 223.777344 158.203125 223.324219 157.828125 223.25 157.453125 C 223.101562 156.550781 225.125 152.800781 225.800781 152.578125 C 226.101562 152.5 226.476562 152.800781 226.625 153.175781 C 226.925781 153.851562 226.699219 155.800781 226.402344 156.777344 C 226.101562 157.527344 225.5 158.5 224.976562 158.652344 C 224.675781 158.800781 224.152344 158.578125 223.925781 158.277344 C 223.476562 157.453125 224.449219 153.101562 225.050781 152.203125 C 225.277344 151.902344 225.574219 151.675781 225.800781 151.75 C 226.027344 151.75 226.550781 152.277344 226.476562 152.578125 C 226.476562 152.800781 225.875 153.25 225.652344 153.25 C 225.425781 153.175781 224.976562 152.203125 225.125 152.125 C 225.277344 151.976562 226.25 152.050781 226.476562 152.5 C 227 153.175781 226.324219 156.101562 225.875 157.152344 C 225.574219 157.902344 225.050781 158.726562 224.675781 158.726562 C 224.375 158.726562 224 158.425781 223.925781 158.050781 C 223.625 157.152344 225.199219 152.726562 225.800781 152.578125 C 226.101562 152.578125 226.550781 153.101562 226.625 153.625 C 226.777344 154.453125 225.949219 156.625 225.351562 157.375 C 224.976562 157.902344 224.449219 158.277344 224.074219 158.203125 C 223.777344 158.203125 223.25 157.75 223.25 157.453125 C 223.175781 157.078125 224 156.101562 224.300781 156.101562 C 224.601562 156.101562 225.050781 157.226562 225.050781 157.226562 " clip-rule="nonzero"/></clipPath><clipPath id="6f7125a9a9"><path d="M 229.6875 150.800781 L 234.132812 150.800781 L 234.132812 158.605469 L 229.6875 158.605469 Z M 229.6875 150.800781 " clip-rule="nonzero"/></clipPath><clipPath id="e726f5561a"><path d="M 232.777344 153.101562 C 232.101562 151.75 233.152344 151.527344 233.300781 151.675781 C 233.449219 151.828125 233.074219 153.101562 232.777344 153.175781 C 232.476562 153.25 231.5 151.976562 231.574219 151.75 C 231.652344 151.601562 232.699219 151.527344 232.925781 151.828125 C 233.226562 152.203125 232.699219 154.226562 232.175781 154.675781 C 231.949219 154.976562 231.351562 155.125 231.125 154.976562 C 230.675781 154.675781 230.300781 151.75 230.675781 151.453125 C 230.902344 151.300781 231.726562 151.601562 231.949219 151.976562 C 232.324219 152.5 232.25 154.601562 231.800781 155.125 C 231.574219 155.5 230.902344 155.726562 230.601562 155.578125 C 230.152344 155.277344 230.074219 153.175781 230.226562 152.425781 C 230.300781 151.976562 230.449219 151.527344 230.675781 151.375 C 230.902344 151.300781 231.425781 151.453125 231.652344 151.75 C 231.949219 152.277344 231.199219 154.152344 231.574219 155.125 C 231.949219 156.175781 233.976562 157 234.050781 157.675781 C 234.125 158.050781 233.824219 158.5 233.527344 158.578125 C 233.300781 158.652344 232.777344 158.5 232.699219 158.277344 C 232.625 158.050781 233 157.226562 233.226562 157.152344 C 233.449219 157.078125 234.125 157.601562 234.125 157.828125 C 234.125 158.050781 233.375 158.578125 232.925781 158.5 C 232.25 158.425781 231.199219 157.375 230.675781 156.476562 C 230 155.425781 229.476562 153.25 229.777344 152.351562 C 229.925781 151.828125 230.527344 151.375 230.902344 151.375 C 231.125 151.300781 231.5 151.601562 231.652344 151.902344 C 232.101562 152.578125 232.476562 155.125 232.027344 155.726562 C 231.800781 156.101562 230.976562 156.328125 230.675781 156.101562 C 230.152344 155.652344 230.152344 151.976562 230.675781 151.453125 C 230.902344 151.226562 231.5 151.226562 231.800781 151.453125 C 232.175781 151.75 232.25 152.953125 232.324219 153.625 C 232.324219 154.078125 232.324219 154.601562 232.101562 154.828125 C 231.875 155.050781 231.351562 155.203125 231.125 154.976562 C 230.75 154.601562 231.125 152.125 231.425781 151.453125 C 231.652344 151.078125 231.949219 150.777344 232.25 150.851562 C 232.550781 150.851562 233.375 152.203125 233.300781 152.203125 C 233.300781 152.277344 232.699219 151.675781 232.699219 151.675781 C 232.699219 151.675781 233.375 152.351562 233.375 152.351562 C 233.375 152.351562 232.925781 151.675781 232.777344 151.675781 C 232.550781 151.675781 232.25 152.652344 232.175781 152.652344 C 232.175781 152.652344 232.25 151.601562 232.476562 151.453125 C 232.777344 151.300781 233.601562 151.75 233.75 152.050781 C 233.976562 152.277344 233.976562 152.800781 233.75 153.027344 C 233.601562 153.175781 232.777344 153.101562 232.777344 153.101562 " clip-rule="nonzero"/></clipPath><clipPath id="63d6675bb0"><path d="M 231.910156 152.402344 L 233.609375 152.402344 L 233.609375 154.011719 L 231.910156 154.011719 Z M 231.910156 152.402344 " clip-rule="nonzero"/></clipPath><clipPath id="b9d77b0a0b"><path d="M 233.152344 153.925781 C 231.875 153.476562 232.402344 152.652344 232.625 152.652344 C 232.851562 152.652344 233.300781 153.703125 233.226562 153.925781 C 233.074219 154.078125 232.101562 154 231.949219 153.777344 C 231.800781 153.550781 232.101562 152.800781 232.324219 152.578125 C 232.550781 152.425781 233.074219 152.351562 233.226562 152.5 C 233.449219 152.652344 233.601562 153.550781 233.601562 153.550781 " clip-rule="nonzero"/></clipPath><clipPath id="47151476df"><path d="M 229.589844 150.515625 L 233.5625 150.515625 L 233.5625 154.152344 L 229.589844 154.152344 Z M 229.589844 150.515625 " clip-rule="nonzero"/></clipPath><clipPath id="f4fbbb3af7"><path d="M 232.777344 154.152344 C 231.125 152.652344 232.476562 151.902344 232.550781 151.902344 C 232.550781 151.976562 232.027344 152.277344 232.027344 152.5 C 232.027344 152.726562 232.777344 153.101562 232.777344 153.175781 C 232.699219 153.25 230.75 152.800781 230.75 152.425781 C 230.675781 152.050781 232.402344 150.851562 232.777344 150.925781 C 233 151 233.152344 151.453125 233.074219 151.75 C 232.925781 152.203125 231.726562 153.328125 231.277344 153.25 C 230.902344 153.25 230.300781 152.578125 230.300781 152.277344 C 230.300781 151.902344 230.902344 151.300781 231.199219 151.226562 C 231.5 151.078125 232.101562 151.226562 232.175781 151.375 C 232.25 151.675781 231.5 152.800781 231.125 152.800781 C 230.902344 152.800781 230.300781 152.203125 230.300781 151.902344 C 230.375 151.527344 231.726562 150.851562 231.875 151 C 232.101562 151.152344 231.875 152.425781 231.652344 152.578125 C 231.351562 152.800781 230.527344 152.578125 230.449219 152.425781 C 230.375 152.203125 231.125 151.375 231.050781 151.300781 C 231.050781 151.300781 230.375 151.828125 230.375 152.050781 C 230.375 152.203125 230.902344 152.5 230.902344 152.578125 C 230.824219 152.726562 229.699219 152.578125 229.699219 152.351562 C 229.550781 152.050781 230.976562 150.550781 231.351562 150.550781 C 231.652344 150.625 232.027344 151.601562 231.875 151.902344 C 231.726562 152.203125 229.851562 152.5 229.777344 152.277344 C 229.625 152.050781 230.675781 150.550781 230.976562 150.550781 C 231.199219 150.625 231.574219 152.050781 231.351562 152.277344 C 231.199219 152.425781 230.074219 152.125 230.074219 151.976562 C 230 151.75 230.675781 151 230.902344 151.078125 C 231.125 151.078125 231.425781 152.203125 231.277344 152.351562 C 231.125 152.5 230.152344 152.203125 230.074219 152.050781 C 230 151.828125 230.675781 151 230.902344 151.078125 C 231.125 151.078125 231.5 152.125 231.277344 152.351562 C 231.125 152.5 229.699219 152.351562 229.625 152.125 C 229.550781 151.828125 230.976562 150.476562 231.351562 150.550781 C 231.652344 150.625 232.027344 151.527344 231.875 151.902344 C 231.800781 152.277344 230.976562 152.726562 230.527344 152.800781 C 230.226562 152.800781 229.699219 152.578125 229.699219 152.351562 C 229.625 151.976562 230.75 150.625 231.125 150.703125 C 231.425781 150.703125 231.949219 151.675781 231.875 152.050781 C 231.875 152.351562 231.425781 152.800781 231.199219 152.800781 C 230.976562 152.800781 230.375 152.125 230.375 151.828125 C 230.449219 151.527344 231.726562 150.925781 231.875 151 C 232.101562 151.152344 231.652344 152.652344 231.351562 152.726562 C 231.050781 152.800781 230.300781 152.125 230.300781 151.902344 C 230.375 151.601562 232.027344 151.226562 232.175781 151.375 C 232.324219 151.601562 231.652344 153.25 231.277344 153.25 C 230.976562 153.328125 230.226562 152.578125 230.300781 152.277344 C 230.375 151.75 232.402344 150.777344 232.777344 150.925781 C 233 151.078125 233.152344 151.527344 233.074219 151.75 C 233 152.050781 232.402344 152.5 232.25 152.425781 C 232.101562 152.351562 231.949219 151.75 232.027344 151.675781 C 232.101562 151.527344 232.625 151.527344 232.777344 151.675781 C 232.925781 151.902344 232.550781 153.402344 232.476562 153.402344 C 232.476562 153.402344 232.402344 152.652344 232.476562 152.652344 C 232.699219 152.5 233.527344 153.101562 233.527344 153.328125 C 233.601562 153.625 232.777344 154.152344 232.777344 154.152344 " clip-rule="nonzero"/></clipPath><clipPath id="950f78b5c3"><path d="M 201.882812 168.945312 L 211.246094 168.945312 L 211.246094 178.25 L 201.882812 178.25 Z M 201.882812 168.945312 " clip-rule="nonzero"/></clipPath><clipPath id="1b13265cc5"><path d="M 208.699219 175.75 C 209.226562 174.925781 209.824219 175.453125 209.824219 175.828125 C 209.824219 176.425781 208.175781 178.226562 207.652344 178.226562 C 207.351562 178.300781 206.902344 177.851562 206.824219 177.625 C 206.824219 177.328125 206.976562 176.953125 207.277344 176.578125 C 207.800781 175.902344 210.125 174.027344 210.574219 174.25 C 210.875 174.402344 211.027344 175.226562 210.800781 175.527344 C 210.425781 176.203125 208.550781 176.652344 207.351562 176.800781 C 206.074219 176.953125 204.351562 176.875 203.449219 176.351562 C 202.777344 175.902344 202.402344 175.078125 202.175781 174.175781 C 201.875 173.050781 201.800781 170.578125 202.324219 169.902344 C 202.625 169.527344 203.300781 169.226562 203.601562 169.375 C 204.277344 169.75 204.050781 172.976562 204.652344 174.027344 C 205.101562 174.777344 205.777344 175.453125 206.375 175.601562 C 206.902344 175.75 207.5 175.601562 207.949219 175.300781 C 208.699219 174.851562 209.300781 172.902344 209.902344 172.527344 C 210.277344 172.375 210.726562 172.300781 210.875 172.453125 C 211.101562 172.675781 211.027344 173.425781 210.800781 173.800781 C 210.5 174.402344 209.824219 175.078125 209 175.527344 C 207.800781 176.125 205.324219 176.953125 204.351562 176.652344 C 203.75 176.425781 203.226562 175.75 203.152344 175.300781 C 203 174.777344 203.226562 173.875 203.675781 173.652344 C 204.351562 173.351562 206.375 175.300781 207.425781 175.078125 C 208.25 174.925781 208.851562 173.050781 209.449219 172.976562 C 209.902344 172.902344 210.574219 173.277344 210.574219 173.578125 C 210.652344 174.027344 208.851562 175.527344 207.875 175.75 C 206.976562 176.050781 205.625 175.976562 204.800781 175.453125 C 203.824219 174.777344 202.925781 173.050781 202.777344 171.925781 C 202.625 170.953125 203 169.226562 203.449219 169 C 203.75 168.851562 204.425781 169.078125 204.5 169.300781 C 204.652344 169.527344 204.199219 170.351562 203.976562 170.351562 C 203.75 170.425781 203.074219 169.828125 203.152344 169.675781 C 203.152344 169.453125 204.199219 169 204.5 169.226562 C 204.800781 169.453125 204.125 171.25 204.277344 172.078125 C 204.5 172.902344 205.101562 173.800781 205.625 174.175781 C 206.074219 174.476562 206.601562 174.625 207.125 174.476562 C 207.875 174.328125 209 172.976562 209.675781 172.902344 C 210.050781 172.902344 210.425781 173.125 210.5 173.425781 C 210.652344 173.953125 209.601562 175.75 208.851562 176.203125 C 208.027344 176.652344 206.601562 176.5 205.851562 176.203125 C 205.324219 175.976562 204.574219 175.226562 204.652344 175 C 204.726562 174.777344 206.152344 175.226562 206.902344 174.925781 C 207.949219 174.550781 209.449219 172.453125 210.199219 172.375 C 210.652344 172.300781 211.101562 172.601562 211.175781 172.902344 C 211.324219 173.5 210.277344 175.453125 209.375 176.125 C 208.476562 176.800781 206.824219 177.101562 205.777344 176.875 C 204.800781 176.578125 203.976562 175.828125 203.375 174.851562 C 202.625 173.578125 201.875 170.050781 202.402344 169.527344 C 202.625 169.300781 203.527344 169.375 203.824219 169.75 C 204.277344 170.277344 203.375 172.675781 203.527344 173.652344 C 203.675781 174.25 203.824219 174.777344 204.277344 175.078125 C 204.726562 175.453125 205.699219 175.675781 206.449219 175.601562 C 207.351562 175.527344 208.476562 174.476562 209.300781 174.328125 C 209.902344 174.25 210.875 174.25 211.027344 174.550781 C 211.175781 175.078125 208.925781 177.625 208.101562 178.078125 C 207.726562 178.226562 207.199219 178.226562 207.125 178.078125 C 206.902344 177.703125 208.324219 174.851562 209.074219 174.550781 C 209.527344 174.402344 210.425781 174.777344 210.574219 175.078125 C 210.652344 175.375 210.351562 176.050781 210.050781 176.277344 C 209.824219 176.5 209.300781 176.652344 209.074219 176.5 C 208.925781 176.425781 208.699219 175.75 208.699219 175.75 " clip-rule="nonzero"/></clipPath><clipPath id="304bca0f9d"><path d="M 210.167969 172 L 217.984375 172 L 217.984375 177.34375 L 210.167969 177.34375 Z M 210.167969 172 " clip-rule="nonzero"/></clipPath><clipPath id="f6ad468a60"><path d="M 216.050781 176.800781 C 213.050781 177.101562 212.226562 176.726562 211.851562 176.203125 C 211.550781 175.601562 211.476562 174.625 211.699219 174.027344 C 211.925781 173.425781 212.902344 172.527344 213.351562 172.675781 C 213.949219 172.828125 214.777344 175.675781 214.402344 176.425781 C 214.175781 177.027344 212.976562 177.328125 212.375 177.328125 C 211.851562 177.328125 211.324219 177.101562 211.027344 176.726562 C 210.574219 176.351562 210.050781 175.300781 210.199219 174.703125 C 210.351562 173.953125 211.402344 172.75 212.152344 172.601562 C 212.976562 172.527344 214.324219 173.351562 214.699219 173.953125 C 215 174.550781 214.925781 175.675781 214.550781 176.203125 C 214.25 176.800781 213.277344 177.328125 212.675781 177.328125 C 212 177.402344 211.027344 176.953125 210.652344 176.351562 C 210.277344 175.75 210.125 174.175781 210.652344 173.5 C 211.402344 172.527344 215.226562 171.550781 216.125 172.226562 C 216.875 172.75 216.875 175.226562 216.351562 176.050781 C 215.824219 176.800781 214.027344 177.402344 213.199219 177.175781 C 212.449219 176.953125 211.550781 175.828125 211.550781 175.078125 C 211.476562 174.402344 212.152344 173.277344 212.824219 172.828125 C 213.652344 172.300781 215.527344 172 216.425781 172.375 C 217.175781 172.75 217.851562 173.800781 217.925781 174.476562 C 218.074219 175 217.777344 175.601562 217.476562 175.976562 C 217.101562 176.425781 216.050781 176.800781 216.050781 176.800781 " clip-rule="nonzero"/></clipPath><clipPath id="f35e6b1005"><path d="M 231.472656 150.597656 L 237.230469 150.597656 L 237.230469 156.585938 L 231.472656 156.585938 Z M 231.472656 150.597656 " clip-rule="nonzero"/></clipPath><clipPath id="92945e83e8"><path d="M 236.300781 154.75 C 233.75 156.625 232.699219 156.402344 232.324219 155.953125 C 231.800781 155.425781 231.5 153.925781 231.726562 153.25 C 232.027344 152.652344 232.851562 152.125 233.449219 151.976562 C 234.125 151.902344 235.101562 152.203125 235.476562 152.726562 C 235.925781 153.328125 236.074219 154.828125 235.699219 155.5 C 235.402344 156.027344 234.5 156.550781 233.902344 156.550781 C 233.226562 156.550781 232.324219 156.027344 231.949219 155.578125 C 231.652344 155.203125 231.425781 154.75 231.5 154.226562 C 231.652344 153.328125 232.925781 151.601562 233.675781 151 C 234.199219 150.703125 234.726562 150.550781 235.25 150.625 C 235.777344 150.703125 236.375 150.925781 236.675781 151.375 C 237.050781 151.828125 237.277344 152.800781 237.199219 153.402344 C 237.125 153.925781 236.300781 154.75 236.300781 154.75 " clip-rule="nonzero"/></clipPath><clipPath id="555a167bcd"><path d="M 248.351562 167.316406 L 262.53125 167.316406 L 262.53125 178 L 248.351562 178 Z M 248.351562 167.316406 " clip-rule="nonzero"/></clipPath><clipPath id="1a58c8083a"><path d="M 262.476562 170.652344 C 259.324219 175.152344 256.402344 176.652344 254.449219 177.25 C 252.875 177.777344 250.851562 178.078125 249.875 177.777344 C 249.277344 177.550781 248.902344 177.175781 248.675781 176.726562 C 248.375 176.125 248.300781 175 248.601562 174.402344 C 248.902344 173.726562 249.800781 173.050781 250.476562 172.976562 C 251.152344 172.902344 252.199219 173.277344 252.652344 173.800781 C 253.101562 174.25 253.402344 175.375 253.25 176.050781 C 253.101562 176.726562 252.277344 177.476562 251.675781 177.777344 C 251.226562 178 250.625 178.078125 250.101562 177.851562 C 249.5 177.625 248.601562 176.875 248.449219 176.203125 C 248.226562 175.453125 248.675781 174.101562 249.425781 173.351562 C 250.625 172.226562 254.226562 172.300781 256.027344 171.25 C 257.675781 170.203125 258.949219 167.578125 260.152344 167.351562 C 260.902344 167.203125 261.726562 167.578125 262.175781 168.101562 C 262.625 168.625 262.476562 170.652344 262.476562 170.652344 " clip-rule="nonzero"/></clipPath></defs><g clip-path="url(#dee8dfb950)"><rect x="-37.5" width="450" fill="#ffffff" y="-37.499999" height="449.999989" fill-opacity="1"/></g><g clip-path="url(#e3bb184a37)"><path fill="#26a9e0" d="M 162.175781 195.914062 C 161.984375 196.058594 161.695312 196.277344 161.304688 196.511719 C 160.914062 196.75 160.421875 197.011719 159.824219 197.257812 C 159.226562 197.5 158.523438 197.730469 157.730469 197.882812 C 157.535156 197.921875 157.332031 197.953125 157.121094 197.984375 C 157.019531 198 156.914062 198.011719 156.804688 198.023438 L 156.726562 198.035156 L 156.6875 198.039062 L 156.667969 198.042969 C 156.613281 198.039062 156.644531 198.042969 156.632812 198.042969 L 156.621094 198.042969 C 156.570312 198.046875 156.519531 198.050781 156.46875 198.054688 C 156.371094 198.0625 156.265625 198.070312 156.164062 198.078125 C 156.0625 198.085938 155.960938 198.097656 155.835938 198.097656 C 155.605469 198.097656 155.359375 198.105469 155.125 198.097656 C 154.1875 198.074219 153.191406 197.9375 152.191406 197.664062 C 151.191406 197.386719 150.1875 196.976562 149.230469 196.433594 C 148.277344 195.890625 147.378906 195.203125 146.578125 194.425781 C 146.476562 194.328125 146.375 194.230469 146.28125 194.125 L 145.992188 193.816406 C 145.804688 193.609375 145.628906 193.394531 145.453125 193.179688 C 145.109375 192.738281 144.785156 192.28125 144.503906 191.808594 C 143.933594 190.863281 143.492188 189.863281 143.1875 188.863281 C 142.886719 187.859375 142.71875 186.859375 142.664062 185.914062 C 142.660156 185.796875 142.65625 185.679688 142.648438 185.5625 C 142.644531 185.445312 142.640625 185.328125 142.644531 185.214844 C 142.648438 184.984375 142.644531 184.761719 142.660156 184.539062 C 142.679688 184.316406 142.695312 184.097656 142.710938 183.882812 C 142.722656 183.785156 142.734375 183.6875 142.75 183.589844 C 142.761719 183.488281 142.777344 183.386719 142.789062 183.289062 C 142.902344 182.5 143.0625 181.796875 143.230469 181.179688 C 143.394531 180.566406 143.570312 180.039062 143.730469 179.613281 C 143.886719 179.1875 144.03125 178.859375 144.128906 178.636719 C 144.230469 178.417969 144.289062 178.300781 144.289062 178.300781 C 144.289062 178.300781 144.292969 178.429688 144.296875 178.671875 C 144.304688 178.914062 144.3125 179.265625 144.320312 179.71875 C 144.332031 180.164062 144.34375 180.703125 144.371094 181.3125 C 144.398438 181.921875 144.445312 182.605469 144.515625 183.332031 C 144.535156 183.519531 144.558594 183.707031 144.578125 183.898438 L 144.578125 183.910156 C 144.578125 183.914062 144.578125 183.898438 144.578125 183.910156 L 144.582031 183.925781 L 144.585938 183.960938 L 144.597656 184.03125 C 144.605469 184.078125 144.609375 184.121094 144.617188 184.167969 C 144.628906 184.261719 144.644531 184.355469 144.65625 184.449219 C 144.6875 184.636719 144.726562 184.828125 144.761719 185.019531 C 144.777344 185.113281 144.800781 185.210938 144.820312 185.304688 C 144.84375 185.402344 144.867188 185.5 144.886719 185.597656 C 145.074219 186.371094 145.332031 187.164062 145.671875 187.945312 C 146.015625 188.726562 146.441406 189.492188 146.9375 190.222656 C 147.183594 190.589844 147.460938 190.9375 147.738281 191.285156 C 147.808594 191.371094 147.886719 191.449219 147.960938 191.535156 C 148.035156 191.617188 148.101562 191.707031 148.179688 191.785156 C 148.335938 191.945312 148.484375 192.113281 148.648438 192.261719 C 149.289062 192.886719 149.984375 193.453125 150.722656 193.929688 C 151.460938 194.40625 152.234375 194.808594 153.015625 195.128906 C 153.800781 195.449219 154.59375 195.6875 155.367188 195.851562 C 155.464844 195.878906 155.554688 195.890625 155.644531 195.90625 C 155.738281 195.925781 155.828125 195.941406 155.921875 195.960938 C 156.003906 195.980469 156.113281 195.992188 156.214844 196.003906 C 156.320312 196.019531 156.421875 196.03125 156.519531 196.046875 C 156.570312 196.054688 156.621094 196.058594 156.671875 196.066406 L 156.679688 196.066406 C 156.671875 196.066406 156.710938 196.070312 156.664062 196.070312 L 156.683594 196.070312 L 156.789062 196.082031 C 156.878906 196.089844 156.972656 196.101562 157.0625 196.109375 C 157.246094 196.125 157.425781 196.140625 157.601562 196.148438 C 158.308594 196.191406 158.96875 196.175781 159.558594 196.132812 C 160.148438 196.089844 160.667969 196.019531 161.097656 195.949219 C 161.3125 195.914062 161.503906 195.875 161.675781 195.84375 C 161.84375 195.808594 161.988281 195.78125 162.101562 195.757812 C 162.335938 195.703125 162.464844 195.675781 162.464844 195.675781 C 162.464844 195.675781 162.367188 195.761719 162.175781 195.914062 Z M 156.664062 146.625 C 156.664062 146.625 139.417969 166.75 139.417969 183.902344 C 139.417969 193.527344 147.136719 201.324219 156.664062 201.324219 C 166.191406 201.324219 173.914062 193.527344 173.914062 183.902344 C 173.914062 174.28125 156.664062 162.878906 156.664062 146.625 " fill-opacity="1" fill-rule="nonzero"/></g><g clip-path="url(#8f9a25e5b4)"><path fill="#b48bcc" d="M 46.601562 185.078125 C 46.648438 187.074219 45.625 190.335938 46.160156 193.113281 C 48.800781 206.890625 60.347656 220.34375 55.375 234.84375 C 52.519531 243.171875 44.984375 247.695312 39.652344 254.207031 C 35.234375 259.601562 29.695312 280.847656 18.941406 269.46875 C 11.730469 261.835938 19.265625 232.859375 22.246094 222.847656 Z M 322.199219 292.859375 C 322.269531 292.859375 321.972656 292.332031 321.9375 292.238281 C 320.648438 288.765625 319.910156 285.003906 319.183594 281.386719 C 317.359375 272.3125 316.101562 262.769531 316.304688 253.5 C 316.589844 240.59375 322.632812 245.03125 331.222656 240.730469 C 339.425781 236.628906 342.945312 210.878906 351.808594 215.429688 C 356.347656 217.757812 358.128906 224.214844 359.21875 228.738281 C 366.378906 258.421875 338.132812 286.023438 315.910156 301.710938 Z M 87.019531 323.433594 C 85.503906 323.453125 89.378906 321.414062 90.0625 320.0625 C 91.53125 317.171875 92.570312 314.09375 93.445312 310.980469 C 95.832031 302.519531 98 283.375 110.726562 284.453125 C 113.210938 284.664062 158.214844 329.226562 122.417969 325.597656 Z M 27.132812 314.355469 C 27.832031 314.644531 27.023438 315.867188 27.125 316.613281 C 27.941406 322.730469 30.015625 328.667969 32.675781 334.210938 C 36.964844 343.140625 47.109375 352.246094 48.371094 362.246094 C 50.976562 382.824219 26.863281 363.683594 22.273438 357.441406 C 16.210938 349.191406 21.257812 333.421875 22.9375 324.417969 L 27.132812 314.355469 " fill-opacity="1" fill-rule="evenodd"/></g><path fill="#5e6697" d="M 280.542969 132.957031 C 279.445312 138.246094 282.726562 143.566406 277.765625 146.363281 C 265.3125 153.378906 245.269531 149.40625 239.917969 135.480469 C 239.269531 133.785156 239.003906 131.996094 239.050781 130.175781 C 238.847656 130.074219 238.648438 129.957031 238.476562 129.792969 C 222.738281 115.277344 205.128906 124.621094 201.957031 126.507812 C 201.738281 129.679688 200.828125 132.902344 199.042969 136.058594 C 196.761719 140.101562 193.40625 144.355469 188.996094 146.25 C 162.308594 157.71875 130.0625 129.441406 156.316406 105.636719 C 160.925781 101.464844 166.351562 98.832031 172.507812 97.882812 C 174.804688 97.53125 177.34375 97.980469 179.742188 98.25 C 188.925781 99.292969 199.757812 109.332031 201.703125 121.238281 C 208.257812 117.957031 224.613281 112.070312 240.035156 124.84375 C 242.386719 117.746094 248.632812 111.039062 255.273438 108.292969 C 268.550781 102.792969 280.003906 110.628906 284.988281 120.59375 C 285.101562 120.816406 284.226562 121.65625 284.125 121.78125 C 281.691406 124.820312 281.316406 129.199219 280.542969 132.957031 " fill-opacity="1" fill-rule="evenodd"/><g clip-path="url(#416f66f801)"><path stroke-linecap="round" transform="matrix(0.0559769, 0, 0, -0.0559485, 3.046413, 371.532984)" fill="none" stroke-linejoin="round" d="M 4963.96631 2990.366209 C 4967.804386 2991.622946 5032.632977 2946.729517 5043.100457 2943.727313 C 5174.641787 2905.676118 5330.467669 3031.768703 5397.25019 3139.708424 M 5104.928371 4524.422841 C 5127.956827 4496.565177 5385.177697 4040.09047 5492.36469 3925.727428 M 4991.879589 4241.866533 C 5031.446663 4073.393993 5176.665499 3843.830084 5285.666856 3746.083895 M 4943.101134 2164.201449 C 4953.568613 2117.073821 4968.223085 2070.923656 4984.343004 2025.471678 C 5034.098425 1885.764445 5097.740702 1752.131439 5168.012383 1621.640276 C 5397.948022 1194.419607 5574.499515 814.466204 5638.630274 330.27347 M 5544.492739 2924.108256 C 5480.082847 3083.155271 5361.590976 3204.70964 5252.729186 3333.594973 C 5035.982571 3590.108903 4969.618749 3898.288676 4984.412787 4237.467955 C 4995.089617 4483.718535 5262.777966 4714.469361 5263.196666 4716.005373 L 5263.406015 4713.910812 C 5257.962926 4712.165344 5533.885693 4358.184499 5647.632307 4252.618614 C 5893.618082 4024.381261 6353.977843 3672.006246 6483.774593 3367.387227 C 6670.095733 2930.182484 6431.506977 2168.250934 6148.536106 1803.867101 C 5965.215644 1567.740234 5707.506291 1366.662358 5453.286099 1211.315735 M 4635.636361 5849.302626 C 4644.847743 5818.931489 4656.152621 5789.188719 4667.876198 5759.795044 C 4697.743407 5684.809752 4730.262378 5610.871741 4762.711565 5537.003549 C 4829.35452 5385.706411 4898.579453 5235.316916 4944.078098 5076.060445 C 4995.019833 4897.60383 5037.029319 4694.780486 5080.992734 4514.508584 M 4079.324701 6316.808689 C 4100.957493 6330.074243 4124.265081 6340.616868 4148.130935 6349.204569 C 4217.286085 6374.269485 4290.69801 6390.746699 4362.853837 6404.151891 C 4629.844355 6453.583536 4898.50967 6448.975501 5167.5239 6425.027685 C 5234.864687 6418.953457 5302.973089 6413.088686 5370.593008 6413.088686 C 5372.756288 6413.088686 5389.364689 6415.602159 5390.48122 6413.437779 C 5392.01645 6410.645031 5385.875529 6403.244248 5384.758998 6401.428962 C 5334.096395 6322.882916 5293.761707 6236.586994 5255.032031 6151.757265 C 5195.576746 6021.754833 4971.15398 5373.976868 4865.920916 5301.295594 M 2420.647854 6276.034564 C 2462.308423 6298.865281 2636.76642 6363.936316 2680.729835 6381.809905 C 2812.131598 6435.221216 2953.442575 6470.200388 3094.474419 6485.071773 C 3347.717647 6511.742519 3601.309791 6476.065159 3843.527273 6400.800593 C 3976.394483 6359.467919 4104.237303 6287.903744 4239.895841 6260.255536 M 1798.181722 3142.710628 C 1798.879554 3142.920084 1806.485923 3134.192746 1807.113971 3133.564377 C 2490.710185 2468.68083 3944.084862 2602.942204 4141.222398 2624.72564 C 4441.150586 2657.959345 5093.832843 2873.000963 5141.704117 3478.748065 M 1027.496077 3826.515045 C 1018.214911 3822.675016 677.742685 3165.960258 648.015042 3116.738069 C 262.951353 2478.455449 -408.781717 1616.752966 487.234553 1076.146718 M 1565.733887 5450.986902 C 1547.729822 5443.586119 1355.965592 5017.971281 1340.334156 4984.318664 C 1191.835509 4663.501705 1089.32399 4345.268039 1052.199329 3993.311936 C 1030.63632 3789.092218 1035.242012 3571.118215 985.695941 3371.227256 M 1427.702721 5181.067781 C 1434.68104 5178.484489 1399.370742 5250.327938 1389.042829 5289.007502 C 1366.084156 5375.51288 1347.312476 5463.414632 1330.006242 5551.316384 C 1310.32738 5651.296773 1170.202718 6465.871628 1207.187813 6531.850306 C 1213.607867 6543.300574 1510.60516 6535.690335 1539.076706 6535.690335 C 1885.899203 6535.690335 2335.651918 6527.591365 2661.469672 6387.953951 " stroke="#5e6697" stroke-width="85" stroke-opacity="1" stroke-miterlimit="10"/></g><path stroke-linecap="round" transform="matrix(0.0559769, 0, 0, -0.0559485, 3.046413, 371.532984)" fill="none" stroke-linejoin="round" d="M 3061.955449 1228.072224 C 3055.88431 1234.146452 3074.307075 1215.993588 3081.006262 1210.617547 C 3092.590273 1201.261841 3104.034718 1191.836315 3115.200029 1182.061696 C 3145.695287 1155.111675 3174.306399 1125.648181 3201.591629 1095.416681 C 3287.285397 1000.672695 3365.651929 887.496571 3414.569951 768.804769 M 2798.035392 1157.904424 C 2797.407343 1154.483307 2835.29962 1127.463467 2838.37008 1124.670719 C 2971.376857 1006.188373 3056.791492 866.900053 3158.814528 725.237896 M 437.618699 1097.581061 C 449.272493 1128.580567 410.473034 1037.11806 400.982519 1005.490186 C 379.698644 933.99583 361.903928 861.035281 348.017072 787.795458 C 310.89241 590.487791 252.972355 324.687974 315.288752 125.146109 M 4857.965631 3517.567266 C 4873.666851 3495.923467 4948.962922 3487.335766 4973.247475 3477.700785 C 5055.3823 3445.374723 5129.282708 3397.828184 5205.137044 3353.702761 M 4799.90601 3642.822027 C 4796.347067 3633.605957 4819.584872 3645.3355 4829.424303 3646.382781 C 4851.545577 3648.896254 4873.666851 3651.549365 4895.788125 3653.713745 C 4957.19734 3659.857791 5002.556419 3640.099097 5063.756284 3632.209583 M 4698.092323 3743.151509 C 4690.416172 3739.660573 4711.281348 3753.833771 4718.399234 3758.441806 C 4741.706822 3773.522646 4765.921592 3787.276932 4790.136362 3800.961398 C 4837.658721 3827.8416 4927.609264 3899.266138 4984.203438 3901.919249 M 3165.932415 3579.845553 C 3166.560463 3583.336488 3142.136344 3570.070934 3115.269812 3557.992298 C 3081.006262 3542.632182 3047.091627 3526.504061 3013.246776 3510.236302 C 2914.782683 3462.899219 2818.412086 3411.51265 2723.437152 3357.472971 C 2431.673599 3191.653542 2126.162755 3002.444846 1901.879555 2747.606565 M 2837.811815 3634.932513 C 2839.277262 3629.277198 2825.948671 3635.002332 2820.226449 3633.815414 C 2775.006936 3624.529526 2730.555039 3610.495965 2686.661407 3596.811499 C 2582.335525 3564.3458 2479.614656 3526.922973 2378.149886 3486.707398 C 2074.523188 3366.270128 1768.523863 3229.076369 1494.485242 3049.363017 M 3068.584853 3790.62823 C 3068.375503 3785.601283 3060.629568 3797.191188 3055.88431 3798.797018 C 3044.3003 3802.567229 3031.669541 3803.823965 3019.66683 3805.429796 C 2978.564526 3810.805836 2937.252873 3814.157134 2895.871436 3816.740426 C 2774.169538 3824.280846 2651.769807 3821.557917 2529.928343 3816.391333 C 2149.330777 3800.33303 1719.745407 3777.502313 1368.107869 3611.194152 M 422.336178 1118.107761 C 427.360568 1124.949994 434.827371 1106.657493 441.735907 1101.840002 C 462.391734 1087.457348 483.954743 1074.261613 505.796884 1061.694245 C 560.367345 1030.275827 618.2874 1003.884356 676.556371 980.355452 C 857.922904 907.115628 1049.756917 869.134251 1244.591607 858.033077 C 1509.837545 842.812599 1779.968307 827.10339 2045.563161 823.193542 C 2434.116011 817.328771 2700.757613 843.091873 3074.795557 707.713401 L 3078.075368 706.456664 C 3393.565209 633.705571 3571.442582 795.964246 3380.306401 1114.33755 C 3306.894476 1236.659925 3195.590274 1335.872308 3086.519135 1425.449709 C 2624.135661 1804.984201 2060.845682 2004.875159 1459.802992 1953.698047 C 1282.553667 1938.617206 1108.025888 1904.196583 935.312471 1862.375178 C 922.751495 1859.303155 772.159353 1831.375672 769.298242 1817.830843 M 4002.0747 3898.428313 C 4013.309795 3860.377118 4051.341639 3766.610594 4073.602479 3733.446709 C 4211.424296 3528.528803 4369.413458 3660.905072 4391.534732 3671.238241 M 4001.167519 3909.459669 C 4000.190554 3909.738944 3998.097058 3895.146834 3997.817925 3893.959916 C 3994.538115 3877.412882 3990.351123 3860.865849 3985.815215 3844.59809 C 3973.812505 3802.148316 3956.924971 3760.396729 3933.408033 3723.043721 C 3863.624834 3612.241433 3693.284047 3577.471717 3581.142446 3645.754412 " stroke="#5e6697" stroke-width="85" stroke-opacity="1" stroke-miterlimit="10"/><path fill="#e06cb9" d="M 292.117188 22.898438 C 291.988281 19.960938 259.945312 17.550781 254.59375 24.503906 C 253.144531 26.390625 269.765625 44.199219 275.496094 51.632812 C 279.3125 56.589844 292.378906 29.015625 292.117188 22.898438 Z M 89.878906 23.15625 C 86.46875 26.316406 87.980469 60.945312 95.230469 60.796875 C 102.484375 60.644531 134.285156 28.523438 133.390625 22.253906 C 132.5 15.980469 95.574219 17.886719 89.878906 23.15625 Z M 234.183594 146.601562 C 233.550781 147.339844 232.820312 148.007812 232.089844 148.644531 C 230.851562 149.71875 229.480469 150.777344 227.988281 151.472656 L 227.367188 151.644531 C 227.390625 152.109375 226.503906 151.28125 226.097656 151.050781 C 225.3125 150.605469 224.5625 150.105469 223.855469 149.550781 C 222.648438 148.605469 216.566406 143.144531 218.664062 141.40625 C 220.484375 139.898438 224.789062 140.746094 226.917969 140.847656 C 231.375 141.058594 240.015625 139.863281 234.183594 146.601562 " fill-opacity="1" fill-rule="evenodd"/><g clip-path="url(#40013854ff)"><path fill="#ffffff" d="M 257.339844 183.558594 C 257.339844 184.5625 257.289062 185.570312 257.191406 186.570312 C 257.09375 187.574219 256.945312 188.570312 256.75 189.554688 C 256.550781 190.542969 256.308594 191.519531 256.015625 192.484375 C 255.722656 193.445312 255.382812 194.394531 255 195.324219 C 254.613281 196.253906 254.183594 197.164062 253.707031 198.050781 C 253.234375 198.941406 252.714844 199.804688 252.15625 200.640625 C 251.597656 201.476562 251 202.285156 250.359375 203.066406 C 249.71875 203.84375 249.046875 204.589844 248.332031 205.300781 C 247.621094 206.011719 246.875 206.6875 246.097656 207.328125 C 245.320312 207.964844 244.511719 208.566406 243.671875 209.125 C 242.835938 209.683594 241.972656 210.203125 241.085938 210.675781 C 240.195312 211.152344 239.289062 211.582031 238.355469 211.964844 C 237.425781 212.351562 236.480469 212.691406 235.515625 212.984375 C 234.550781 213.273438 233.574219 213.519531 232.589844 213.714844 C 231.601562 213.914062 230.605469 214.058594 229.601562 214.160156 C 228.601562 214.257812 227.597656 214.308594 226.589844 214.308594 C 225.582031 214.308594 224.578125 214.257812 223.574219 214.160156 C 222.574219 214.058594 221.578125 213.914062 220.589844 213.714844 C 219.601562 213.519531 218.625 213.273438 217.664062 212.984375 C 216.699219 212.691406 215.753906 212.351562 214.820312 211.964844 C 213.890625 211.582031 212.980469 211.152344 212.09375 210.675781 C 211.207031 210.203125 210.34375 209.683594 209.503906 209.125 C 208.667969 208.566406 207.859375 207.964844 207.082031 207.328125 C 206.304688 206.6875 205.558594 206.011719 204.847656 205.300781 C 204.132812 204.589844 203.457031 203.84375 202.820312 203.066406 C 202.179688 202.285156 201.582031 201.476562 201.023438 200.640625 C 200.460938 199.804688 199.945312 198.941406 199.46875 198.050781 C 198.996094 197.164062 198.566406 196.253906 198.179688 195.324219 C 197.792969 194.394531 197.457031 193.445312 197.164062 192.484375 C 196.871094 191.519531 196.625 190.542969 196.429688 189.554688 C 196.234375 188.570312 196.085938 187.574219 195.988281 186.570312 C 195.890625 185.570312 195.839844 184.5625 195.839844 183.558594 C 195.839844 182.550781 195.890625 181.546875 195.988281 180.542969 C 196.085938 179.539062 196.234375 178.546875 196.429688 177.558594 C 196.625 176.570312 196.871094 175.59375 197.164062 174.628906 C 197.457031 173.667969 197.792969 172.71875 198.179688 171.789062 C 198.566406 170.859375 198.996094 169.949219 199.46875 169.0625 C 199.945312 168.171875 200.460938 167.3125 201.023438 166.472656 C 201.582031 165.636719 202.179688 164.828125 202.820312 164.050781 C 203.457031 163.269531 204.132812 162.527344 204.847656 161.8125 C 205.558594 161.101562 206.304688 160.425781 207.082031 159.785156 C 207.859375 159.148438 208.667969 158.550781 209.503906 157.988281 C 210.34375 157.429688 211.207031 156.914062 212.09375 156.4375 C 212.980469 155.964844 213.890625 155.535156 214.820312 155.148438 C 215.753906 154.761719 216.699219 154.421875 217.664062 154.132812 C 218.625 153.839844 219.601562 153.59375 220.589844 153.398438 C 221.578125 153.203125 222.574219 153.054688 223.574219 152.957031 C 224.578125 152.855469 225.582031 152.808594 226.589844 152.808594 C 227.597656 152.808594 228.601562 152.855469 229.601562 152.957031 C 230.605469 153.054688 231.601562 153.203125 232.589844 153.398438 C 233.574219 153.59375 234.550781 153.839844 235.515625 154.132812 C 236.480469 154.421875 237.425781 154.761719 238.355469 155.148438 C 239.289062 155.535156 240.195312 155.964844 241.085938 156.4375 C 241.972656 156.914062 242.835938 157.429688 243.671875 157.988281 C 244.511719 158.550781 245.320312 159.148438 246.097656 159.785156 C 246.875 160.425781 247.621094 161.101562 248.332031 161.8125 C 249.046875 162.527344 249.71875 163.269531 250.359375 164.050781 C 251 164.828125 251.597656 165.636719 252.15625 166.472656 C 252.714844 167.3125 253.234375 168.171875 253.707031 169.0625 C 254.183594 169.949219 254.613281 170.859375 255 171.789062 C 255.382812 172.71875 255.722656 173.667969 256.015625 174.628906 C 256.308594 175.59375 256.550781 176.570312 256.75 177.558594 C 256.945312 178.546875 257.09375 179.539062 257.191406 180.542969 C 257.289062 181.546875 257.339844 182.550781 257.339844 183.558594 Z M 257.339844 183.558594 " fill-opacity="1" fill-rule="nonzero"/></g><g clip-path="url(#ef713580b3)"><g clip-path="url(#0fc26e1592)"><g clip-path="url(#2b08931608)"><path fill="#5e6697" d="M 250.457031 165.636719 C 248.710938 164.179688 246.6875 163.050781 244.503906 162.351562 C 242.121094 161.589844 239.824219 161.375 237.785156 161.007812 C 235.757812 160.640625 233.921875 160.097656 232.59375 159.128906 C 231.628906 158.425781 230.84375 157.425781 230.386719 156.320312 C 229.929688 155.214844 229.777344 153.957031 229.960938 152.773438 C 230.007812 152.484375 229.996094 152.195312 229.925781 151.910156 C 229.855469 151.625 229.734375 151.363281 229.5625 151.125 C 229.386719 150.890625 229.175781 150.695312 228.925781 150.542969 C 228.675781 150.390625 228.402344 150.289062 228.113281 150.246094 C 227.824219 150.199219 227.535156 150.210938 227.25 150.28125 C 226.964844 150.351562 226.703125 150.472656 226.464844 150.644531 C 226.230469 150.820312 226.035156 151.03125 225.882812 151.28125 C 225.730469 151.53125 225.628906 151.800781 225.585938 152.09375 C 225.273438 154.09375 225.519531 156.148438 226.292969 158.019531 C 227.066406 159.886719 228.347656 161.515625 229.984375 162.707031 C 232.191406 164.320312 234.71875 164.953125 237 165.367188 C 239.269531 165.773438 241.363281 165.996094 243.152344 166.570312 C 246.386719 167.605469 249.238281 169.996094 250.832031 172.992188 C 252.421875 175.992188 252.800781 179.691406 251.847656 182.953125 C 251.765625 183.234375 251.742188 183.519531 251.773438 183.8125 C 251.804688 184.105469 251.890625 184.378906 252.03125 184.636719 C 252.171875 184.894531 252.359375 185.117188 252.585938 185.300781 C 252.816406 185.484375 253.070312 185.617188 253.351562 185.699219 C 253.636719 185.78125 253.921875 185.808594 254.214844 185.777344 C 254.503906 185.742188 254.78125 185.65625 255.039062 185.515625 C 255.296875 185.375 255.515625 185.191406 255.699219 184.960938 C 255.882812 184.734375 256.019531 184.476562 256.101562 184.195312 C 257.386719 179.792969 256.894531 174.96875 254.746094 170.914062 C 253.667969 168.890625 252.199219 167.097656 250.457031 165.636719 Z M 250.457031 165.636719 " fill-opacity="1" fill-rule="nonzero"/></g></g></g><g clip-path="url(#4aa5d6d0dc)"><g clip-path="url(#88307f09ed)"><g clip-path="url(#cd2eb7bfc1)"><path fill="#5e6697" d="M 207.148438 167.613281 C 208.726562 165.976562 210.617188 164.640625 212.714844 163.710938 C 215 162.699219 217.261719 162.238281 219.25 161.65625 C 221.226562 161.074219 222.992188 160.339844 224.210938 159.234375 C 225.09375 158.429688 225.769531 157.355469 226.105469 156.207031 C 226.441406 155.058594 226.457031 153.789062 226.148438 152.632812 C 226.074219 152.351562 226.054688 152.0625 226.09375 151.773438 C 226.132812 151.480469 226.226562 151.207031 226.371094 150.953125 C 226.519531 150.699219 226.707031 150.484375 226.941406 150.304688 C 227.175781 150.125 227.433594 150 227.71875 149.921875 C 228 149.847656 228.289062 149.828125 228.578125 149.867188 C 228.871094 149.90625 229.144531 149.996094 229.398438 150.144531 C 229.652344 150.292969 229.867188 150.480469 230.046875 150.714844 C 230.226562 150.949219 230.351562 151.207031 230.429688 151.488281 C 230.953125 153.445312 230.929688 155.515625 230.355469 157.457031 C 229.785156 159.398438 228.6875 161.152344 227.1875 162.515625 C 225.164062 164.355469 222.722656 165.253906 220.496094 165.90625 C 218.285156 166.554688 216.222656 167 214.507812 167.761719 C 211.402344 169.136719 208.820312 171.816406 207.558594 174.964844 C 206.292969 178.117188 206.316406 181.839844 207.609375 184.976562 C 207.722656 185.25 207.777344 185.53125 207.777344 185.824219 C 207.777344 186.117188 207.722656 186.402344 207.609375 186.671875 C 207.496094 186.945312 207.335938 187.183594 207.125 187.390625 C 206.917969 187.597656 206.679688 187.757812 206.40625 187.871094 C 206.136719 187.980469 205.851562 188.039062 205.558594 188.035156 C 205.265625 188.035156 204.984375 187.980469 204.710938 187.867188 C 204.441406 187.753906 204.203125 187.59375 203.996094 187.386719 C 203.789062 187.179688 203.628906 186.9375 203.515625 186.667969 C 201.765625 182.425781 201.738281 177.578125 203.445312 173.320312 C 204.300781 171.1875 205.566406 169.25 207.148438 167.613281 Z M 207.148438 167.613281 " fill-opacity="1" fill-rule="nonzero"/></g></g></g><g clip-path="url(#5656177054)"><g clip-path="url(#64a85fb05c)"><g clip-path="url(#efbadeb993)"><path fill="#fff7f0" d="M 209.1875 177.007812 C 209.570312 176.910156 209.945312 176.78125 210.308594 176.617188 C 212.238281 175.746094 213.699219 173.996094 214.203125 171.941406 C 214.261719 171.714844 214.226562 171.503906 214.109375 171.304688 C 213.988281 171.105469 213.816406 170.980469 213.589844 170.921875 C 213.363281 170.867188 213.152344 170.898438 212.953125 171.019531 C 212.753906 171.140625 212.625 171.3125 212.570312 171.539062 C 212.191406 173.066406 211.054688 174.433594 209.617188 175.082031 C 208.527344 175.570312 207.246094 175.675781 206.09375 175.367188 C 204.9375 175.058594 203.878906 174.328125 203.179688 173.359375 C 203.046875 173.171875 202.863281 173.058594 202.632812 173.019531 C 202.402344 172.984375 202.195312 173.035156 202.003906 173.167969 C 201.816406 173.304688 201.703125 173.488281 201.667969 173.71875 C 201.628906 173.949219 201.679688 174.15625 201.816406 174.34375 C 202.746094 175.636719 204.117188 176.582031 205.65625 176.996094 C 206.8125 177.304688 208.035156 177.304688 209.1875 177.007812 Z M 209.1875 177.007812 " fill-opacity="1" fill-rule="nonzero"/></g></g></g><g clip-path="url(#917e6af3f1)"><path fill="#ffffff" d="M 268.105469 179.167969 C 268.328125 182.042969 268.582031 184.933594 268.6875 187.820312 C 268.835938 192.335938 268.730469 196.847656 268.65625 201.359375 C 268.613281 203.5625 267.808594 205.589844 265.515625 206.289062 C 264.070312 206.722656 262.730469 206.453125 261.269531 206.378906 C 259.691406 206.304688 258.113281 206.261719 256.53125 206.230469 C 253.300781 206.15625 250.070312 206.15625 246.851562 206.1875 C 240.460938 206.246094 234.085938 206.46875 227.699219 206.648438 C 222.394531 206.796875 217.09375 206.394531 211.777344 206.453125 C 209.691406 206.46875 207.605469 206.527344 205.535156 206.617188 C 203.75 206.691406 201.917969 207.152344 200.128906 206.988281 C 198.789062 206.855469 197.582031 206.199219 196.898438 205.023438 C 196.046875 203.578125 196.433594 201.597656 196.40625 199.988281 C 196.359375 198.15625 196.285156 196.324219 196.210938 194.492188 C 196.019531 190.828125 195.855469 187.164062 195.988281 183.503906 C 196.0625 181.445312 195.839844 178.421875 197.65625 177.097656 C 197.863281 176.890625 198.117188 176.710938 198.371094 176.5625 C 200.933594 175.058594 204.804688 175.414062 207.636719 175.398438 C 215.066406 175.382812 222.457031 175.503906 229.902344 175.503906 C 241.488281 175.488281 252.972656 174.609375 264.5625 175.742188 C 265.394531 175.816406 266.257812 175.9375 266.914062 176.441406 C 267.613281 176.992188 267.925781 177.886719 268.046875 178.78125 C 268.074219 178.914062 268.089844 179.046875 268.105469 179.167969 Z M 268.105469 179.167969 " fill-opacity="1" fill-rule="nonzero"/></g><g clip-path="url(#8e223f01a8)"><g clip-path="url(#7307c7df20)"><g clip-path="url(#f41f84a33e)"><path fill="#ffffff" d="M 253.617188 176.992188 C 254.207031 176.882812 254.792969 176.722656 255.363281 176.511719 C 258.382812 175.398438 260.78125 172.890625 261.765625 169.824219 C 261.820312 169.660156 261.835938 169.496094 261.824219 169.328125 C 261.808594 169.15625 261.761719 168.996094 261.6875 168.847656 C 261.609375 168.695312 261.503906 168.566406 261.375 168.453125 C 261.246094 168.34375 261.101562 168.265625 260.9375 168.210938 C 260.777344 168.160156 260.609375 168.140625 260.441406 168.15625 C 260.273438 168.167969 260.109375 168.214844 259.960938 168.292969 C 259.808594 168.371094 259.679688 168.472656 259.566406 168.601562 C 259.457031 168.730469 259.378906 168.878906 259.324219 169.039062 C 258.59375 171.320312 256.71875 173.277344 254.472656 174.109375 C 252.765625 174.742188 250.8125 174.765625 249.089844 174.175781 C 247.371094 173.585938 245.839844 172.367188 244.878906 170.820312 C 244.789062 170.675781 244.675781 170.554688 244.539062 170.457031 C 244.398438 170.355469 244.246094 170.289062 244.082031 170.25 C 243.917969 170.210938 243.75 170.207031 243.582031 170.234375 C 243.414062 170.261719 243.257812 170.320312 243.113281 170.410156 C 242.96875 170.5 242.847656 170.613281 242.75 170.75 C 242.648438 170.890625 242.582031 171.042969 242.542969 171.207031 C 242.503906 171.371094 242.5 171.539062 242.527344 171.707031 C 242.554688 171.875 242.613281 172.03125 242.703125 172.175781 C 243.980469 174.234375 245.964844 175.8125 248.257812 176.597656 C 249.980469 177.1875 251.835938 177.320312 253.617188 176.992188 Z M 253.617188 176.992188 " fill-opacity="1" fill-rule="nonzero"/></g></g></g><g clip-path="url(#686204a7ac)"><g clip-path="url(#ab97653226)"><path fill="#ffffff" d="M 243.351562 167.578125 L 264.632812 167.578125 L 264.632812 186.625 L 243.351562 186.625 Z M 243.351562 167.578125 " fill-opacity="1" fill-rule="nonzero"/></g></g><g clip-path="url(#d6557e585e)"><g clip-path="url(#3aa79e0725)"><path fill="#fff7f0" d="M 245.976562 165.703125 L 261.5 165.703125 L 261.5 181.226562 L 245.976562 181.226562 Z M 245.976562 165.703125 " fill-opacity="1" fill-rule="nonzero"/></g></g><g clip-path="url(#085486f0bc)"><g clip-path="url(#544852e58c)"><path fill="#fff7f0" d="M 246.199219 164.726562 L 260 164.726562 L 260 178.742188 L 246.199219 178.742188 Z M 246.199219 164.726562 " fill-opacity="1" fill-rule="nonzero"/></g></g><g clip-path="url(#84a404ec2f)"><g clip-path="url(#30a1755820)"><path fill="#ffffff" d="M 245.527344 164.953125 L 260.527344 164.953125 L 260.527344 180.421875 L 245.527344 180.421875 Z M 245.527344 164.953125 " fill-opacity="1" fill-rule="nonzero"/></g></g><g clip-path="url(#7f32a3d32a)"><g clip-path="url(#c363ae03f2)"><path fill="#fff7f0" d="M 219.125 147.851562 L 229.402344 147.851562 L 229.402344 160.535156 L 219.125 160.535156 Z M 219.125 147.851562 " fill-opacity="1" fill-rule="nonzero"/></g></g><g clip-path="url(#788e049c8a)"><g clip-path="url(#4023047842)"><path fill="#e06cb9" d="M 223.25 145.078125 L 234.066406 145.078125 L 234.066406 154.527344 L 223.25 154.527344 Z M 223.25 145.078125 " fill-opacity="1" fill-rule="nonzero"/></g></g><g clip-path="url(#b2adc5ce53)"><g clip-path="url(#796294333b)"><path fill="#5e6697" d="M 224.449219 148.902344 L 232.777344 148.902344 L 232.777344 158.789062 L 224.449219 158.789062 Z M 224.449219 148.902344 " fill-opacity="1" fill-rule="nonzero"/></g></g><g clip-path="url(#388ffe8192)"><g clip-path="url(#e925d6f3ad)"><path fill="#5e6697" d="M 224.226562 147.925781 L 232.777344 147.925781 L 232.777344 158.882812 L 224.226562 158.882812 Z M 224.226562 147.925781 " fill-opacity="1" fill-rule="nonzero"/></g></g><g clip-path="url(#37df6ccb40)"><g clip-path="url(#44c08a3406)"><path fill="#fff7f0" d="M 220.925781 151.902344 L 228.417969 151.902344 L 228.417969 159.25 L 220.925781 159.25 Z M 220.925781 151.902344 " fill-opacity="1" fill-rule="nonzero"/></g></g><g clip-path="url(#81b0cbade0)"><g clip-path="url(#a0e7351e51)"><path fill="#ffffff" d="M 220.25 148.75 L 229.699219 148.75 L 229.699219 161.820312 L 220.25 161.820312 Z M 220.25 148.75 " fill-opacity="1" fill-rule="nonzero"/></g></g><g clip-path="url(#6f7125a9a9)"><g clip-path="url(#e726f5561a)"><path fill="#fff7f0" d="M 226.777344 147.851562 L 237.125 147.851562 L 237.125 161.636719 L 226.777344 161.636719 Z M 226.777344 147.851562 " fill-opacity="1" fill-rule="nonzero"/></g></g><g clip-path="url(#63d6675bb0)"><g clip-path="url(#b9d77b0a0b)"><path fill="#fff7f0" d="M 228.949219 149.5 L 236.597656 149.5 L 236.597656 157 L 228.949219 157 Z M 228.949219 149.5 " fill-opacity="1" fill-rule="nonzero"/></g></g><g clip-path="url(#47151476df)"><g clip-path="url(#f4fbbb3af7)"><path fill="#fff7f0" d="M 226.625 147.550781 L 236.527344 147.550781 L 236.527344 157.152344 L 226.625 157.152344 Z M 226.625 147.550781 " fill-opacity="1" fill-rule="nonzero"/></g></g><g clip-path="url(#950f78b5c3)"><g clip-path="url(#1b13265cc5)"><path fill="#ffffff" d="M 199.175781 166 L 214.25 166 L 214.25 181.3125 L 199.175781 181.3125 Z M 199.175781 166 " fill-opacity="1" fill-rule="nonzero"/></g></g><g clip-path="url(#304bca0f9d)"><g clip-path="url(#f6ad468a60)"><path fill="#ffffff" d="M 207.199219 169.226562 L 220.996094 169.226562 L 220.996094 180.402344 L 207.199219 180.402344 Z M 207.199219 169.226562 " fill-opacity="1" fill-rule="nonzero"/></g></g><g clip-path="url(#f35e6b1005)"><g clip-path="url(#92945e83e8)"><path fill="#ffffff" d="M 228.5 147.625 L 240.199219 147.625 L 240.199219 159.554688 L 228.5 159.554688 Z M 228.5 147.625 " fill-opacity="1" fill-rule="nonzero"/></g></g><g clip-path="url(#555a167bcd)"><g clip-path="url(#1a58c8083a)"><path fill="#ffffff" d="M 245.449219 164.351562 L 265.558594 164.351562 L 265.558594 180.851562 L 245.449219 180.851562 Z M 245.449219 164.351562 " fill-opacity="1" fill-rule="nonzero"/></g></g></svg>